<svg xmlns="http://www.w3.org/2000/svg" xmlns:xlink="http://www.w3.org/1999/xlink" width="1923" height="100" viewBox="0 0 1923 100" fill="none">
<path d="M3 0L1923 0L1923 100L3 100L3 0Z">
</path>
<g  mask="url(#mask-19571ea8-7f9f-4115-9439-4b64408caa62)">
<path     fill="#021A26"  d="M596 49.5L620.56 75L1300.44 75L1327 49.5L1300.44 24L620.56 24L596 49.5">
</path>
<path fill-rule="evenodd"  fill="rgba(15, 107, 156, 1)"  d="M596 49.5L620.56 75L1300.44 75L1326.28 50.1931L1327 49.5L1326.28 48.8069L1300.44 24L620.56 24L596 49.5ZM620.985 25L597.388 49.5L620.985 74L1300.04 74L1325.56 49.5L1300.04 25L620.985 25Z">
</path>
<path     fill="#021A26"  d="M655 50L694.94 90L1229.07 90L1269 50L1229.07 10L694.94 10L655 50">
</path>
<path fill-rule="evenodd"  fill="rgba(15, 107, 156, 1)"  d="M655 50L694.94 90L1229.07 90L1269 50L1229.07 10L694.94 10L655 50ZM695.355 11L656.413 50L695.355 89L1228.66 89L1267.59 50L1228.66 11L695.355 11Z">
</path>
<g filter="url(#filter_22e4c669-ea71-4435-b34b-df6f709cae18)">
<ellipse cx="962.5" cy="88.5" rx="205.5" ry="1.5"   fill="url(#linear_fill_22e4c669-ea71-4435-b34b-df6f709cae18)" >
</ellipse>
</g>
<path d="M1259.49 49.9996L1259.84 49.6396L1248.34 38.6396L1247.65 39.3596L1258.77 49.9996L1247.65 60.6396L1248.34 61.3596L1259.84 50.3596L1259.49 49.9996ZM1259.49 49.9996L1259.15 49.6396L1258.77 49.9996L1259.15 50.3596L1259.49 49.9996ZM1259.85 50.3596L1260.22 49.9996L1259.85 49.6396L1259.5 49.9996L1259.85 50.3596Z" fill-rule="evenodd"  fill="url(#linear_fill_0e8f900c-1edb-4d48-b5bf-baf5943ac75d)" >
</path>
<path d="M1317.49 49.9996L1317.84 49.6396L1306.34 38.6396L1305.65 39.3596L1316.77 49.9996L1305.65 60.6396L1306.34 61.3596L1317.84 50.3596L1317.49 49.9996ZM1317.49 49.9996L1317.15 49.6396L1316.77 49.9996L1317.15 50.3596L1317.49 49.9996ZM1317.85 50.3596L1318.22 49.9996L1317.85 49.6396L1317.5 49.9996L1317.85 50.3596Z" fill-rule="evenodd"  fill="url(#linear_fill_bda5b7f5-81f6-43e3-9f13-6fd426cbc745)" >
</path>
<path d="M665.344 83.3627L676.844 72.3627L676.499 72.0027L676.844 71.6427L665.344 60.6427L664.654 61.3627L675.778 72.0027L664.654 82.6427L665.344 83.3627ZM675.778 72.0027L676.154 72.3627L676.499 72.0027L676.154 71.6427L675.778 72.0027ZM676.85 72.3627L677.22 72.0027L676.85 71.6427L676.5 72.0027L676.85 72.3627Z" fill-rule="evenodd"  fill="url(#linear_fill_b6b3174a-3353-4e71-b268-7e5dd23f09a5)" >
</path>
<path d="M606.344 83.3627L617.844 72.3627L617.499 72.0027L617.844 71.6427L606.344 60.6427L605.654 61.3627L616.778 72.0027L605.654 82.6427L606.344 83.3627ZM616.778 72.0027L617.154 72.3627L617.499 72.0027L617.154 71.6427L616.778 72.0027ZM617.85 72.3627L618.22 72.0027L617.85 71.6427L617.5 72.0027L617.85 72.3627Z" fill-rule="evenodd"  fill="url(#linear_fill_9703ae26-eb37-4c7e-a345-2f2ddd0de012)" >
</path>
</g>
<g  mask="url(#mask-19571ea8-7f9f-4115-9439-4b64408caa62)">
<path     fill="#FFFFFF"  d="M756.508 41.44Q755.804 40.252 755.012 39.086Q754.22 37.92 753.45 36.842Q752.68 35.764 751.932 34.84Q751.184 33.916 750.568 33.212L752.944 31.32Q753.604 31.98 754.462 32.97Q755.32 33.96 756.178 35.06Q757.036 36.16 757.784 37.238Q758.532 38.316 759.06 39.152L756.508 41.44ZM784.008 35.632L762.36 35.632L762.36 32.552L784.008 32.552L784.008 35.632ZM766.32 47.556Q766.32 47.204 766.342 46.764Q766.364 46.324 766.364 45.884L759.94 45.884L759.94 42.848L786.472 42.848L786.472 45.884L777.628 45.884L777.628 55.916Q777.628 56.62 777.716 57.016Q777.804 57.412 778.024 57.654Q778.244 57.896 778.618 57.984Q778.992 58.072 779.52 58.116Q780.312 58.204 781.148 58.116Q781.808 58.072 782.204 57.962Q782.6 57.852 782.82 57.588Q783.04 57.324 783.15 56.84Q783.26 56.356 783.348 55.564Q783.436 54.728 783.48 53.98Q783.524 53.232 783.524 52.44L786.428 53.276Q786.384 54.288 786.318 55.036Q786.252 55.784 786.164 56.752Q786.032 58.028 785.768 58.842Q785.504 59.656 785.02 60.14Q784.536 60.624 783.766 60.844Q782.996 61.064 781.852 61.108Q780.136 61.152 778.464 61.108Q776.352 61.02 775.428 60.096Q774.504 59.172 774.504 56.576L774.504 45.884L769.488 45.884Q769.488 46.368 769.466 46.852Q769.444 47.336 769.444 47.732Q769.312 50.636 768.916 52.748Q768.52 54.86 767.684 56.532Q766.848 58.204 765.528 59.612Q764.208 61.02 762.316 62.472L759.984 60.184Q761.832 58.82 763.02 57.588Q764.208 56.356 764.912 54.948Q765.616 53.54 765.924 51.758Q766.232 49.976 766.32 47.556ZM772.656 65.068Q776.572 65.156 780.664 65.068Q784.756 64.98 788.276 64.76L787.528 68.148Q786.12 68.192 784.272 68.236Q782.424 68.28 780.488 68.324Q778.552 68.368 776.704 68.368Q774.856 68.368 773.492 68.324Q770.06 68.236 767.53 68.06Q765 67.884 762.954 67.312Q760.908 66.74 759.17 65.684Q757.432 64.628 755.628 62.78Q755.012 63.484 754.462 64.122Q753.912 64.76 753.318 65.442Q752.724 66.124 752.02 66.894Q751.316 67.664 750.392 68.588L748.06 66.124Q749.864 64.452 751.448 62.846Q753.032 61.24 754.264 59.7L754.264 47.732L749.512 47.732L749.512 44.608L757.432 44.608L757.432 60.36Q759.016 61.9 760.512 62.78Q762.008 63.66 763.746 64.166Q765.484 64.672 767.618 64.848Q769.752 65.024 772.656 65.068ZM813.972 51.912L813.972 64.232Q813.972 65.684 813.752 66.564Q813.532 67.444 813.004 67.928Q812.476 68.412 811.574 68.654Q810.672 68.896 809.308 69.028L806.096 69.292L804.952 65.992L808.208 65.728Q809.044 65.684 809.528 65.552Q810.012 65.42 810.276 65.156Q810.54 64.892 810.606 64.386Q810.672 63.88 810.672 63.044L810.672 51.912L796.68 51.912L796.68 48.656Q798.352 46.28 799.958 43.816Q801.564 41.352 803.016 38.712L793.16 38.712L793.16 35.632L804.644 35.632Q805.436 34.092 806.162 32.53Q806.888 30.968 807.504 29.384L810.628 30.704Q810.144 31.892 809.55 33.124Q808.956 34.356 808.34 35.632L829.504 35.632L829.504 38.712L806.712 38.712Q805.128 41.704 803.5 44.366Q801.872 47.028 800.464 48.876L810.672 48.876L810.672 41.352L813.972 41.484L813.972 48.876L827.216 48.876L827.216 51.912L813.972 51.912ZM820.22 54.332Q821.232 55.168 822.706 56.466Q824.18 57.764 825.742 59.238Q827.304 60.712 828.778 62.208Q830.252 63.704 831.264 64.892L828.976 67.444Q827.832 66.08 826.358 64.518Q824.884 62.956 823.366 61.438Q821.848 59.92 820.44 58.622Q819.032 57.324 818.02 56.488L820.22 54.332ZM791.004 65.156Q794.436 62.78 797.208 60.074Q799.98 57.368 802.224 54.508L804.776 56.664Q802.312 59.7 799.606 62.406Q796.9 65.112 793.424 67.752L791.004 65.156ZM846.576 35.236L835.928 35.236L835.928 32.816L846.576 32.816L846.576 29.648L849.788 29.824L849.788 32.816L859.732 32.816L859.732 29.648L862.988 29.824L862.988 32.816L873.636 32.816L873.636 35.236L862.988 35.236L862.988 36.908L859.732 36.908L859.732 35.236L849.788 35.236L849.788 36.908L846.576 36.908L846.576 35.236ZM873.812 63.176Q872.052 62.604 870.468 61.922Q868.884 61.24 867.432 60.492L867.432 63.572Q867.432 64.716 867.256 65.442Q867.08 66.168 866.596 66.63Q866.112 67.092 865.188 67.334Q864.264 67.576 862.768 67.708L860.436 67.928L859.556 65.508L861.976 65.332Q862.812 65.288 863.296 65.156Q863.78 65.024 864 64.804Q864.22 64.584 864.286 64.188Q864.352 63.792 864.352 63.176L864.352 60.888L856.344 60.888L856.344 69.556L853.22 69.556L853.22 60.888L845.212 60.888L845.212 67.664L842.176 67.664L842.176 60.448Q840.812 61.24 839.316 61.966Q837.82 62.692 836.148 63.44L834.696 60.888Q838.304 59.48 841.076 57.874Q843.848 56.268 845.96 54.288L836.148 54.288L836.148 51.648L848.336 51.648Q849.216 50.592 849.92 49.228L840.812 49.228L840.812 37.7L868.796 37.7L868.796 49.228L853.484 49.228Q853.132 49.844 852.758 50.438Q852.384 51.032 851.988 51.648L873.372 51.648L873.372 54.288L863.384 54.288Q865.628 56.312 868.422 57.808Q871.216 59.304 874.956 60.316L873.812 63.176ZM843.98 40.032L843.98 42.364L865.452 42.364L865.452 40.032L843.98 40.032ZM843.98 46.896L865.452 46.896L865.452 44.608L843.98 44.608L843.98 46.896ZM864.308 58.556Q862.988 57.632 861.8 56.554Q860.612 55.476 859.512 54.288L849.92 54.288Q847.896 56.576 845.124 58.556L853.22 58.556L853.22 55.432L856.344 55.52L856.344 58.556L864.308 58.556ZM917.636 44.476L917.636 47.116L890.62 47.116L890.62 44.476L902.06 44.476L902.06 36.776L891.632 36.776L891.632 34.136L902.06 34.136L902.06 29.912L905.228 30L905.228 34.136L916.404 34.136L916.404 36.776L905.228 36.776L905.228 44.476L917.636 44.476ZM891.236 58.38L891.588 59.92Q890.444 60.404 888.794 60.976Q887.144 61.548 885.362 62.12Q883.58 62.692 881.908 63.176Q880.236 63.66 879.092 63.924L878.256 60.756Q879.268 60.536 880.676 60.162Q882.084 59.788 883.624 59.304L883.624 44.3L879.048 44.3L879.048 41.176L883.624 41.176L883.624 30.44L886.704 30.528L886.704 41.176L891.104 41.176L891.104 44.3L886.704 44.3L886.704 58.292Q887.936 57.896 889.014 57.522Q890.092 57.148 890.928 56.84L891.236 58.38ZM895.064 36.864Q895.548 37.348 896.186 38.096Q896.824 38.844 897.484 39.636Q898.144 40.428 898.738 41.176Q899.332 41.924 899.728 42.452L897.572 44.476Q897.176 43.816 896.604 42.98Q896.032 42.144 895.394 41.33Q894.756 40.516 894.14 39.79Q893.524 39.064 893.04 38.58L895.064 36.864ZM907.428 42.76Q907.912 42.276 908.572 41.528Q909.232 40.78 909.914 39.944Q910.596 39.108 911.19 38.316Q911.784 37.524 912.136 36.908L914.292 38.712Q913.94 39.24 913.346 40.01Q912.752 40.78 912.092 41.594Q911.432 42.408 910.75 43.156Q910.068 43.904 909.496 44.432L907.428 42.76ZM892.776 49.976L915.128 49.976L915.128 69.468L911.96 69.468L911.96 67.576L895.856 67.576L895.856 69.468L892.776 69.468L892.776 49.976ZM895.856 52.44L895.856 65.112L911.96 65.112L911.96 52.44L895.856 52.44ZM908.88 62.428L898.672 62.428L898.672 55.08L908.88 55.08L908.88 62.428ZM906.636 57.28L901.048 57.28L901.048 60.228L906.636 60.228L906.636 57.28ZM943.024 38.316L943.024 44.564L956.4 44.564L956.4 59.964Q956.4 61.328 956.158 62.186Q955.916 63.044 955.366 63.572Q954.816 64.1 953.958 64.342Q953.1 64.584 951.868 64.716L949.008 65.024L947.864 61.9L950.768 61.724Q951.56 61.636 952.022 61.504Q952.484 61.372 952.704 61.108Q952.924 60.844 952.968 60.404Q953.012 59.964 953.012 59.304L953.012 47.688L943.024 47.688L943.024 69.512L939.68 69.512L939.68 47.688L929.472 47.688L929.472 64.98L926.304 64.98L926.304 44.564L939.68 44.564L939.68 38.316L922.344 38.316L922.344 35.236L939.944 35.236Q939.592 33.96 939.108 32.508Q938.624 31.056 938.272 30.176L941.528 29.56Q941.704 30.044 941.968 30.748Q942.232 31.452 942.474 32.244Q942.716 33.036 942.958 33.828Q943.2 34.62 943.376 35.236L960.624 35.236L960.624 38.316L943.024 38.316ZM978.18 58.292Q977.036 58.776 975.32 59.414Q973.604 60.052 971.8 60.668Q969.996 61.284 968.28 61.812Q966.564 62.34 965.376 62.648L964.716 59.48Q965.816 59.216 967.4 58.776Q968.984 58.336 970.656 57.764L970.656 43.508L965.728 43.508L965.728 40.34L970.656 40.34L970.656 29.692L973.824 29.824L973.824 40.34L978.62 40.34L978.62 43.508L973.824 43.508L973.824 56.708Q974.968 56.312 976.002 55.916Q977.036 55.52 977.828 55.168L978.18 58.292ZM1001.81 44.652Q1001.81 45.092 1001.74 46.412Q1001.68 47.732 1001.57 49.492Q1001.46 51.252 1001.32 53.276Q1001.19 55.3 1001.08 57.126Q1000.97 58.952 1000.88 60.426Q1000.8 61.9 1000.75 62.56Q1000.66 64.144 1000.29 65.178Q999.916 66.212 999.124 66.828Q998.332 67.444 997.056 67.752Q995.78 68.06 993.888 68.236L991.336 68.456L990.368 65.156L993.492 64.98Q994.68 64.936 995.428 64.738Q996.176 64.54 996.638 64.144Q997.1 63.748 997.276 63.088Q997.452 62.428 997.54 61.416Q997.584 60.932 997.672 59.876Q997.76 58.82 997.87 57.478Q997.98 56.136 998.068 54.64Q998.156 53.144 998.266 51.78Q998.376 50.416 998.42 49.338Q998.464 48.26 998.508 47.688L994.108 47.688Q993.58 51.472 992.722 54.508Q991.864 57.544 990.522 60.14Q989.18 62.736 987.266 65.002Q985.352 67.268 982.668 69.512L980.028 67.532Q982.536 65.42 984.362 63.374Q986.188 61.328 987.464 59.018Q988.74 56.708 989.62 53.958Q990.5 51.208 991.116 47.688L986.716 47.688Q985.528 52.836 982.888 57.126Q980.248 61.416 975.672 65.112L973.252 63.132Q975.496 61.328 977.19 59.502Q978.884 57.676 980.138 55.806Q981.392 53.936 982.25 51.912Q983.108 49.888 983.68 47.688L978.708 47.688L978.708 44.96L993.36 35.588L979.984 35.588L979.984 32.464L999.036 32.464L999.036 35.676L984.736 44.652L1001.81 44.652ZM1022.97 49.756Q1021.96 50.196 1020.64 50.746Q1019.32 51.296 1017.78 51.912L1017.78 64.32Q1017.78 65.64 1017.56 66.52Q1017.34 67.4 1016.77 67.95Q1016.2 68.5 1015.23 68.764Q1014.26 69.028 1012.76 69.116L1010.83 69.292L1009.86 65.948L1011.93 65.772Q1013.51 65.64 1014.02 65.222Q1014.52 64.804 1014.52 63.396L1014.52 53.188Q1012.81 53.804 1011.25 54.354Q1009.68 54.904 1008.54 55.256L1007.79 51.912Q1009.07 51.56 1010.83 50.988Q1012.59 50.416 1014.52 49.712L1014.52 41.264L1009.29 41.264L1009.29 38.008L1014.52 38.008L1014.52 29.912L1017.78 30.044L1017.78 38.008L1022.84 38.008L1022.84 41.264L1017.78 41.264L1017.78 48.48Q1019.19 47.952 1020.44 47.402Q1021.7 46.852 1022.66 46.368L1022.84 48.348L1022.97 49.756ZM1034.32 36.512Q1033.49 39.284 1032.48 41.814Q1031.46 44.344 1030.19 46.808L1044.84 46.808L1044.84 69.468L1041.54 69.468L1041.54 66.344L1029.26 66.344L1029.26 69.468L1026.05 69.468L1026.05 53.32Q1025 54.728 1023.83 56.136Q1022.66 57.544 1021.3 58.996L1018.75 56.312Q1023.15 52.044 1026.14 47.204Q1029.13 42.364 1030.67 36.512L1022.93 36.512L1022.93 33.168L1047.57 33.168L1047.57 36.512L1034.32 36.512ZM1041.54 50.064L1029.26 50.064L1029.26 63.132L1041.54 63.132L1041.54 50.064ZM1080.39 62.12Q1082.5 63.396 1085.12 64.364Q1087.74 65.332 1091 65.948L1089.59 68.896Q1086.07 68.016 1083.19 66.806Q1080.3 65.596 1077.95 63.968Q1075.6 62.34 1073.79 60.228Q1071.99 58.116 1070.62 55.432L1066.84 55.432L1066.84 65.904Q1067.28 65.728 1068.36 65.332Q1069.44 64.936 1070.6 64.474Q1071.77 64.012 1072.78 63.616Q1073.79 63.22 1074.14 63.088L1074.5 65.904Q1074.01 66.08 1072.76 66.498Q1071.5 66.916 1070.14 67.4Q1068.78 67.884 1067.57 68.324Q1066.36 68.764 1065.96 68.896Q1065.43 69.116 1064.77 69.38Q1064.11 69.644 1063.58 69.908L1062.44 67.4Q1063.19 66.96 1063.43 66.608Q1063.67 66.256 1063.67 65.816L1063.67 55.432L1058.96 55.432Q1058.74 57.5 1058.37 59.26Q1058 61.02 1057.45 62.692Q1056.9 64.364 1056.15 66.058Q1055.4 67.752 1054.43 69.688L1051.62 68.192Q1052.98 65.552 1053.88 63.33Q1054.78 61.108 1055.33 58.6Q1055.88 56.092 1056.1 52.924Q1056.32 49.756 1056.32 45.18L1056.32 31.76L1087.65 31.76L1087.65 41.396L1059.36 41.396L1059.36 46.808Q1059.36 48.48 1059.32 49.976Q1059.27 51.472 1059.18 52.792L1067.54 52.792L1067.54 48.392L1060.59 48.392L1060.59 45.752L1067.54 45.752L1067.54 42.364L1070.58 42.496L1070.58 45.752L1078.41 45.752L1078.41 42.364L1081.49 42.496L1081.49 45.752L1088.66 45.752L1088.66 48.392L1081.49 48.392L1081.49 52.792L1090.29 52.792L1090.29 55.432L1073.79 55.432Q1074.67 56.884 1075.73 58.16Q1076.78 59.436 1078.1 60.492Q1080.08 59.436 1081.91 58.27Q1083.74 57.104 1085.41 55.784L1087.12 57.896Q1085.58 58.908 1083.85 59.986Q1082.11 61.064 1080.39 62.12ZM1059.36 34.444L1059.36 38.712L1084.62 38.712L1084.62 34.444L1059.36 34.444ZM1070.58 52.792L1078.41 52.792L1078.41 48.392L1070.58 48.392L1070.58 52.792ZM1134.12 59.92Q1134.07 61.372 1133.85 62.802Q1133.63 64.232 1133.32 65.596Q1133.19 66.256 1132.84 66.762Q1132.49 67.268 1131.81 67.598Q1131.12 67.928 1130.09 68.148Q1129.06 68.368 1127.52 68.412Q1121.93 68.676 1116.34 68.412Q1114.8 68.368 1113.7 68.104Q1112.6 67.84 1111.92 67.246Q1111.24 66.652 1110.93 65.618Q1110.62 64.584 1110.62 62.912L1110.62 47.6L1106.79 48.92L1106.04 45.84L1110.62 44.3L1110.62 33.828L1113.74 34.048L1113.74 43.244L1118.94 41.528L1118.94 30L1122.1 30.22L1122.1 40.472L1131.26 37.392L1130.68 52.836Q1130.64 54.068 1130.42 54.882Q1130.2 55.696 1129.69 56.202Q1129.19 56.708 1128.35 56.972Q1127.52 57.236 1126.2 57.368L1124.44 57.544L1123.38 54.376L1125.23 54.2Q1125.93 54.156 1126.37 54.002Q1126.81 53.848 1127.05 53.54Q1127.3 53.232 1127.41 52.704Q1127.52 52.176 1127.56 51.34Q1127.6 50.944 1127.65 49.536Q1127.69 48.128 1127.76 46.5Q1127.82 44.872 1127.89 43.464Q1127.96 42.056 1127.96 41.66L1122.1 43.684L1122.1 61.152L1118.94 61.152L1118.94 44.74L1113.74 46.544L1113.74 61.548Q1113.74 62.692 1113.83 63.374Q1113.92 64.056 1114.25 64.452Q1114.58 64.848 1115.2 65.024Q1115.81 65.2 1116.82 65.244Q1121.53 65.508 1126.24 65.244Q1128.4 65.112 1129.3 64.782Q1130.2 64.452 1130.46 63.396Q1130.73 62.296 1130.86 61.108Q1130.99 59.92 1131.04 58.864L1134.12 59.92ZM1108.99 59.48L1109.21 60.844Q1107.94 61.416 1106.13 62.164Q1104.33 62.912 1102.37 63.682Q1100.41 64.452 1098.59 65.112Q1096.76 65.772 1095.53 66.168L1094.34 63.132Q1095.57 62.78 1097.18 62.23Q1098.78 61.68 1100.5 61.064L1100.5 45.092L1095.57 45.092L1095.57 42.012L1100.5 42.012L1100.5 30.88L1103.54 31.012L1103.54 42.012L1108.16 42.012L1108.16 45.092L1103.54 45.092L1103.54 59.92Q1105.08 59.304 1106.4 58.754Q1107.72 58.204 1108.73 57.764L1108.99 59.48ZM1174.55 31.98L1174.55 69.82L1171.47 69.82L1171.47 67.356L1144.1 67.356L1144.1 69.82L1141.02 69.82L1141.02 31.98L1174.55 31.98ZM1171.47 64.496L1171.47 34.884L1144.1 34.884L1144.1 64.496L1171.47 64.496ZM1160.3 47.292Q1162.72 48.348 1165.44 49.118Q1168.17 49.888 1171.3 50.592L1170.06 53.32Q1166.19 52.264 1163.2 51.164Q1160.21 50.064 1157.74 48.744Q1155.28 50.02 1152.29 51.186Q1149.3 52.352 1145.47 53.496L1144.28 51.032Q1147.58 50.108 1150.26 49.162Q1152.95 48.216 1155.19 47.204Q1152.68 45.532 1150.44 43.156Q1149.56 44.124 1148.59 44.982Q1147.62 45.84 1146.61 46.676L1145.12 44.74Q1146.3 43.772 1147.47 42.584Q1148.64 41.396 1149.67 40.142Q1150.7 38.888 1151.58 37.634Q1152.46 36.38 1153.12 35.236L1155.54 36.248Q1154.71 37.7 1153.65 39.24L1167.34 39.24L1167.34 41.572Q1165.66 43.244 1163.97 44.652Q1162.28 46.06 1160.3 47.292ZM1152.11 41.572Q1154.62 44.256 1157.7 45.972Q1161.26 44.036 1163.6 41.572L1152.11 41.572ZM1151.67 51.56Q1152.77 51.692 1154.42 52.022Q1156.07 52.352 1157.81 52.726Q1159.55 53.1 1161.2 53.518Q1162.85 53.936 1164.04 54.288L1163.64 56.972Q1162.5 56.532 1160.87 56.048Q1159.24 55.564 1157.5 55.146Q1155.76 54.728 1154.11 54.42Q1152.46 54.112 1151.32 53.98L1151.67 51.56ZM1148.55 57.016Q1150.18 57.148 1152.53 57.544Q1154.88 57.94 1157.35 58.446Q1159.81 58.952 1162.1 59.524Q1164.39 60.096 1165.97 60.624L1165.49 63.352Q1163.9 62.736 1161.62 62.098Q1159.33 61.46 1156.89 60.932Q1154.44 60.404 1152.13 60.008Q1149.82 59.612 1148.2 59.48L1148.55 57.016Z">
</path>
</g>
<g  mask="url(#mask-19571ea8-7f9f-4115-9439-4b64408caa62)">
<path    stroke="rgba(15, 107, 156, 1)" stroke-width="1"    d="M1326 50L1408 50">
</path>
<path    stroke="rgba(15, 107, 156, 1)" stroke-width="1"    d="M1801 49L1923 49">
</path>
<path    stroke="rgba(15, 107, 156, 1)" stroke-width="2"    d="M1419 50L1741 50">
</path>
<circle cx="1752" cy="49" r="1"   fill="#0F6B9C" >
</circle>
<circle cx="1766" cy="49" r="1"   fill="#0F6B9C" >
</circle>
<circle cx="1780" cy="49" r="1"   fill="#0F6B9C" >
</circle>
<circle cx="1794" cy="49" r="1"   fill="#0F6B9C" >
</circle>
<path d="M1377 24L1370.25 24L1384.25 37.5L1391 37.5L1377 24L1377 24L1377 24Z"   fill="#0F6B9C" >
</path>
<path d="M1362.25 24L1355.5 24L1369.5 37.5L1376.25 37.5L1362.25 24L1362.25 24L1362.25 24Z"   fill="#0F6B9C" >
</path>
<path d="M1347.5 24L1340.75 24L1354.75 37.5L1361.5 37.5L1347.5 24L1347.5 24L1347.5 24Z"   fill="#0F6B9C" >
</path>
<path d="M1332.75 24L1326 24L1340 37.5L1346.75 37.5L1332.75 24L1332.75 24L1332.75 24Z"   fill="#0F6B9C" >
</path>
<path d="M1902 24L1396 24L1410 37.5L1916 37.5L1902 24L1902 24L1902 24Z"   fill="url(#linear_fill_1e171e04-4d86-4bfe-b8a2-75d5dffc1092)" >
</path>
</g>
<g  mask="url(#mask-19571ea8-7f9f-4115-9439-4b64408caa62)">
<path    stroke="rgba(15, 107, 156, 1)" stroke-width="1"    d="M597 50L515 50">
</path>
<path    stroke="rgba(15, 107, 156, 1)" stroke-width="1"    d="M122 49L0 49">
</path>
<path    stroke="rgba(15, 107, 156, 1)" stroke-width="2"    d="M504 50L182 50">
</path>
<circle cx="173" cy="51" transform="rotate(180 172 50)" r="1"   fill="#0F6B9C" >
</circle>
<circle cx="159" cy="51" transform="rotate(180 158 50)" r="1"   fill="#0F6B9C" >
</circle>
<circle cx="145" cy="51" transform="rotate(180 144 50)" r="1"   fill="#0F6B9C" >
</circle>
<circle cx="131" cy="51" transform="rotate(180 130 50)" r="1"   fill="#0F6B9C" >
</circle>
<path d="M546 24L552.75 24L538.75 37.5L532 37.5L546 24L546 24L546 24Z"   fill="#0F6B9C" >
</path>
<path d="M560.75 24L567.5 24L553.5 37.5L546.75 37.5L560.75 24L560.75 24L560.75 24Z"   fill="#0F6B9C" >
</path>
<path d="M575.5 24L582.25 24L568.25 37.5L561.5 37.5L575.5 24L575.5 24L575.5 24Z"   fill="#0F6B9C" >
</path>
<path d="M590.25 24L597 24L583 37.5L576.25 37.5L590.25 24L590.25 24L590.25 24Z"   fill="#0F6B9C" >
</path>
<path d="M21 24L527 24L513 37.5L7 37.5L21 24L21 24L21 24Z"   fill="url(#linear_fill_0f535b4b-d4dd-4dbb-bcc2-1ebc6c03de7a)" >
</path>
</g>
<defs>
<mask id="mask-19571ea8-7f9f-4115-9439-4b64408caa62" style="mask-type:alpha" maskUnits="userSpaceOnUse">
<path fill="white" d="M3 0L1923 0L1923 100L3 100L3 0Z">
</path>
</mask>
<linearGradient id="linear_fill_22e4c669-ea71-4435-b34b-df6f709cae18" x1="756.9999976196673" y1="88.50007331371307" x2="1163.0310722589493" y2="88.50005060434341" gradientUnits="userSpaceOnUse">
<stop offset="0" stop-color="#1890FF" stop-opacity="0" />
<stop offset="0.359375" stop-color="#1890FF"  />
<stop offset="0.6875" stop-color="#1890FF"  />
<stop offset="1" stop-color="#1890FF" stop-opacity="0" />
</linearGradient>
<filter id="filter_22e4c669-ea71-4435-b34b-df6f709cae18" x="753" y="85" width="417" height="7" filterUnits="userSpaceOnUse" color-interpolation-filters="sRGB">
<feFlood flood-opacity="0" result="feFloodId_22e4c669-ea71-4435-b34b-df6f709cae18"/>
<feColorMatrix in="SourceAlpha" type="matrix" values="0 0 0 0 0 0 0 0 0 0 0 0 0 0 0 0 0 0 127 0" result="hardAlpha_22e4c669-ea71-4435-b34b-df6f709cae18"/>
<feOffset dx="0" dy="4"/>
<feGaussianBlur stdDeviation="2"/>
<feComposite in2="hardAlpha_22e4c669-ea71-4435-b34b-df6f709cae18" operator="out"/>
<feColorMatrix type="matrix" values="0 0 0 0 0 0 0 0 0 0 0 0 0 0 0 0 0 0 0.25 0"/>
<feBlend mode="normal" in2="feFloodId_22e4c669-ea71-4435-b34b-df6f709cae18" result="dropShadow_1_22e4c669-ea71-4435-b34b-df6f709cae18"/>
<feBlend mode="normal" in="SourceGraphic" in2="dropShadow_1_22e4c669-ea71-4435-b34b-df6f709cae18" result="shape_22e4c669-ea71-4435-b34b-df6f709cae18"/>
<feGaussianBlur result="gaussian_blur_22e4c669-ea71-4435-b34b-df6f709cae18" stdDeviation="1"/>
</filter>
<linearGradient id="linear_fill_0e8f900c-1edb-4d48-b5bf-baf5943ac75d" x1="1260.8038940429688" y1="50" x2="1248.0610961914062" y2="50" gradientUnits="userSpaceOnUse">
<stop offset="0" stop-color="#0F6B9C"  />
<stop offset="1" stop-color="#0F6B9C" stop-opacity="0" />
</linearGradient>
<linearGradient id="linear_fill_bda5b7f5-81f6-43e3-9f13-6fd426cbc745" x1="1318.8038940429688" y1="50" x2="1306.0610961914062" y2="50" gradientUnits="userSpaceOnUse">
<stop offset="0" stop-color="#0F6B9C"  />
<stop offset="1" stop-color="#0F6B9C" stop-opacity="0" />
</linearGradient>
<linearGradient id="linear_fill_b6b3174a-3353-4e71-b268-7e5dd23f09a5" x1="664.0661163330078" y1="72.002685546875" x2="676.8089447021484" y2="72.002685546875" gradientUnits="userSpaceOnUse">
<stop offset="0" stop-color="#0F6B9C"  />
<stop offset="1" stop-color="#0F6B9C" stop-opacity="0" />
</linearGradient>
<linearGradient id="linear_fill_9703ae26-eb37-4c7e-a345-2f2ddd0de012" x1="605.0661163330078" y1="72.002685546875" x2="617.8089447021484" y2="72.002685546875" gradientUnits="userSpaceOnUse">
<stop offset="0" stop-color="#0F6B9C"  />
<stop offset="1" stop-color="#0F6B9C" stop-opacity="0" />
</linearGradient>
<linearGradient id="linear_fill_1e171e04-4d86-4bfe-b8a2-75d5dffc1092" x1="1436" y1="29.92236328125" x2="1916" y2="29.92236328125" gradientUnits="userSpaceOnUse">
<stop offset="0" stop-color="#0F6B9C"  />
<stop offset="1" stop-color="#0F6B9C" stop-opacity="0" />
</linearGradient>
<linearGradient id="linear_fill_0f535b4b-d4dd-4dbb-bcc2-1ebc6c03de7a" x1="486.9999694824219" y1="29.92236328125" x2="7" y2="29.92236328125" gradientUnits="userSpaceOnUse">
<stop offset="0" stop-color="#0F6B9C"  />
<stop offset="1" stop-color="#0F6B9C" stop-opacity="0" />
</linearGradient>
</defs>
</svg>
