<svg xmlns="http://www.w3.org/2000/svg" xmlns:xlink="http://www.w3.org/1999/xlink" width="1923" height="100" viewBox="0 0 1923 100" fill="none">
<path d="M3 0L1923 0L1923 100L3 100L3 0Z">
</path>
<g  mask="url(#mask-19571ea8-7f9f-4115-9439-4b64408caa62)">
<path     fill="#021A26"  d="M596 49.5L620.56 75L1300.44 75L1327 49.5L1300.44 24L620.56 24L596 49.5">
</path>
<path fill-rule="evenodd"  fill="rgba(15, 107, 156, 1)"  d="M596 49.5L620.56 75L1300.44 75L1326.28 50.1931L1327 49.5L1326.28 48.8069L1300.44 24L620.56 24L596 49.5ZM620.985 25L597.388 49.5L620.985 74L1300.04 74L1325.56 49.5L1300.04 25L620.985 25Z">
</path>
<path     fill="#021A26"  d="M655 50L694.94 90L1229.07 90L1269 50L1229.07 10L694.94 10L655 50">
</path>
<path fill-rule="evenodd"  fill="rgba(15, 107, 156, 1)"  d="M655 50L694.94 90L1229.07 90L1269 50L1229.07 10L694.94 10L655 50ZM695.355 11L656.413 50L695.355 89L1228.66 89L1267.59 50L1228.66 11L695.355 11Z">
</path>
<g filter="url(#filter_22e4c669-ea71-4435-b34b-df6f709cae18)">
<ellipse cx="962.5" cy="88.5" rx="205.5" ry="1.5"   fill="url(#linear_fill_22e4c669-ea71-4435-b34b-df6f709cae18)" >
</ellipse>
</g>
<path d="M1259.49 49.9996L1259.84 49.6396L1248.34 38.6396L1247.65 39.3596L1258.77 49.9996L1247.65 60.6396L1248.34 61.3596L1259.84 50.3596L1259.49 49.9996ZM1259.49 49.9996L1259.15 49.6396L1258.77 49.9996L1259.15 50.3596L1259.49 49.9996ZM1259.85 50.3596L1260.22 49.9996L1259.85 49.6396L1259.5 49.9996L1259.85 50.3596Z" fill-rule="evenodd"  fill="url(#linear_fill_0e8f900c-1edb-4d48-b5bf-baf5943ac75d)" >
</path>
<path d="M1317.49 49.9996L1317.84 49.6396L1306.34 38.6396L1305.65 39.3596L1316.77 49.9996L1305.65 60.6396L1306.34 61.3596L1317.84 50.3596L1317.49 49.9996ZM1317.49 49.9996L1317.15 49.6396L1316.77 49.9996L1317.15 50.3596L1317.49 49.9996ZM1317.85 50.3596L1318.22 49.9996L1317.85 49.6396L1317.5 49.9996L1317.85 50.3596Z" fill-rule="evenodd"  fill="url(#linear_fill_bda5b7f5-81f6-43e3-9f13-6fd426cbc745)" >
</path>
<path d="M665.344 83.3627L676.844 72.3627L676.499 72.0027L676.844 71.6427L665.344 60.6427L664.654 61.3627L675.778 72.0027L664.654 82.6427L665.344 83.3627ZM675.778 72.0027L676.154 72.3627L676.499 72.0027L676.154 71.6427L675.778 72.0027ZM676.85 72.3627L677.22 72.0027L676.85 71.6427L676.5 72.0027L676.85 72.3627Z" fill-rule="evenodd"  fill="url(#linear_fill_b6b3174a-3353-4e71-b268-7e5dd23f09a5)" >
</path>
<path d="M606.344 83.3627L617.844 72.3627L617.499 72.0027L617.844 71.6427L606.344 60.6427L605.654 61.3627L616.778 72.0027L605.654 82.6427L606.344 83.3627ZM616.778 72.0027L617.154 72.3627L617.499 72.0027L617.154 71.6427L616.778 72.0027ZM617.85 72.3627L618.22 72.0027L617.85 71.6427L617.5 72.0027L617.85 72.3627Z" fill-rule="evenodd"  fill="url(#linear_fill_9703ae26-eb37-4c7e-a345-2f2ddd0de012)" >
</path>
</g>
<g  mask="url(#mask-19571ea8-7f9f-4115-9439-4b64408caa62)">
<text transform="translate(787, 19)">
<tspan x="1" y="51.04" font-size="44" line-height="0"  fill="#FFFFFF"  font-family="SourceHanSans-Regular" letter-spacing="0" >
智慧消防服务平台</tspan>
</text>
</g>
<g  mask="url(#mask-19571ea8-7f9f-4115-9439-4b64408caa62)">
<path    stroke="rgba(15, 107, 156, 1)" stroke-width="1"    d="M1326 50L1408 50">
</path>
<path    stroke="rgba(15, 107, 156, 1)" stroke-width="1"    d="M1801 49L1923 49">
</path>
<path    stroke="rgba(15, 107, 156, 1)" stroke-width="2"    d="M1419 50L1741 50">
</path>
<circle cx="1752" cy="49" r="1"   fill="#0F6B9C" >
</circle>
<circle cx="1766" cy="49" r="1"   fill="#0F6B9C" >
</circle>
<circle cx="1780" cy="49" r="1"   fill="#0F6B9C" >
</circle>
<circle cx="1794" cy="49" r="1"   fill="#0F6B9C" >
</circle>
<path d="M1377 24L1370.25 24L1384.25 37.5L1391 37.5L1377 24L1377 24L1377 24Z"   fill="#0F6B9C" >
</path>
<path d="M1362.25 24L1355.5 24L1369.5 37.5L1376.25 37.5L1362.25 24L1362.25 24L1362.25 24Z"   fill="#0F6B9C" >
</path>
<path d="M1347.5 24L1340.75 24L1354.75 37.5L1361.5 37.5L1347.5 24L1347.5 24L1347.5 24Z"   fill="#0F6B9C" >
</path>
<path d="M1332.75 24L1326 24L1340 37.5L1346.75 37.5L1332.75 24L1332.75 24L1332.75 24Z"   fill="#0F6B9C" >
</path>
<path d="M1902 24L1396 24L1410 37.5L1916 37.5L1902 24L1902 24L1902 24Z"   fill="url(#linear_fill_1e171e04-4d86-4bfe-b8a2-75d5dffc1092)" >
</path>
</g>
<g  mask="url(#mask-19571ea8-7f9f-4115-9439-4b64408caa62)">
<path    stroke="rgba(15, 107, 156, 1)" stroke-width="1"    d="M597 50L515 50">
</path>
<path    stroke="rgba(15, 107, 156, 1)" stroke-width="1"    d="M122 49L0 49">
</path>
<path    stroke="rgba(15, 107, 156, 1)" stroke-width="2"    d="M504 50L182 50">
</path>
<circle cx="173" cy="51" transform="rotate(180 172 50)" r="1"   fill="#0F6B9C" >
</circle>
<circle cx="159" cy="51" transform="rotate(180 158 50)" r="1"   fill="#0F6B9C" >
</circle>
<circle cx="145" cy="51" transform="rotate(180 144 50)" r="1"   fill="#0F6B9C" >
</circle>
<circle cx="131" cy="51" transform="rotate(180 130 50)" r="1"   fill="#0F6B9C" >
</circle>
<path d="M546 24L552.75 24L538.75 37.5L532 37.5L546 24L546 24L546 24Z"   fill="#0F6B9C" >
</path>
<path d="M560.75 24L567.5 24L553.5 37.5L546.75 37.5L560.75 24L560.75 24L560.75 24Z"   fill="#0F6B9C" >
</path>
<path d="M575.5 24L582.25 24L568.25 37.5L561.5 37.5L575.5 24L575.5 24L575.5 24Z"   fill="#0F6B9C" >
</path>
<path d="M590.25 24L597 24L583 37.5L576.25 37.5L590.25 24L590.25 24L590.25 24Z"   fill="#0F6B9C" >
</path>
<path d="M21 24L527 24L513 37.5L7 37.5L21 24L21 24L21 24Z"   fill="url(#linear_fill_0f535b4b-d4dd-4dbb-bcc2-1ebc6c03de7a)" >
</path>
</g>
<defs>
<mask id="mask-19571ea8-7f9f-4115-9439-4b64408caa62" style="mask-type:alpha" maskUnits="userSpaceOnUse">
<path fill="white" d="M3 0L1923 0L1923 100L3 100L3 0Z">
</path>
</mask>
<linearGradient id="linear_fill_22e4c669-ea71-4435-b34b-df6f709cae18" x1="756.9999976196673" y1="88.50007331371307" x2="1163.0310722589493" y2="88.50005060434341" gradientUnits="userSpaceOnUse">
<stop offset="0" stop-color="#1890FF" stop-opacity="0" />
<stop offset="0.359375" stop-color="#1890FF"  />
<stop offset="0.6875" stop-color="#1890FF"  />
<stop offset="1" stop-color="#1890FF" stop-opacity="0" />
</linearGradient>
<filter id="filter_22e4c669-ea71-4435-b34b-df6f709cae18" x="753" y="85" width="417" height="7" filterUnits="userSpaceOnUse" color-interpolation-filters="sRGB">
<feFlood flood-opacity="0" result="feFloodId_22e4c669-ea71-4435-b34b-df6f709cae18"/>
<feColorMatrix in="SourceAlpha" type="matrix" values="0 0 0 0 0 0 0 0 0 0 0 0 0 0 0 0 0 0 127 0" result="hardAlpha_22e4c669-ea71-4435-b34b-df6f709cae18"/>
<feOffset dx="0" dy="4"/>
<feGaussianBlur stdDeviation="2"/>
<feComposite in2="hardAlpha_22e4c669-ea71-4435-b34b-df6f709cae18" operator="out"/>
<feColorMatrix type="matrix" values="0 0 0 0 0 0 0 0 0 0 0 0 0 0 0 0 0 0 0.25 0"/>
<feBlend mode="normal" in2="feFloodId_22e4c669-ea71-4435-b34b-df6f709cae18" result="dropShadow_1_22e4c669-ea71-4435-b34b-df6f709cae18"/>
<feBlend mode="normal" in="SourceGraphic" in2="dropShadow_1_22e4c669-ea71-4435-b34b-df6f709cae18" result="shape_22e4c669-ea71-4435-b34b-df6f709cae18"/>
<feGaussianBlur result="gaussian_blur_22e4c669-ea71-4435-b34b-df6f709cae18" stdDeviation="1"/>
</filter>
<linearGradient id="linear_fill_0e8f900c-1edb-4d48-b5bf-baf5943ac75d" x1="1260.8038940429688" y1="50" x2="1248.0610961914062" y2="50" gradientUnits="userSpaceOnUse">
<stop offset="0" stop-color="#0F6B9C"  />
<stop offset="1" stop-color="#0F6B9C" stop-opacity="0" />
</linearGradient>
<linearGradient id="linear_fill_bda5b7f5-81f6-43e3-9f13-6fd426cbc745" x1="1318.8038940429688" y1="50" x2="1306.0610961914062" y2="50" gradientUnits="userSpaceOnUse">
<stop offset="0" stop-color="#0F6B9C"  />
<stop offset="1" stop-color="#0F6B9C" stop-opacity="0" />
</linearGradient>
<linearGradient id="linear_fill_b6b3174a-3353-4e71-b268-7e5dd23f09a5" x1="664.0661163330078" y1="72.002685546875" x2="676.8089447021484" y2="72.002685546875" gradientUnits="userSpaceOnUse">
<stop offset="0" stop-color="#0F6B9C"  />
<stop offset="1" stop-color="#0F6B9C" stop-opacity="0" />
</linearGradient>
<linearGradient id="linear_fill_9703ae26-eb37-4c7e-a345-2f2ddd0de012" x1="605.0661163330078" y1="72.002685546875" x2="617.8089447021484" y2="72.002685546875" gradientUnits="userSpaceOnUse">
<stop offset="0" stop-color="#0F6B9C"  />
<stop offset="1" stop-color="#0F6B9C" stop-opacity="0" />
</linearGradient>
<linearGradient id="linear_fill_1e171e04-4d86-4bfe-b8a2-75d5dffc1092" x1="1436" y1="29.92236328125" x2="1916" y2="29.92236328125" gradientUnits="userSpaceOnUse">
<stop offset="0" stop-color="#0F6B9C"  />
<stop offset="1" stop-color="#0F6B9C" stop-opacity="0" />
</linearGradient>
<linearGradient id="linear_fill_0f535b4b-d4dd-4dbb-bcc2-1ebc6c03de7a" x1="486.9999694824219" y1="29.92236328125" x2="7" y2="29.92236328125" gradientUnits="userSpaceOnUse">
<stop offset="0" stop-color="#0F6B9C"  />
<stop offset="1" stop-color="#0F6B9C" stop-opacity="0" />
</linearGradient>
</defs>
</svg>
