<svg xmlns="http://www.w3.org/2000/svg" xmlns:xlink="http://www.w3.org/1999/xlink" width="1923" height="100" viewBox="0 0 1923 100" fill="none">
<path d="M3 0L1923 0L1923 100L3 100L3 0Z">
</path>
<g  mask="url(#mask-19571ea8-7f9f-4115-9439-4b64408caa62)">
<path     fill="#021A26"  d="M596 49.5L620.56 75L1300.44 75L1327 49.5L1300.44 24L620.56 24L596 49.5">
</path>
<path fill-rule="evenodd"  fill="rgba(15, 107, 156, 1)"  d="M596 49.5L620.56 75L1300.44 75L1326.28 50.1931L1327 49.5L1326.28 48.8069L1300.44 24L620.56 24L596 49.5ZM620.985 25L597.388 49.5L620.985 74L1300.04 74L1325.56 49.5L1300.04 25L620.985 25Z">
</path>
<path     fill="#021A26"  d="M655 50L694.94 90L1229.07 90L1269 50L1229.07 10L694.94 10L655 50">
</path>
<path fill-rule="evenodd"  fill="rgba(15, 107, 156, 1)"  d="M655 50L694.94 90L1229.07 90L1269 50L1229.07 10L694.94 10L655 50ZM695.355 11L656.413 50L695.355 89L1228.66 89L1267.59 50L1228.66 11L695.355 11Z">
</path>
<g filter="url(#filter_22e4c669-ea71-4435-b34b-df6f709cae18)">
<ellipse cx="962.5" cy="88.5" rx="205.5" ry="1.5"   fill="url(#linear_fill_22e4c669-ea71-4435-b34b-df6f709cae18)" >
</ellipse>
</g>
<path d="M1259.49 49.9996L1259.84 49.6396L1248.34 38.6396L1247.65 39.3596L1258.77 49.9996L1247.65 60.6396L1248.34 61.3596L1259.84 50.3596L1259.49 49.9996ZM1259.49 49.9996L1259.15 49.6396L1258.77 49.9996L1259.15 50.3596L1259.49 49.9996ZM1259.85 50.3596L1260.22 49.9996L1259.85 49.6396L1259.5 49.9996L1259.85 50.3596Z" fill-rule="evenodd"  fill="url(#linear_fill_0e8f900c-1edb-4d48-b5bf-baf5943ac75d)" >
</path>
<path d="M1317.49 49.9996L1317.84 49.6396L1306.34 38.6396L1305.65 39.3596L1316.77 49.9996L1305.65 60.6396L1306.34 61.3596L1317.84 50.3596L1317.49 49.9996ZM1317.49 49.9996L1317.15 49.6396L1316.77 49.9996L1317.15 50.3596L1317.49 49.9996ZM1317.85 50.3596L1318.22 49.9996L1317.85 49.6396L1317.5 49.9996L1317.85 50.3596Z" fill-rule="evenodd"  fill="url(#linear_fill_bda5b7f5-81f6-43e3-9f13-6fd426cbc745)" >
</path>
<path d="M665.344 83.3627L676.844 72.3627L676.499 72.0027L676.844 71.6427L665.344 60.6427L664.654 61.3627L675.778 72.0027L664.654 82.6427L665.344 83.3627ZM675.778 72.0027L676.154 72.3627L676.499 72.0027L676.154 71.6427L675.778 72.0027ZM676.85 72.3627L677.22 72.0027L676.85 71.6427L676.5 72.0027L676.85 72.3627Z" fill-rule="evenodd"  fill="url(#linear_fill_b6b3174a-3353-4e71-b268-7e5dd23f09a5)" >
</path>
<path d="M606.344 83.3627L617.844 72.3627L617.499 72.0027L617.844 71.6427L606.344 60.6427L605.654 61.3627L616.778 72.0027L605.654 82.6427L606.344 83.3627ZM616.778 72.0027L617.154 72.3627L617.499 72.0027L617.154 71.6427L616.778 72.0027ZM617.85 72.3627L618.22 72.0027L617.85 71.6427L617.5 72.0027L617.85 72.3627Z" fill-rule="evenodd"  fill="url(#linear_fill_9703ae26-eb37-4c7e-a345-2f2ddd0de012)" >
</path>
</g>
<g  mask="url(#mask-19571ea8-7f9f-4115-9439-4b64408caa62)">
<path     fill="#FFFFFF"  d="M813 57.36L813 53.76C813 52.68 812.28 52.4 811.52 53.16L811 53.68C810.72 53.96 810.44 54.08 810.04 54.08L809.84 54.08C809.36 54.08 809.04 53.8 809.04 53.28L809 48C809 47.48 809.28 47.2 809.8 47.2L811.72 47.2C812.48 47.2 812.92 46.76 812.92 46L812.92 44.6C812.92 43.84 812.48 43.4 811.72 43.4L791.88 43.4C791.12 43.4 790.68 43.84 790.68 44.6L790.68 46C790.68 46.76 791.12 47.2 791.88 47.2L792.84 47.2C793.36 47.2 793.64 47.56 793.56 48.08L791.96 57.36C791.8 58.2 792.24 58.64 793.04 58.64L797.24 58.64C797.96 58.64 798.44 58.32 798.56 57.56L800.24 47.92C800.32 47.44 800.6 47.2 801.08 47.2L801.8 47.2C802.32 47.2 802.6 47.48 802.6 48L802.64 57.36C802.64 58.16 803.08 58.56 803.84 58.56L811.8 58.56C812.56 58.56 813 58.12 813 57.36ZM788.16 63.08C788.32 62.72 788.64 62.56 789.12 62.72L791.76 63.48C792.28 63.64 792.72 63.68 793.24 63.68L812.56 63.68C813.32 63.68 813.76 63.24 813.76 62.48L813.76 61.08C813.76 60.32 813.32 59.88 812.56 59.88L795.64 59.88C795.28 59.88 795 59.84 794.68 59.76L790.12 58.44C789.68 58.32 789.44 57.96 789.44 57.52L789.44 43.6C789.44 42.84 789 42.4 788.24 42.4L782.28 42.4C781.52 42.4 781.08 42.84 781.08 43.6L781.08 45C781.08 45.76 781.52 46.2 782.28 46.2C782.48 46.2 782.6 46.48 782.6 47L782.6 59.36C782.6 59.72 782.52 60 782.4 60.36L781.64 62.28C781.32 63.12 781.68 63.68 782.56 63.68L786.92 63.68C787.6 63.68 788 63.48 788.16 63.08ZM792.36 37.44L792.36 38.84C792.36 39.6 792.8 40.04 793.56 40.04L810.56 40.04C811.32 40.04 811.76 39.6 811.76 38.84L811.76 37.44C811.76 36.68 811.32 36.24 810.56 36.24L793.56 36.24C792.8 36.24 792.36 36.68 792.36 37.44ZM781.76 37.68L782.92 40.12C783.2 40.72 783.68 41 784.36 41L788.04 41C788.96 41 789.32 40.44 788.92 39.6L787.76 37.16C787.48 36.56 786.96 36.28 786.32 36.28L782.64 36.28C781.72 36.28 781.36 36.84 781.76 37.68ZM820.96 50.76L829.72 50.76C830.24 50.76 830.52 51.04 830.52 51.56L830.56 60.08C830.56 60.48 830.44 60.76 830.2 61.08L828.68 62.88C828.04 63.68 828.4 64.36 829.4 64.36L835.4 64.36C836.96 64.36 838.12 63.28 838.12 61.72L838.12 51.56C838.12 51.04 838.4 50.76 838.92 50.76L846.68 50.76C847.44 50.76 847.88 50.32 847.88 49.56L847.88 48.16C847.88 47.4 847.44 46.96 846.68 46.96L838.88 46.96C838.36 46.96 838.08 46.68 838.08 46.16L838.12 45.12C838.12 44.36 837.68 43.92 836.92 43.92L831.72 43.92C830.96 43.92 830.52 44.32 830.52 45.12L830.48 46.16C830.48 46.64 830.2 46.96 829.68 46.96L828.44 46.96C827.84 46.96 827.6 46.56 827.88 46L829.88 42.2C830.08 41.84 830.4 41.64 830.84 41.64L848.2 41.64C848.96 41.64 849.4 41.2 849.4 40.44L849.4 39.04C849.4 38.28 848.96 37.84 848.2 37.84L833.28 37.84C832.68 37.84 832.44 37.4 832.72 36.88L832.84 36.68C833.2 36.04 832.72 35.56 831.8 35.56L825.92 35.56C825.16 35.56 824.76 35.88 824.8 36.32C824.88 36.76 825.04 37 824.88 37.36C824.72 37.68 824.4 37.84 823.96 37.84L819.44 37.84C818.68 37.84 818.24 38.28 818.24 39.04L818.24 40.44C818.24 41.2 818.68 41.64 819.44 41.64L821.52 41.64C822.12 41.64 822.36 42.04 822.08 42.6L820.12 46.28C819.84 46.76 819.76 47.2 819.76 47.76L819.76 49.56C819.76 50.32 820.2 50.76 820.96 50.76ZM846.08 52.64L841.76 52.64C840.88 52.64 840.48 53.2 840.8 54.04L843.76 61.6C844 62.28 844.44 62.56 845.12 62.56L849.44 62.56C850.32 62.56 850.72 62 850.4 61.16L847.44 53.6C847.2 52.92 846.76 52.64 846.08 52.64ZM826.64 52.64L822.32 52.64C821.64 52.64 821.2 52.96 820.96 53.6L818 61.16C817.68 62 818.08 62.56 818.96 62.56L823.28 62.56C823.96 62.56 824.4 62.24 824.64 61.6L827.6 54.04C827.92 53.2 827.52 52.64 826.64 52.64ZM858.48 49.92L860 49.92C860.72 49.92 861.08 50.24 860.76 50.56C860.48 50.84 860.2 50.96 859.8 50.96L856.32 50.96C855.56 50.96 855.08 51.4 855.08 52.16L855.08 52.52C855.08 53.28 855.52 53.72 856.28 53.72C856.92 53.72 857.04 54.24 856.52 54.72L855.2 56C854.44 56.76 854.72 57.48 855.8 57.48L856.68 57.48C857.2 57.48 857.48 57.76 857.48 58.28L857.52 61.64C857.52 62.44 857.96 62.84 858.72 62.84L863.2 62.84C863.96 62.84 864.4 62.4 864.4 61.64L864.4 59.84C864.4 59.32 864.68 59.04 865.2 59.04L866.4 59.04C866.92 59.04 867.2 59.32 867.2 59.84L867.2 63.12C867.2 63.88 867.64 64.32 868.4 64.32L873.52 64.32C874.28 64.32 874.72 63.88 874.72 63.12L874.72 59.84C874.72 59.32 875 59.04 875.52 59.04L876.88 59.04C877.4 59.04 877.68 59.16 877.68 59.32C877.68 59.52 877.56 59.76 877.32 60.08L876.24 61.36C875.6 62.16 875.96 62.84 876.96 62.84L881.84 62.84C883.4 62.84 884.56 61.76 884.56 60.2L884.56 58.36C884.56 57.84 884.84 57.56 885.36 57.56L886.44 57.56C887.36 57.56 887.4 56.8 886.56 56.08L884.92 54.72C884.36 54.24 884.56 53.72 885.28 53.72L885.68 53.72C886.44 53.72 886.92 53.28 886.92 52.52L886.92 52.16C886.92 51.4 886.48 50.96 885.72 50.96L869.4 50.96C868.68 50.96 868.32 50.64 868.64 50.32C868.92 50.04 869.2 49.92 869.6 49.92L883.56 49.92C884.32 49.92 884.76 49.48 884.76 48.72L884.76 42.8C884.76 42.04 884.32 41.6 883.56 41.6L858.48 41.6C857.72 41.6 857.28 42.04 857.28 42.8L857.28 48.72C857.28 49.48 857.72 49.92 858.48 49.92ZM862.4 41.2L867.12 41.2C867.6 41.2 867.96 41.04 868.16 40.76C868.4 40.32 868.56 40.08 869 40.08L872.8 40.08C873.32 40.08 873.6 40.28 873.6 40.64C873.6 41 874.04 41.2 874.8 41.2L879.52 41.2C880 41.2 880.36 41.04 880.56 40.76C880.8 40.32 880.96 40.08 881.4 40.08L885.72 40.08C886.48 40.08 886.92 39.64 886.92 38.88L886.92 38.64C886.92 37.88 886.48 37.44 885.72 37.44L881.52 37.44C881 37.44 880.72 37.2 880.76 36.64L880.76 36.52C880.76 35.96 880.32 35.6 879.56 35.6L874.2 35.6C873.16 35.6 872.84 36.32 873.56 37.08C873.6 37.12 873.6 37.2 873.6 37.28C873.6 37.36 873.32 37.44 872.8 37.44L869.12 37.44C868.6 37.44 868.32 37.2 868.36 36.64L868.36 36.52C868.36 35.96 867.92 35.6 867.16 35.6L861.8 35.6C860.76 35.6 860.44 36.32 861.16 37.08C861.2 37.12 861.2 37.2 861.2 37.28C861.2 37.36 860.92 37.44 860.4 37.44L856.28 37.44C855.52 37.44 855.08 37.88 855.08 38.64L855.08 38.88C855.08 39.64 855.52 40.08 856.28 40.08L860.4 40.08C860.92 40.08 861.2 40.28 861.2 40.64C861.2 41 861.64 41.2 862.4 41.2ZM873.56 54.56L868.44 54.56C867.68 54.56 867.24 55 867.24 55.76L867.24 55.84C867.24 55.88 866.96 55.92 866.44 55.92L864.44 55.92C863.76 55.92 863.56 55.44 864.04 54.92L864.84 54.12C865.12 53.8 865.44 53.72 865.84 53.72L875.88 53.72C876.28 53.72 876.6 53.84 876.88 54.08L877.84 54.92C878.4 55.4 878.2 55.92 877.48 55.92L875.56 55.92C875.04 55.92 874.76 55.68 874.76 55.24C874.76 54.8 874.32 54.56 873.56 54.56ZM878.28 44.28C878.24 44.56 877.96 44.68 877.48 44.68L864.56 44.68C864.04 44.68 863.72 44.56 863.76 44.28C863.76 44.04 864.08 43.88 864.56 43.88L877.44 43.88C877.96 43.88 878.28 44 878.28 44.28ZM863.76 47.12C863.76 46.92 864.04 46.84 864.56 46.84L877.48 46.84C878 46.84 878.28 46.96 878.28 47.12C878.28 47.28 878 47.44 877.48 47.44L864.56 47.44C864.04 47.44 863.76 47.28 863.76 47.12ZM922.28 49.2L904.68 49.2C903.92 49.2 903.48 49.64 903.48 50.4L903.48 62.36C903.48 63.12 903.92 63.56 904.68 63.56L922.28 63.56C923.04 63.56 923.48 63.12 923.48 62.36L923.48 50.4C923.48 49.64 923.04 49.2 922.28 49.2ZM902.48 45.84L902.48 47.2C902.48 47.96 902.92 48.4 903.68 48.4L923.28 48.4C924.04 48.4 924.48 47.96 924.48 47.2L924.48 45.84C924.48 45.08 924.04 44.64 923.28 44.64L922.96 44.64C922.4 44.64 922.12 44.28 922.24 43.76L922.44 42.84C922.6 42.04 922.24 41.52 921.4 41.52L918.84 41.52C918.12 41.52 917.68 41.88 917.56 42.6L917.32 43.92C917.24 44.4 917.08 44.64 916.96 44.64C916.84 44.64 916.72 44.36 916.72 43.84L916.72 41.64C916.72 41.12 917 40.84 917.52 40.84L922.28 40.84C923.04 40.84 923.48 40.4 923.48 39.64L923.48 38.32C923.48 37.56 923.04 37.12 922.28 37.12L917.52 37.12C917 37.12 916.72 36.84 916.72 36.36C916.72 35.88 916.28 35.6 915.52 35.6L911.08 35.6C910 35.6 909.64 36.32 910.4 37L910.4 37.04C910.4 37.08 910.12 37.12 909.6 37.12L904.56 37.12C903.8 37.12 903.36 37.56 903.36 38.32L903.36 39.64C903.36 40.4 903.8 40.84 904.56 40.84L909.6 40.84C910.12 40.84 910.4 41.12 910.4 41.64L910.4 43.84C910.4 44.36 910.28 44.64 910.12 44.64C909.92 44.64 909.76 44.44 909.68 43.92L909.48 42.72C909.36 41.96 908.88 41.64 908.16 41.64L905.44 41.64C904.64 41.64 904.2 42.08 904.32 42.92L904.44 43.76C904.52 44.28 904.24 44.64 903.72 44.64L903.56 44.64C902.88 44.64 902.48 45.08 902.48 45.84ZM900.6 57.2L900.4 57.24C899.88 57.36 899.52 57.08 899.52 56.52L899.52 49.24C899.52 48.72 899.8 48.44 900.32 48.44L900.6 48.44C901.28 48.44 901.68 48 901.68 47.24L901.68 45.68C901.68 44.92 901.24 44.48 900.48 44.48L900.32 44.48C899.8 44.48 899.52 44.2 899.52 43.68L899.52 37.52C899.52 36.76 899.08 36.32 898.32 36.32L893.72 36.32C892.76 36.32 892.4 36.96 892.92 37.76L893.24 38.28C893.44 38.64 893.52 38.88 893.52 39.24L893.52 43.68C893.52 44.2 893.24 44.48 892.72 44.48L892.32 44.48C891.56 44.48 891.12 44.92 891.12 45.68L891.12 47.24C891.12 48 891.56 48.44 892.32 48.44L892.72 48.44C893.24 48.44 893.52 48.72 893.52 49.24L893.52 58C893.52 58.48 893.28 58.76 892.8 58.88L892.16 59C891.48 59.16 891.12 59.6 891.12 60.32L891.12 62.32C891.12 63.16 891.64 63.56 892.44 63.4L900.64 61.64C901.32 61.48 901.68 61.04 901.68 60.32L901.68 58.32C901.68 57.48 901.24 57.04 900.6 57.2ZM908.28 59.72L908.28 53.04C908.28 52.52 908.56 52.24 909.08 52.24L917.84 52.24C918.36 52.24 918.64 52.52 918.64 53.04L918.64 59.72C918.64 60.24 918.36 60.52 917.84 60.52L909.08 60.52C908.56 60.52 908.28 60.24 908.28 59.72ZM910.2 59.4L916.72 59.4C917.48 59.4 917.92 58.96 917.92 58.2L917.92 54.56C917.92 53.8 917.48 53.36 916.72 53.36L910.2 53.36C909.44 53.36 909 53.8 909 54.56L909 58.2C909 58.96 909.44 59.4 910.2 59.4ZM913.52 57.44L913.4 57.44C912.88 57.44 912.6 57.16 912.6 56.64L912.6 56.12C912.6 55.6 912.88 55.32 913.4 55.32L913.52 55.32C914.04 55.32 914.32 55.6 914.32 56.12L914.32 56.64C914.32 57.16 914.04 57.44 913.52 57.44ZM941.28 64.36L946.48 64.36C947.24 64.36 947.68 63.92 947.68 63.16L947.68 49.28C947.68 48.76 947.96 48.48 948.48 48.48L950.68 48.48C951.2 48.48 951.48 48.76 951.48 49.28L951.48 59.4C951.48 59.76 951.4 60 951.2 60.36L950.76 61.04C950.36 61.68 950.8 62.16 951.76 62.16L956.36 62.16C957.92 62.16 959.08 60.92 959.08 59.44L959.08 45.88C959.08 45.12 958.64 44.68 957.88 44.68L948.44 44.68C947.92 44.68 947.64 44.4 947.64 43.88L947.64 43.2C947.64 42.68 947.92 42.4 948.44 42.4L959.4 42.4C960.16 42.4 960.6 41.96 960.6 41.2L960.6 39.8C960.6 39.04 960.16 38.6 959.4 38.6L948.48 38.6C947.96 38.6 947.68 38.32 947.68 37.8L947.68 36.76C947.68 36 947.24 35.56 946.48 35.56L940.28 35.56C939.32 35.56 939 36.16 939.52 37L939.8 37.44C940 37.8 940.08 38 940.08 38.24C940.08 38.48 939.76 38.6 939.28 38.6L928.36 38.6C927.6 38.6 927.16 39.04 927.16 39.8L927.16 41.2C927.16 41.96 927.6 42.4 928.36 42.4L939.24 42.4C939.76 42.4 940.04 42.68 940.04 43.2L940.04 43.88C940.04 44.4 939.76 44.68 939.24 44.68L929.12 44.68C928.2 44.68 927.8 45.24 928.2 46.08L928.44 46.6C928.6 46.92 928.68 47.24 928.68 47.6L928.68 60.96C928.68 61.72 929.12 62.16 929.88 62.16L935.08 62.16C935.84 62.16 936.28 61.72 936.28 60.96L936.28 49.28C936.28 48.76 936.56 48.48 937.08 48.48L939.28 48.48C939.8 48.48 940.08 48.76 940.08 49.28L940.08 63.16C940.08 63.92 940.52 64.36 941.28 64.36ZM996.96 40.68L996.96 37.52C996.96 36.76 996.52 36.32 995.76 36.32L980.04 36.32C979.28 36.32 978.84 36.76 978.84 37.52L978.84 38.92C978.84 39.68 979.28 40.12 980.04 40.12L986.8 40.12C987.6 40.12 987.76 40.68 987.04 41.08L979.56 45C979 45.32 978.72 45.76 978.72 46.4L978.72 48.04C978.72 48.8 979.16 49.24 979.92 49.24C980.12 49.24 980.2 49.6 980.08 50.12L977.48 63.04C977.32 63.84 977.72 64.36 978.56 64.36L980.72 64.36C981.44 64.36 981.88 64 982 63.28L984.64 49.96C984.72 49.48 985 49.24 985.36 49.24C985.68 49.24 985.88 49.6 985.76 50.12L983.2 63.04C983.04 63.84 983.44 64.36 984.28 64.36L986.44 64.36C987.16 64.36 987.6 64 987.72 63.28L990.32 49.96C990.4 49.48 990.64 49.24 990.88 49.24C991.12 49.24 991.24 49.52 991.24 50.04L991.24 60.08C991.24 60.48 991.12 60.76 990.88 61.08L989.4 62.88C988.76 63.68 989.08 64.36 990.08 64.36L995 64.36C996.48 64.36 997.72 63.28 997.72 61.72L997.72 46.64C997.72 45.88 997.28 45.44 996.52 45.44L991.56 45.44C990.76 45.44 990.6 44.84 991.32 44.48L996.08 42.08C996.68 41.8 996.96 41.32 996.96 40.68ZM975.96 57.84L975.48 57.92C974.96 58.04 974.6 57.8 974.6 57.24L974.6 49.28C974.6 48.76 974.88 48.48 975.4 48.48L976.04 48.48C976.8 48.48 977.24 48.04 977.24 47.28L977.24 45.88C977.24 45.12 976.8 44.68 976.04 44.68L975.4 44.68C974.88 44.68 974.6 44.4 974.6 43.88L974.6 37.52C974.6 36.76 974.16 36.32 973.4 36.32L967.92 36.32C966.96 36.32 966.6 36.96 967.12 37.76L967.44 38.28C967.64 38.64 967.72 38.88 967.72 39.24L967.72 43.88C967.72 44.4 967.44 44.68 966.92 44.68L966.28 44.68C965.52 44.68 965.08 45.12 965.08 45.88L965.08 47.28C965.08 48.04 965.52 48.48 966.28 48.48L966.92 48.48C967.44 48.48 967.72 48.76 967.72 49.28L967.72 58.68C967.72 59.16 967.48 59.44 967 59.52L966.2 59.68C965.48 59.8 965.12 60.2 965.12 60.96L965.08 62.36C965.08 63.2 965.6 63.6 966.4 63.44L976.16 61.6C976.88 61.48 977.24 61.08 977.24 60.32L977.28 58.92C977.28 58.08 976.76 57.68 975.96 57.84ZM1014.28 37.76L1014.28 39.16C1014.28 39.92 1014.72 40.36 1015.48 40.36L1017.12 40.36C1017.68 40.36 1017.96 40.72 1017.76 41.28L1014.48 50.88C1014.2 51.68 1014.56 52.24 1015.44 52.24C1015.64 52.24 1015.76 52.52 1015.76 53.04L1015.76 62.32C1015.76 63.08 1016.2 63.52 1016.96 63.52L1032.64 63.52C1033.4 63.52 1033.84 63.08 1033.84 62.32L1033.84 48.48C1033.84 47.72 1033.4 47.28 1032.64 47.28L1024.04 47.28C1023.48 47.28 1023.2 46.92 1023.4 46.36L1025.2 41C1025.36 40.56 1025.68 40.36 1026.12 40.36L1033.64 40.36C1034.4 40.36 1034.84 39.92 1034.84 39.16L1034.84 37.76C1034.84 37 1034.4 36.56 1033.64 36.56L1015.48 36.56C1014.72 36.56 1014.28 37 1014.28 37.76ZM1001.56 52.48L1001.56 54.2C1001.56 55.04 1002.08 55.44 1002.88 55.24L1003.76 55.04C1004.28 54.92 1004.64 55.2 1004.64 55.76L1004.64 60.2C1004.64 60.56 1004.56 60.88 1004.32 61.2L1003.08 62.88C1002.48 63.72 1002.8 64.36 1003.8 64.36L1008.32 64.36C1009.8 64.36 1011 63.28 1011 61.72L1011 54.04C1011 53.56 1011.24 53.28 1011.68 53.16L1012.6 52.92C1013.28 52.76 1013.64 52.36 1013.64 51.6L1013.6 49.84C1013.6 48.96 1013.08 48.6 1012.28 48.8L1011.88 48.88C1011.32 49.04 1011 48.76 1011 48.2L1011 44.72C1011 44.2 1011.28 43.92 1011.8 43.92L1012.4 43.92C1013.16 43.92 1013.6 43.48 1013.6 42.72L1013.6 41.32C1013.6 40.56 1013.16 40.12 1012.4 40.12L1011.8 40.12C1011.28 40.12 1011 39.84 1011 39.32L1011 36.76C1011 36 1010.56 35.56 1009.8 35.56L1004.8 35.56C1003.84 35.56 1003.52 36.16 1004.04 37L1004.36 37.52C1004.56 37.88 1004.64 38.12 1004.64 38.48L1004.64 39.32C1004.64 39.84 1004.36 40.12 1003.84 40.12L1002.76 40.12C1002 40.12 1001.56 40.56 1001.56 41.32L1001.56 42.72C1001.56 43.48 1002 43.92 1002.76 43.92L1003.84 43.92C1004.36 43.92 1004.64 44.2 1004.64 44.72L1004.64 49.96C1004.64 50.44 1004.4 50.72 1003.96 50.84L1002.6 51.16C1001.92 51.32 1001.56 51.76 1001.56 52.48ZM1022.6 59.28L1022.6 51.88C1022.6 51.36 1022.88 51.08 1023.4 51.08L1027 51.08C1027.52 51.08 1027.8 51.36 1027.8 51.88L1027.8 59.28C1027.8 59.8 1027.52 60.08 1027 60.08L1023.4 60.08C1022.88 60.08 1022.6 59.8 1022.6 59.28ZM1066.56 64.36L1070.68 64.36C1071.68 64.36 1071.96 63.68 1071.36 62.88L1069.8 60.88C1069.44 60.4 1069.6 59.96 1070.2 59.84L1070.68 59.72C1071.36 59.56 1071.72 59.12 1071.72 58.4L1071.72 57.04C1071.72 56.2 1071.2 55.8 1070.4 55.96L1067.28 56.64C1066.84 56.76 1066.52 56.64 1066.24 56.28L1065.92 55.88C1065.52 55.4 1065.76 54.96 1066.44 54.96L1071.28 54.96C1072.04 54.96 1072.48 54.52 1072.48 53.76L1072.48 52.72C1072.48 51.96 1072.04 51.52 1071.28 51.52L1068.72 51.52C1068.2 51.52 1067.88 51.28 1067.92 50.76C1067.92 50.24 1068.24 50 1068.72 50L1069.76 50C1070.52 50 1070.96 49.56 1070.96 48.8L1070.96 48.16C1070.96 47.4 1070.52 46.96 1069.76 46.96L1068.72 46.96C1068.2 46.96 1067.88 46.72 1067.92 46.2C1067.92 45.68 1067.48 45.44 1066.72 45.44L1063.04 45.44C1062.28 45.44 1061.8 45.88 1061.8 46.64C1061.8 46.84 1061.52 46.96 1061 46.96L1058.08 46.96C1057.56 46.96 1057.24 46.72 1057.28 46.2C1057.28 45.68 1056.84 45.44 1056.08 45.44L1052.4 45.44C1051.64 45.44 1051.16 45.88 1051.16 46.64C1051.16 46.84 1050.88 46.96 1050.36 46.96L1049.36 46.96C1048.6 46.96 1048.16 47.4 1048.16 48.16L1048.16 48.8C1048.16 49.56 1048.6 50 1049.36 50L1050.4 50C1050.92 50 1051.2 50.28 1051.2 50.76C1051.2 51.28 1050.84 51.52 1050.36 51.52L1048.16 51.52C1047.64 51.52 1047.32 51.24 1047.36 50.68L1047.68 45.44C1047.72 44.96 1048 44.68 1048.48 44.68L1069.76 44.68C1070.52 44.68 1070.96 44.24 1070.96 43.48L1070.96 37.52C1070.96 36.76 1070.52 36.32 1069.76 36.32L1040.72 36.32C1039.76 36.32 1039.4 36.96 1039.88 37.76L1040.16 38.24C1040.36 38.6 1040.44 38.92 1040.4 39.28L1039.12 63.12C1039.08 63.88 1039.52 64.36 1040.28 64.36L1045.48 64.36C1046.24 64.36 1046.68 64 1046.72 63.2L1047.12 55.72C1047.16 55.24 1047.44 54.96 1047.92 54.96L1048.88 54.96C1049.4 54.96 1049.68 55.24 1049.68 55.76L1049.68 63.08C1049.68 63.88 1050.16 64.32 1050.96 64.2L1059.2 63.08C1059.96 62.96 1060.32 62.52 1060.32 61.8L1060.32 60.4C1060.32 59.6 1059.84 59.2 1059.04 59.32L1057.36 59.56C1056.84 59.64 1056.52 59.32 1056.52 58.8L1056.52 55.76C1056.52 55.24 1056.8 54.96 1057.32 54.96L1057.72 54.96C1058.12 54.96 1058.44 55.12 1058.68 55.44L1065.08 63.64C1065.48 64.12 1065.92 64.36 1066.56 64.36ZM1048.72 39.72L1062.56 39.72C1063.08 39.72 1063.36 40 1063.36 40.48C1063.36 40.96 1063.08 41.28 1062.56 41.28L1048.72 41.28C1048.2 41.28 1047.88 40.96 1047.92 40.48C1047.96 40 1048.24 39.72 1048.72 39.72ZM1058.08 50L1061.04 50C1061.56 50 1061.84 50.28 1061.84 50.76C1061.84 51.28 1061.48 51.52 1061 51.52L1058.08 51.52C1057.56 51.52 1057.24 51.28 1057.28 50.76C1057.28 50.24 1057.6 50 1058.08 50ZM1097.2 56.84L1100.4 56.84C1101.16 56.84 1101.6 56.4 1101.6 55.64L1101.6 45.56C1101.6 45.08 1101.8 44.8 1102.2 44.68C1102.6 44.56 1102.8 44.88 1102.8 45.44L1102.8 53.04C1102.8 53.4 1102.72 53.72 1102.56 54.04L1102.32 54.44C1102.04 54.92 1102.52 55.32 1103.44 55.32L1105.64 55.32C1106.96 55.32 1108.04 54.16 1108.04 52.6L1108.04 40.72C1108.04 39.88 1107.52 39.52 1106.72 39.72L1102.48 40.76C1101.92 40.92 1101.6 40.64 1101.6 40.08L1101.6 36.76C1101.6 36 1101.16 35.56 1100.4 35.56L1096.2 35.56C1095.24 35.56 1094.88 36.2 1095.4 37L1095.72 37.52C1095.92 37.88 1096 38.12 1096 38.48L1096 41.72C1096 42.2 1095.76 42.48 1095.36 42.6C1094.92 42.72 1094.68 42.4 1094.68 41.84L1094.68 39.8C1094.68 39.04 1094.24 38.6 1093.48 38.6L1088.96 38.6C1088 38.6 1087.64 39.24 1088.16 40.04L1088.48 40.56C1088.68 40.92 1088.76 41.16 1088.76 41.52L1088.76 43.56C1088.76 44.04 1088.52 44.32 1088.08 44.44L1087.96 44.48C1087.44 44.6 1087.12 45.04 1087.12 45.76L1087.12 47.12C1087.12 47.96 1087.64 48.36 1088.44 48.16C1088.64 48.12 1088.76 48.44 1088.76 49L1088.76 62.48C1088.76 63.24 1089.2 63.68 1089.96 63.68L1107.32 63.68C1108.08 63.68 1108.52 63.24 1108.52 62.48L1108.52 58.4C1108.52 57.32 1107.8 57.04 1107.04 57.8L1106.12 58.72C1105.8 59.04 1105.56 59.12 1105.16 59.12L1095.48 59.12C1094.96 59.12 1094.68 58.84 1094.68 58.32L1094.68 47.28C1094.68 46.84 1094.92 46.52 1095.36 46.4L1095.36 46.4C1095.76 46.28 1096 46.6 1096 47.16L1096 55.64C1096 56.4 1096.44 56.84 1097.2 56.84ZM1085.2 57.2L1084.8 57.28C1084.28 57.4 1083.92 57.12 1083.92 56.56L1083.92 49.44C1083.92 48.92 1084.2 48.64 1084.72 48.64L1085.24 48.64C1086 48.64 1086.44 48.2 1086.44 47.44L1086.44 45.88C1086.44 45.12 1086 44.68 1085.24 44.68L1084.72 44.68C1084.2 44.68 1083.92 44.4 1083.92 43.88L1083.92 37.52C1083.92 36.76 1083.48 36.32 1082.72 36.32L1078.12 36.32C1077.16 36.32 1076.8 36.96 1077.32 37.76L1077.64 38.28C1077.84 38.64 1077.92 38.88 1077.92 39.24L1077.92 43.88C1077.92 44.4 1077.64 44.68 1077.12 44.68L1076.28 44.68C1075.52 44.68 1075.08 45.12 1075.08 45.88L1075.08 47.44C1075.08 48.2 1075.52 48.64 1076.28 48.64L1077.12 48.64C1077.64 48.64 1077.92 48.92 1077.92 49.44L1077.92 57.96C1077.92 58.44 1077.68 58.72 1077.2 58.84L1076.16 59.04C1075.44 59.16 1075.08 59.6 1075.08 60.32L1075.08 62.36C1075.08 63.2 1075.6 63.56 1076.4 63.4L1085.36 61.6C1086.08 61.44 1086.44 61.04 1086.44 60.32L1086.44 58.32C1086.44 57.48 1085.96 57.04 1085.2 57.2ZM1112.64 37.52L1113.12 38.28C1113.32 38.64 1113.4 38.88 1113.4 39.24L1113.4 62.48C1113.4 63.24 1113.84 63.68 1114.6 63.68L1142.6 63.68C1143.36 63.68 1143.8 63.24 1143.8 62.48L1143.8 37.52C1143.8 36.76 1143.36 36.32 1142.6 36.32L1113.6 36.32C1112.64 36.32 1112.2 36.84 1112.64 37.52ZM1119.48 59.08L1119.48 40.92C1119.48 40.4 1119.76 40.12 1120.28 40.12L1136.92 40.12C1137.44 40.12 1137.72 40.4 1137.72 40.92L1137.72 59.08C1137.72 59.6 1137.44 59.88 1136.92 59.88L1120.28 59.88C1119.76 59.88 1119.48 59.6 1119.48 59.08ZM1136.6 49.56L1136.6 49.32C1136.6 48.56 1136.16 48.12 1135.4 48.12L1133.68 48.12C1133.32 48.12 1133.04 48.08 1132.76 47.88C1132.56 47.76 1132.8 47.44 1133.32 47.12L1135.36 45.92C1135.96 45.56 1136.2 45.12 1136.2 44.48L1136.2 42.64C1136.2 41.88 1135.76 41.44 1135 41.44L1126.76 41.44C1126.2 41.44 1125.88 41.36 1125.92 41.16C1125.96 40.96 1125.44 40.88 1124.6 40.88L1122.48 40.88C1121.76 40.88 1121.32 41.24 1121.16 41.92L1120.52 44.88C1120.36 45.72 1120.76 46.2 1121.6 46.2L1121.76 46.2C1122.12 46.2 1122.4 46.28 1122.72 46.48L1123.88 47.16C1124.4 47.48 1124.68 47.8 1124.48 47.92C1124.2 48.04 1123.92 48.12 1123.56 48.12L1121.8 48.12C1121.04 48.12 1120.6 48.56 1120.6 49.32L1120.6 49.56C1120.6 50.32 1121.04 50.76 1121.8 50.76L1126.24 50.76C1126.84 50.76 1127.28 50.56 1127.72 50.2L1128.04 49.96C1128.4 49.64 1128.8 49.64 1129.16 49.96L1129.48 50.2C1129.92 50.56 1130.36 50.76 1130.96 50.76L1135.4 50.76C1136.16 50.76 1136.6 50.32 1136.6 49.56ZM1135.04 56.04L1122.24 55.4C1121.48 55.36 1121 55.8 1121 56.56L1121 57.2C1121 57.96 1121.4 58.36 1122.16 58.4L1134.96 59.04C1135.72 59.08 1136.2 58.64 1136.2 57.88L1136.2 57.24C1136.2 56.48 1135.8 56.08 1135.04 56.04ZM1133.84 52.2L1123.44 51.6C1122.68 51.56 1122.2 51.96 1122.2 52.76L1122.2 53.4C1122.2 54.16 1122.6 54.6 1123.36 54.64L1133.76 55.24C1134.52 55.28 1135 54.88 1135 54.08L1135 53.44C1135 52.68 1134.6 52.24 1133.84 52.2ZM1129.76 45L1129.16 45.48C1128.76 45.8 1128.44 45.8 1128.04 45.48L1127.4 45C1126.84 44.6 1127.08 44.12 1127.84 44.12L1129.32 44.12C1130.08 44.12 1130.28 44.6 1129.76 45Z">
</path>
</g>
<g  mask="url(#mask-19571ea8-7f9f-4115-9439-4b64408caa62)">
<path    stroke="rgba(15, 107, 156, 1)" stroke-width="1"    d="M1326 50L1408 50">
</path>
<path    stroke="rgba(15, 107, 156, 1)" stroke-width="1"    d="M1801 49L1923 49">
</path>
<path    stroke="rgba(15, 107, 156, 1)" stroke-width="2"    d="M1419 50L1741 50">
</path>
<circle cx="1752" cy="49" r="1"   fill="#0F6B9C" >
</circle>
<circle cx="1766" cy="49" r="1"   fill="#0F6B9C" >
</circle>
<circle cx="1780" cy="49" r="1"   fill="#0F6B9C" >
</circle>
<circle cx="1794" cy="49" r="1"   fill="#0F6B9C" >
</circle>
<path d="M1377 24L1370.25 24L1384.25 37.5L1391 37.5L1377 24L1377 24L1377 24Z"   fill="#0F6B9C" >
</path>
<path d="M1362.25 24L1355.5 24L1369.5 37.5L1376.25 37.5L1362.25 24L1362.25 24L1362.25 24Z"   fill="#0F6B9C" >
</path>
<path d="M1347.5 24L1340.75 24L1354.75 37.5L1361.5 37.5L1347.5 24L1347.5 24L1347.5 24Z"   fill="#0F6B9C" >
</path>
<path d="M1332.75 24L1326 24L1340 37.5L1346.75 37.5L1332.75 24L1332.75 24L1332.75 24Z"   fill="#0F6B9C" >
</path>
<path d="M1902 24L1396 24L1410 37.5L1916 37.5L1902 24L1902 24L1902 24Z"   fill="url(#linear_fill_1e171e04-4d86-4bfe-b8a2-75d5dffc1092)" >
</path>
</g>
<g  mask="url(#mask-19571ea8-7f9f-4115-9439-4b64408caa62)">
<path    stroke="rgba(15, 107, 156, 1)" stroke-width="1"    d="M597 50L515 50">
</path>
<path    stroke="rgba(15, 107, 156, 1)" stroke-width="1"    d="M122 49L0 49">
</path>
<path    stroke="rgba(15, 107, 156, 1)" stroke-width="2"    d="M504 50L182 50">
</path>
<circle cx="173" cy="51" transform="rotate(180 172 50)" r="1"   fill="#0F6B9C" >
</circle>
<circle cx="159" cy="51" transform="rotate(180 158 50)" r="1"   fill="#0F6B9C" >
</circle>
<circle cx="145" cy="51" transform="rotate(180 144 50)" r="1"   fill="#0F6B9C" >
</circle>
<circle cx="131" cy="51" transform="rotate(180 130 50)" r="1"   fill="#0F6B9C" >
</circle>
<path d="M546 24L552.75 24L538.75 37.5L532 37.5L546 24L546 24L546 24Z"   fill="#0F6B9C" >
</path>
<path d="M560.75 24L567.5 24L553.5 37.5L546.75 37.5L560.75 24L560.75 24L560.75 24Z"   fill="#0F6B9C" >
</path>
<path d="M575.5 24L582.25 24L568.25 37.5L561.5 37.5L575.5 24L575.5 24L575.5 24Z"   fill="#0F6B9C" >
</path>
<path d="M590.25 24L597 24L583 37.5L576.25 37.5L590.25 24L590.25 24L590.25 24Z"   fill="#0F6B9C" >
</path>
<path d="M21 24L527 24L513 37.5L7 37.5L21 24L21 24L21 24Z"   fill="url(#linear_fill_0f535b4b-d4dd-4dbb-bcc2-1ebc6c03de7a)" >
</path>
</g>
<defs>
<mask id="mask-19571ea8-7f9f-4115-9439-4b64408caa62" style="mask-type:alpha" maskUnits="userSpaceOnUse">
<path fill="white" d="M3 0L1923 0L1923 100L3 100L3 0Z">
</path>
</mask>
<linearGradient id="linear_fill_22e4c669-ea71-4435-b34b-df6f709cae18" x1="756.9999976196673" y1="88.50007331371307" x2="1163.0310722589493" y2="88.50005060434341" gradientUnits="userSpaceOnUse">
<stop offset="0" stop-color="#1890FF" stop-opacity="0" />
<stop offset="0.359375" stop-color="#1890FF"  />
<stop offset="0.6875" stop-color="#1890FF"  />
<stop offset="1" stop-color="#1890FF" stop-opacity="0" />
</linearGradient>
<filter id="filter_22e4c669-ea71-4435-b34b-df6f709cae18" x="753" y="85" width="417" height="7" filterUnits="userSpaceOnUse" color-interpolation-filters="sRGB">
<feFlood flood-opacity="0" result="feFloodId_22e4c669-ea71-4435-b34b-df6f709cae18"/>
<feColorMatrix in="SourceAlpha" type="matrix" values="0 0 0 0 0 0 0 0 0 0 0 0 0 0 0 0 0 0 127 0" result="hardAlpha_22e4c669-ea71-4435-b34b-df6f709cae18"/>
<feOffset dx="0" dy="4"/>
<feGaussianBlur stdDeviation="2"/>
<feComposite in2="hardAlpha_22e4c669-ea71-4435-b34b-df6f709cae18" operator="out"/>
<feColorMatrix type="matrix" values="0 0 0 0 0 0 0 0 0 0 0 0 0 0 0 0 0 0 0.25 0"/>
<feBlend mode="normal" in2="feFloodId_22e4c669-ea71-4435-b34b-df6f709cae18" result="dropShadow_1_22e4c669-ea71-4435-b34b-df6f709cae18"/>
<feBlend mode="normal" in="SourceGraphic" in2="dropShadow_1_22e4c669-ea71-4435-b34b-df6f709cae18" result="shape_22e4c669-ea71-4435-b34b-df6f709cae18"/>
<feGaussianBlur result="gaussian_blur_22e4c669-ea71-4435-b34b-df6f709cae18" stdDeviation="1"/>
</filter>
<linearGradient id="linear_fill_0e8f900c-1edb-4d48-b5bf-baf5943ac75d" x1="1260.8038940429688" y1="50" x2="1248.0610961914062" y2="50" gradientUnits="userSpaceOnUse">
<stop offset="0" stop-color="#0F6B9C"  />
<stop offset="1" stop-color="#0F6B9C" stop-opacity="0" />
</linearGradient>
<linearGradient id="linear_fill_bda5b7f5-81f6-43e3-9f13-6fd426cbc745" x1="1318.8038940429688" y1="50" x2="1306.0610961914062" y2="50" gradientUnits="userSpaceOnUse">
<stop offset="0" stop-color="#0F6B9C"  />
<stop offset="1" stop-color="#0F6B9C" stop-opacity="0" />
</linearGradient>
<linearGradient id="linear_fill_b6b3174a-3353-4e71-b268-7e5dd23f09a5" x1="664.0661163330078" y1="72.002685546875" x2="676.8089447021484" y2="72.002685546875" gradientUnits="userSpaceOnUse">
<stop offset="0" stop-color="#0F6B9C"  />
<stop offset="1" stop-color="#0F6B9C" stop-opacity="0" />
</linearGradient>
<linearGradient id="linear_fill_9703ae26-eb37-4c7e-a345-2f2ddd0de012" x1="605.0661163330078" y1="72.002685546875" x2="617.8089447021484" y2="72.002685546875" gradientUnits="userSpaceOnUse">
<stop offset="0" stop-color="#0F6B9C"  />
<stop offset="1" stop-color="#0F6B9C" stop-opacity="0" />
</linearGradient>
<linearGradient id="linear_fill_1e171e04-4d86-4bfe-b8a2-75d5dffc1092" x1="1436" y1="29.92236328125" x2="1916" y2="29.92236328125" gradientUnits="userSpaceOnUse">
<stop offset="0" stop-color="#0F6B9C"  />
<stop offset="1" stop-color="#0F6B9C" stop-opacity="0" />
</linearGradient>
<linearGradient id="linear_fill_0f535b4b-d4dd-4dbb-bcc2-1ebc6c03de7a" x1="486.9999694824219" y1="29.92236328125" x2="7" y2="29.92236328125" gradientUnits="userSpaceOnUse">
<stop offset="0" stop-color="#0F6B9C"  />
<stop offset="1" stop-color="#0F6B9C" stop-opacity="0" />
</linearGradient>
</defs>
</svg>
