<svg xmlns="http://www.w3.org/2000/svg" xmlns:xlink="http://www.w3.org/1999/xlink" width="1923" height="100" viewBox="0 0 1923 100" fill="none">
<path d="M3 0L1923 0L1923 100L3 100L3 0Z">
</path>
<g  mask="url(#mask-19571ea8-7f9f-4115-9439-4b64408caa62)">
<path     fill="#021A26"  d="M596 49.5L620.56 75L1300.44 75L1327 49.5L1300.44 24L620.56 24L596 49.5">
</path>
<path fill-rule="evenodd"  fill="rgba(15, 107, 156, 1)"  d="M596 49.5L620.56 75L1300.44 75L1326.28 50.1931L1327 49.5L1326.28 48.8069L1300.44 24L620.56 24L596 49.5ZM620.985 25L597.388 49.5L620.985 74L1300.04 74L1325.56 49.5L1300.04 25L620.985 25Z">
</path>
<path     fill="#021A26"  d="M655 50L694.94 90L1229.07 90L1269 50L1229.07 10L694.94 10L655 50">
</path>
<path fill-rule="evenodd"  fill="rgba(15, 107, 156, 1)"  d="M655 50L694.94 90L1229.07 90L1269 50L1229.07 10L694.94 10L655 50ZM695.355 11L656.413 50L695.355 89L1228.66 89L1267.59 50L1228.66 11L695.355 11Z">
</path>
<g filter="url(#filter_22e4c669-ea71-4435-b34b-df6f709cae18)">
<ellipse cx="962.5" cy="88.5" rx="205.5" ry="1.5"   fill="url(#linear_fill_22e4c669-ea71-4435-b34b-df6f709cae18)" >
</ellipse>
</g>
<path d="M1259.49 49.9996L1259.84 49.6396L1248.34 38.6396L1247.65 39.3596L1258.77 49.9996L1247.65 60.6396L1248.34 61.3596L1259.84 50.3596L1259.49 49.9996ZM1259.49 49.9996L1259.15 49.6396L1258.77 49.9996L1259.15 50.3596L1259.49 49.9996ZM1259.85 50.3596L1260.22 49.9996L1259.85 49.6396L1259.5 49.9996L1259.85 50.3596Z" fill-rule="evenodd"  fill="url(#linear_fill_0e8f900c-1edb-4d48-b5bf-baf5943ac75d)" >
</path>
<path d="M1317.49 49.9996L1317.84 49.6396L1306.34 38.6396L1305.65 39.3596L1316.77 49.9996L1305.65 60.6396L1306.34 61.3596L1317.84 50.3596L1317.49 49.9996ZM1317.49 49.9996L1317.15 49.6396L1316.77 49.9996L1317.15 50.3596L1317.49 49.9996ZM1317.85 50.3596L1318.22 49.9996L1317.85 49.6396L1317.5 49.9996L1317.85 50.3596Z" fill-rule="evenodd"  fill="url(#linear_fill_bda5b7f5-81f6-43e3-9f13-6fd426cbc745)" >
</path>
<path d="M665.344 83.3627L676.844 72.3627L676.499 72.0027L676.844 71.6427L665.344 60.6427L664.654 61.3627L675.778 72.0027L664.654 82.6427L665.344 83.3627ZM675.778 72.0027L676.154 72.3627L676.499 72.0027L676.154 71.6427L675.778 72.0027ZM676.85 72.3627L677.22 72.0027L676.85 71.6427L676.5 72.0027L676.85 72.3627Z" fill-rule="evenodd"  fill="url(#linear_fill_b6b3174a-3353-4e71-b268-7e5dd23f09a5)" >
</path>
<path d="M606.344 83.3627L617.844 72.3627L617.499 72.0027L617.844 71.6427L606.344 60.6427L605.654 61.3627L616.778 72.0027L605.654 82.6427L606.344 83.3627ZM616.778 72.0027L617.154 72.3627L617.499 72.0027L617.154 71.6427L616.778 72.0027ZM617.85 72.3627L618.22 72.0027L617.85 71.6427L617.5 72.0027L617.85 72.3627Z" fill-rule="evenodd"  fill="url(#linear_fill_9703ae26-eb37-4c7e-a345-2f2ddd0de012)" >
</path>
</g>
<g  mask="url(#mask-19571ea8-7f9f-4115-9439-4b64408caa62)">
<path     fill="#FFFFFF"  d="M775.28 42.4Q774.64 41.32 773.92 40.26Q773.2 39.2 772.5 38.22Q771.8 37.24 771.12 36.4Q770.44 35.56 769.88 34.92L772.04 33.2Q772.64 33.8 773.42 34.7Q774.2 35.6 774.98 36.6Q775.76 37.6 776.44 38.58Q777.12 39.56 777.6 40.32L775.28 42.4ZM800.28 37.12L780.6 37.12L780.6 34.32L800.28 34.32L800.28 37.12ZM784.2 47.96Q784.2 47.64 784.22 47.24Q784.24 46.84 784.24 46.44L778.4 46.44L778.4 43.68L802.52 43.68L802.52 46.44L794.48 46.44L794.48 55.56Q794.48 56.2 794.56 56.56Q794.64 56.92 794.84 57.14Q795.04 57.36 795.38 57.44Q795.72 57.52 796.2 57.56Q796.92 57.64 797.68 57.56Q798.28 57.52 798.64 57.42Q799 57.32 799.2 57.08Q799.4 56.84 799.5 56.4Q799.6 55.96 799.68 55.24Q799.76 54.48 799.8 53.8Q799.84 53.12 799.84 52.4L802.48 53.16Q802.44 54.08 802.38 54.76Q802.32 55.44 802.24 56.32Q802.12 57.48 801.88 58.22Q801.64 58.96 801.2 59.4Q800.76 59.84 800.06 60.04Q799.36 60.24 798.32 60.28Q796.76 60.32 795.24 60.28Q793.32 60.2 792.48 59.36Q791.64 58.52 791.64 56.16L791.64 46.44L787.08 46.44Q787.08 46.88 787.06 47.32Q787.04 47.76 787.04 48.12Q786.92 50.76 786.56 52.68Q786.2 54.6 785.44 56.12Q784.68 57.64 783.48 58.92Q782.28 60.2 780.56 61.52L778.44 59.44Q780.12 58.2 781.2 57.08Q782.28 55.96 782.92 54.68Q783.56 53.4 783.84 51.78Q784.12 50.16 784.2 47.96ZM789.96 63.88Q793.52 63.96 797.24 63.88Q800.96 63.8 804.16 63.6L803.48 66.68Q802.2 66.72 800.52 66.76Q798.84 66.8 797.08 66.84Q795.32 66.88 793.64 66.88Q791.96 66.88 790.72 66.84Q787.6 66.76 785.3 66.6Q783 66.44 781.14 65.92Q779.28 65.4 777.7 64.44Q776.12 63.48 774.48 61.8Q773.92 62.44 773.42 63.02Q772.92 63.6 772.38 64.22Q771.84 64.84 771.2 65.54Q770.56 66.24 769.72 67.08L767.6 64.84Q769.24 63.32 770.68 61.86Q772.12 60.4 773.24 59L773.24 48.12L768.92 48.12L768.92 45.28L776.12 45.28L776.12 59.6Q777.56 61 778.92 61.8Q780.28 62.6 781.86 63.06Q783.44 63.52 785.38 63.68Q787.32 63.84 789.96 63.88ZM827.52 51.92L827.52 63.12Q827.52 64.44 827.32 65.24Q827.12 66.04 826.64 66.48Q826.16 66.92 825.34 67.14Q824.52 67.36 823.28 67.48L820.36 67.72L819.32 64.72L822.28 64.48Q823.04 64.44 823.48 64.32Q823.92 64.2 824.16 63.96Q824.4 63.72 824.46 63.26Q824.52 62.8 824.52 62.04L824.52 51.92L811.8 51.92L811.8 48.96Q813.32 46.8 814.78 44.56Q816.24 42.32 817.56 39.92L808.6 39.92L808.6 37.12L819.04 37.12Q819.76 35.72 820.42 34.3Q821.08 32.88 821.64 31.44L824.48 32.64Q824.04 33.72 823.5 34.84Q822.96 35.96 822.4 37.12L841.64 37.12L841.64 39.92L820.92 39.92Q819.48 42.64 818 45.06Q816.52 47.48 815.24 49.16L824.52 49.16L824.52 42.32L827.52 42.44L827.52 49.16L839.56 49.16L839.56 51.92L827.52 51.92ZM833.2 54.12Q834.12 54.88 835.46 56.06Q836.8 57.24 838.22 58.58Q839.64 59.92 840.98 61.28Q842.32 62.64 843.24 63.72L841.16 66.04Q840.12 64.8 838.78 63.38Q837.44 61.96 836.06 60.58Q834.68 59.2 833.4 58.02Q832.12 56.84 831.2 56.08L833.2 54.12ZM806.64 63.96Q809.76 61.8 812.28 59.34Q814.8 56.88 816.84 54.28L819.16 56.24Q816.92 59 814.46 61.46Q812 63.92 808.84 66.32L806.64 63.96ZM857.16 36.76L847.48 36.76L847.48 34.56L857.16 34.56L857.16 31.68L860.08 31.84L860.08 34.56L869.12 34.56L869.12 31.68L872.08 31.84L872.08 34.56L881.76 34.56L881.76 36.76L872.08 36.76L872.08 38.28L869.12 38.28L869.12 36.76L860.08 36.76L860.08 38.28L857.16 38.28L857.16 36.76ZM881.92 62.16Q880.32 61.64 878.88 61.02Q877.44 60.4 876.12 59.72L876.12 62.52Q876.12 63.56 875.96 64.22Q875.8 64.88 875.36 65.3Q874.92 65.72 874.08 65.94Q873.24 66.16 871.88 66.28L869.76 66.48L868.96 64.28L871.16 64.12Q871.92 64.08 872.36 63.96Q872.8 63.84 873 63.64Q873.2 63.44 873.26 63.08Q873.32 62.72 873.32 62.16L873.32 60.08L866.04 60.08L866.04 67.96L863.2 67.96L863.2 60.08L855.92 60.08L855.92 66.24L853.16 66.24L853.16 59.68Q851.92 60.4 850.56 61.06Q849.2 61.72 847.68 62.4L846.36 60.08Q849.64 58.8 852.16 57.34Q854.68 55.88 856.6 54.08L847.68 54.08L847.68 51.68L858.76 51.68Q859.56 50.72 860.2 49.48L851.92 49.48L851.92 39L877.36 39L877.36 49.48L863.44 49.48Q863.12 50.04 862.78 50.58Q862.44 51.12 862.08 51.68L881.52 51.68L881.52 54.08L872.44 54.08Q874.48 55.92 877.02 57.28Q879.56 58.64 882.96 59.56L881.92 62.16ZM854.8 41.12L854.8 43.24L874.32 43.24L874.32 41.12L854.8 41.12ZM854.8 47.36L874.32 47.36L874.32 45.28L854.8 45.28L854.8 47.36ZM873.28 57.96Q872.08 57.12 871 56.14Q869.92 55.16 868.92 54.08L860.2 54.08Q858.36 56.16 855.84 57.96L863.2 57.96L863.2 55.12L866.04 55.2L866.04 57.96L873.28 57.96ZM921.76 45.16L921.76 47.56L897.2 47.56L897.2 45.16L907.6 45.16L907.6 38.16L898.12 38.16L898.12 35.76L907.6 35.76L907.6 31.92L910.48 32L910.48 35.76L920.64 35.76L920.64 38.16L910.48 38.16L910.48 45.16L921.76 45.16ZM897.76 57.8L898.08 59.2Q897.04 59.64 895.54 60.16Q894.04 60.68 892.42 61.2Q890.8 61.72 889.28 62.16Q887.76 62.6 886.72 62.84L885.96 59.96Q886.88 59.76 888.16 59.42Q889.44 59.08 890.84 58.64L890.84 45L886.68 45L886.68 42.16L890.84 42.16L890.84 32.4L893.64 32.48L893.64 42.16L897.64 42.16L897.64 45L893.64 45L893.64 57.72Q894.76 57.36 895.74 57.02Q896.72 56.68 897.48 56.4L897.76 57.8ZM901.24 38.24Q901.68 38.68 902.26 39.36Q902.84 40.04 903.44 40.76Q904.04 41.48 904.58 42.16Q905.12 42.84 905.48 43.32L903.52 45.16Q903.16 44.56 902.64 43.8Q902.12 43.04 901.54 42.3Q900.96 41.56 900.4 40.9Q899.84 40.24 899.4 39.8L901.24 38.24ZM912.48 43.6Q912.92 43.16 913.52 42.48Q914.12 41.8 914.74 41.04Q915.36 40.28 915.9 39.56Q916.44 38.84 916.76 38.28L918.72 39.92Q918.4 40.4 917.86 41.1Q917.32 41.8 916.72 42.54Q916.12 43.28 915.5 43.96Q914.88 44.64 914.36 45.12L912.48 43.6ZM899.16 50.16L919.48 50.16L919.48 67.88L916.6 67.88L916.6 66.16L901.96 66.16L901.96 67.88L899.16 67.88L899.16 50.16ZM901.96 52.4L901.96 63.92L916.6 63.92L916.6 52.4L901.96 52.4ZM913.8 61.48L904.52 61.48L904.52 54.8L913.8 54.8L913.8 61.48ZM911.76 56.8L906.68 56.8L906.68 59.48L911.76 59.48L911.76 56.8ZM944.84 39.56L944.84 45.24L957 45.24L957 59.24Q957 60.48 956.78 61.26Q956.56 62.04 956.06 62.52Q955.56 63 954.78 63.22Q954 63.44 952.88 63.56L950.28 63.84L949.24 61L951.88 60.84Q952.6 60.76 953.02 60.64Q953.44 60.52 953.64 60.28Q953.84 60.04 953.88 59.64Q953.92 59.24 953.92 58.64L953.92 48.08L944.84 48.08L944.84 67.92L941.8 67.92L941.8 48.08L932.52 48.08L932.52 63.8L929.64 63.8L929.64 45.24L941.8 45.24L941.8 39.56L926.04 39.56L926.04 36.76L942.04 36.76Q941.72 35.6 941.28 34.28Q940.84 32.96 940.52 32.16L943.48 31.6Q943.64 32.04 943.88 32.68Q944.12 33.32 944.34 34.04Q944.56 34.76 944.78 35.48Q945 36.2 945.16 36.76L960.84 36.76L960.84 39.56L944.84 39.56ZM976.8 57.72Q975.76 58.16 974.2 58.74Q972.64 59.32 971 59.88Q969.36 60.44 967.8 60.92Q966.24 61.4 965.16 61.68L964.56 58.8Q965.56 58.56 967 58.16Q968.44 57.76 969.96 57.24L969.96 44.28L965.48 44.28L965.48 41.4L969.96 41.4L969.96 31.72L972.84 31.84L972.84 41.4L977.2 41.4L977.2 44.28L972.84 44.28L972.84 56.28Q973.88 55.92 974.82 55.56Q975.76 55.2 976.48 54.88L976.8 57.72ZM998.28 45.32Q998.28 45.72 998.22 46.92Q998.16 48.12 998.06 49.72Q997.96 51.32 997.84 53.16Q997.72 55 997.62 56.66Q997.52 58.32 997.44 59.66Q997.36 61 997.32 61.6Q997.24 63.04 996.9 63.98Q996.56 64.92 995.84 65.48Q995.12 66.04 993.96 66.32Q992.8 66.6 991.08 66.76L988.76 66.96L987.88 63.96L990.72 63.8Q991.8 63.76 992.48 63.58Q993.16 63.4 993.58 63.04Q994 62.68 994.16 62.08Q994.32 61.48 994.4 60.56Q994.44 60.12 994.52 59.16Q994.6 58.2 994.7 56.98Q994.8 55.76 994.88 54.4Q994.96 53.04 995.06 51.8Q995.16 50.56 995.2 49.58Q995.24 48.6 995.28 48.08L991.28 48.08Q990.8 51.52 990.02 54.28Q989.24 57.04 988.02 59.4Q986.8 61.76 985.06 63.82Q983.32 65.88 980.88 67.92L978.48 66.12Q980.76 64.2 982.42 62.34Q984.08 60.48 985.24 58.38Q986.4 56.28 987.2 53.78Q988 51.28 988.56 48.08L984.56 48.08Q983.48 52.76 981.08 56.66Q978.68 60.56 974.52 63.92L972.32 62.12Q974.36 60.48 975.9 58.82Q977.44 57.16 978.58 55.46Q979.72 53.76 980.5 51.92Q981.28 50.08 981.8 48.08L977.28 48.08L977.28 45.6L990.6 37.08L978.44 37.08L978.44 34.24L995.76 34.24L995.76 37.16L982.76 45.32L998.28 45.32ZM1017.52 49.96Q1016.6 50.36 1015.4 50.86Q1014.2 51.36 1012.8 51.92L1012.8 63.2Q1012.8 64.4 1012.6 65.2Q1012.4 66 1011.88 66.5Q1011.36 67 1010.48 67.24Q1009.6 67.48 1008.24 67.56L1006.48 67.72L1005.6 64.68L1007.48 64.52Q1008.92 64.4 1009.38 64.02Q1009.84 63.64 1009.84 62.36L1009.84 53.08Q1008.28 53.64 1006.86 54.14Q1005.44 54.64 1004.4 54.96L1003.72 51.92Q1004.88 51.6 1006.48 51.08Q1008.08 50.56 1009.84 49.92L1009.84 42.24L1005.08 42.24L1005.08 39.28L1009.84 39.28L1009.84 31.92L1012.8 32.04L1012.8 39.28L1017.4 39.28L1017.4 42.24L1012.8 42.24L1012.8 48.8Q1014.08 48.32 1015.22 47.82Q1016.36 47.32 1017.24 46.88L1017.4 48.68L1017.52 49.96ZM1027.84 37.92Q1027.08 40.44 1026.16 42.74Q1025.24 45.04 1024.08 47.28L1037.4 47.28L1037.4 67.88L1034.4 67.88L1034.4 65.04L1023.24 65.04L1023.24 67.88L1020.32 67.88L1020.32 53.2Q1019.36 54.48 1018.3 55.76Q1017.24 57.04 1016 58.36L1013.68 55.92Q1017.68 52.04 1020.4 47.64Q1023.12 43.24 1024.52 37.92L1017.48 37.92L1017.48 34.88L1039.88 34.88L1039.88 37.92L1027.84 37.92ZM1034.4 50.24L1023.24 50.24L1023.24 62.12L1034.4 62.12L1034.4 50.24ZM1069.72 61.2Q1071.64 62.36 1074.02 63.24Q1076.4 64.12 1079.36 64.68L1078.08 67.36Q1074.88 66.56 1072.26 65.46Q1069.64 64.36 1067.5 62.88Q1065.36 61.4 1063.72 59.48Q1062.08 57.56 1060.84 55.12L1057.4 55.12L1057.4 64.64Q1057.8 64.48 1058.78 64.12Q1059.76 63.76 1060.82 63.34Q1061.88 62.92 1062.8 62.56Q1063.72 62.2 1064.04 62.08L1064.36 64.64Q1063.92 64.8 1062.78 65.18Q1061.64 65.56 1060.4 66Q1059.16 66.44 1058.06 66.84Q1056.96 67.24 1056.6 67.36Q1056.12 67.56 1055.52 67.8Q1054.92 68.04 1054.44 68.28L1053.4 66Q1054.08 65.6 1054.3 65.28Q1054.52 64.96 1054.52 64.56L1054.52 55.12L1050.24 55.12Q1050.04 57 1049.7 58.6Q1049.36 60.2 1048.86 61.72Q1048.36 63.24 1047.68 64.78Q1047 66.32 1046.12 68.08L1043.56 66.72Q1044.8 64.32 1045.62 62.3Q1046.44 60.28 1046.94 58Q1047.44 55.72 1047.64 52.84Q1047.84 49.96 1047.84 45.8L1047.84 33.6L1076.32 33.6L1076.32 42.36L1050.6 42.36L1050.6 47.28Q1050.6 48.8 1050.56 50.16Q1050.52 51.52 1050.44 52.72L1058.04 52.72L1058.04 48.72L1051.72 48.72L1051.72 46.32L1058.04 46.32L1058.04 43.24L1060.8 43.36L1060.8 46.32L1067.92 46.32L1067.92 43.24L1070.72 43.36L1070.72 46.32L1077.24 46.32L1077.24 48.72L1070.72 48.72L1070.72 52.72L1078.72 52.72L1078.72 55.12L1063.72 55.12Q1064.52 56.44 1065.48 57.6Q1066.44 58.76 1067.64 59.72Q1069.44 58.76 1071.1 57.7Q1072.76 56.64 1074.28 55.44L1075.84 57.36Q1074.44 58.28 1072.86 59.26Q1071.28 60.24 1069.72 61.2ZM1050.6 36.04L1050.6 39.92L1073.56 39.92L1073.56 36.04L1050.6 36.04ZM1060.8 52.72L1067.92 52.72L1067.92 48.72L1060.8 48.72L1060.8 52.72ZM1118.56 59.2Q1118.52 60.52 1118.32 61.82Q1118.12 63.12 1117.84 64.36Q1117.72 64.96 1117.4 65.42Q1117.08 65.88 1116.46 66.18Q1115.84 66.48 1114.9 66.68Q1113.96 66.88 1112.56 66.92Q1107.48 67.16 1102.4 66.92Q1101 66.88 1100 66.64Q1099 66.4 1098.38 65.86Q1097.76 65.32 1097.48 64.38Q1097.2 63.44 1097.2 61.92L1097.2 48L1093.72 49.2L1093.04 46.4L1097.2 45L1097.2 35.48L1100.04 35.68L1100.04 44.04L1104.76 42.48L1104.76 32L1107.64 32.2L1107.64 41.52L1115.96 38.72L1115.44 52.76Q1115.4 53.88 1115.2 54.62Q1115 55.36 1114.54 55.82Q1114.08 56.28 1113.32 56.52Q1112.56 56.76 1111.36 56.88L1109.76 57.04L1108.8 54.16L1110.48 54Q1111.12 53.96 1111.52 53.82Q1111.92 53.68 1112.14 53.4Q1112.36 53.12 1112.46 52.64Q1112.56 52.16 1112.6 51.4Q1112.64 51.04 1112.68 49.76Q1112.72 48.48 1112.78 47Q1112.84 45.52 1112.9 44.24Q1112.96 42.96 1112.96 42.6L1107.64 44.44L1107.64 60.32L1104.76 60.32L1104.76 45.4L1100.04 47.04L1100.04 60.68Q1100.04 61.72 1100.12 62.34Q1100.2 62.96 1100.5 63.32Q1100.8 63.68 1101.36 63.84Q1101.92 64 1102.84 64.04Q1107.12 64.28 1111.4 64.04Q1113.36 63.92 1114.18 63.62Q1115 63.32 1115.24 62.36Q1115.48 61.36 1115.6 60.28Q1115.72 59.2 1115.76 58.24L1118.56 59.2ZM1095.72 58.8L1095.92 60.04Q1094.76 60.56 1093.12 61.24Q1091.48 61.92 1089.7 62.62Q1087.92 63.32 1086.26 63.92Q1084.6 64.52 1083.48 64.88L1082.4 62.12Q1083.52 61.8 1084.98 61.3Q1086.44 60.8 1088 60.24L1088 45.72L1083.52 45.72L1083.52 42.92L1088 42.92L1088 32.8L1090.76 32.92L1090.76 42.92L1094.96 42.92L1094.96 45.72L1090.76 45.72L1090.76 59.2Q1092.16 58.64 1093.36 58.14Q1094.56 57.64 1095.48 57.24L1095.72 58.8ZM1155.32 33.8L1155.32 68.2L1152.52 68.2L1152.52 65.96L1127.64 65.96L1127.64 68.2L1124.84 68.2L1124.84 33.8L1155.32 33.8ZM1152.52 63.36L1152.52 36.44L1127.64 36.44L1127.64 63.36L1152.52 63.36ZM1142.36 47.72Q1144.56 48.68 1147.04 49.38Q1149.52 50.08 1152.36 50.72L1151.24 53.2Q1147.72 52.24 1145 51.24Q1142.28 50.24 1140.04 49.04Q1137.8 50.2 1135.08 51.26Q1132.36 52.32 1128.88 53.36L1127.8 51.12Q1130.8 50.28 1133.24 49.42Q1135.68 48.56 1137.72 47.64Q1135.44 46.12 1133.4 43.96Q1132.6 44.84 1131.72 45.62Q1130.84 46.4 1129.92 47.16L1128.56 45.4Q1129.64 44.52 1130.7 43.44Q1131.76 42.36 1132.7 41.22Q1133.64 40.08 1134.44 38.94Q1135.24 37.8 1135.84 36.76L1138.04 37.68Q1137.28 39 1136.32 40.4L1148.76 40.4L1148.76 42.52Q1147.24 44.04 1145.7 45.32Q1144.16 46.6 1142.36 47.72ZM1134.92 42.52Q1137.2 44.96 1140 46.52Q1143.24 44.76 1145.36 42.52L1134.92 42.52ZM1134.52 51.6Q1135.52 51.72 1137.02 52.02Q1138.52 52.32 1140.1 52.66Q1141.68 53 1143.18 53.38Q1144.68 53.76 1145.76 54.08L1145.4 56.52Q1144.36 56.12 1142.88 55.68Q1141.4 55.24 1139.82 54.86Q1138.24 54.48 1136.74 54.2Q1135.24 53.92 1134.2 53.8L1134.52 51.6ZM1131.68 56.56Q1133.16 56.68 1135.3 57.04Q1137.44 57.4 1139.68 57.86Q1141.92 58.32 1144 58.84Q1146.08 59.36 1147.52 59.84L1147.08 62.32Q1145.64 61.76 1143.56 61.18Q1141.48 60.6 1139.26 60.12Q1137.04 59.64 1134.94 59.28Q1132.84 58.92 1131.36 58.8L1131.68 56.56Z">
</path>
</g>
<g  mask="url(#mask-19571ea8-7f9f-4115-9439-4b64408caa62)">
<path    stroke="rgba(15, 107, 156, 1)" stroke-width="1"    d="M1326 50L1408 50">
</path>
<path    stroke="rgba(15, 107, 156, 1)" stroke-width="1"    d="M1801 49L1923 49">
</path>
<path    stroke="rgba(15, 107, 156, 1)" stroke-width="2"    d="M1419 50L1741 50">
</path>
<circle cx="1752" cy="49" r="1"   fill="#0F6B9C" >
</circle>
<circle cx="1766" cy="49" r="1"   fill="#0F6B9C" >
</circle>
<circle cx="1780" cy="49" r="1"   fill="#0F6B9C" >
</circle>
<circle cx="1794" cy="49" r="1"   fill="#0F6B9C" >
</circle>
<path d="M1377 24L1370.25 24L1384.25 37.5L1391 37.5L1377 24L1377 24L1377 24Z"   fill="#0F6B9C" >
</path>
<path d="M1362.25 24L1355.5 24L1369.5 37.5L1376.25 37.5L1362.25 24L1362.25 24L1362.25 24Z"   fill="#0F6B9C" >
</path>
<path d="M1347.5 24L1340.75 24L1354.75 37.5L1361.5 37.5L1347.5 24L1347.5 24L1347.5 24Z"   fill="#0F6B9C" >
</path>
<path d="M1332.75 24L1326 24L1340 37.5L1346.75 37.5L1332.75 24L1332.75 24L1332.75 24Z"   fill="#0F6B9C" >
</path>
<path d="M1902 24L1396 24L1410 37.5L1916 37.5L1902 24L1902 24L1902 24Z"   fill="url(#linear_fill_1e171e04-4d86-4bfe-b8a2-75d5dffc1092)" >
</path>
</g>
<g  mask="url(#mask-19571ea8-7f9f-4115-9439-4b64408caa62)">
<path    stroke="rgba(15, 107, 156, 1)" stroke-width="1"    d="M597 50L515 50">
</path>
<path    stroke="rgba(15, 107, 156, 1)" stroke-width="1"    d="M122 49L0 49">
</path>
<path    stroke="rgba(15, 107, 156, 1)" stroke-width="2"    d="M504 50L182 50">
</path>
<circle cx="173" cy="51" transform="rotate(180 172 50)" r="1"   fill="#0F6B9C" >
</circle>
<circle cx="159" cy="51" transform="rotate(180 158 50)" r="1"   fill="#0F6B9C" >
</circle>
<circle cx="145" cy="51" transform="rotate(180 144 50)" r="1"   fill="#0F6B9C" >
</circle>
<circle cx="131" cy="51" transform="rotate(180 130 50)" r="1"   fill="#0F6B9C" >
</circle>
<path d="M546 24L552.75 24L538.75 37.5L532 37.5L546 24L546 24L546 24Z"   fill="#0F6B9C" >
</path>
<path d="M560.75 24L567.5 24L553.5 37.5L546.75 37.5L560.75 24L560.75 24L560.75 24Z"   fill="#0F6B9C" >
</path>
<path d="M575.5 24L582.25 24L568.25 37.5L561.5 37.5L575.5 24L575.5 24L575.5 24Z"   fill="#0F6B9C" >
</path>
<path d="M590.25 24L597 24L583 37.5L576.25 37.5L590.25 24L590.25 24L590.25 24Z"   fill="#0F6B9C" >
</path>
<path d="M21 24L527 24L513 37.5L7 37.5L21 24L21 24L21 24Z"   fill="url(#linear_fill_0f535b4b-d4dd-4dbb-bcc2-1ebc6c03de7a)" >
</path>
</g>
<defs>
<mask id="mask-19571ea8-7f9f-4115-9439-4b64408caa62" style="mask-type:alpha" maskUnits="userSpaceOnUse">
<path fill="white" d="M3 0L1923 0L1923 100L3 100L3 0Z">
</path>
</mask>
<linearGradient id="linear_fill_22e4c669-ea71-4435-b34b-df6f709cae18" x1="756.9999976196673" y1="88.50007331371307" x2="1163.0310722589493" y2="88.50005060434341" gradientUnits="userSpaceOnUse">
<stop offset="0" stop-color="#1890FF" stop-opacity="0" />
<stop offset="0.359375" stop-color="#1890FF"  />
<stop offset="0.6875" stop-color="#1890FF"  />
<stop offset="1" stop-color="#1890FF" stop-opacity="0" />
</linearGradient>
<filter id="filter_22e4c669-ea71-4435-b34b-df6f709cae18" x="753" y="85" width="417" height="7" filterUnits="userSpaceOnUse" color-interpolation-filters="sRGB">
<feFlood flood-opacity="0" result="feFloodId_22e4c669-ea71-4435-b34b-df6f709cae18"/>
<feColorMatrix in="SourceAlpha" type="matrix" values="0 0 0 0 0 0 0 0 0 0 0 0 0 0 0 0 0 0 127 0" result="hardAlpha_22e4c669-ea71-4435-b34b-df6f709cae18"/>
<feOffset dx="0" dy="4"/>
<feGaussianBlur stdDeviation="2"/>
<feComposite in2="hardAlpha_22e4c669-ea71-4435-b34b-df6f709cae18" operator="out"/>
<feColorMatrix type="matrix" values="0 0 0 0 0 0 0 0 0 0 0 0 0 0 0 0 0 0 0.25 0"/>
<feBlend mode="normal" in2="feFloodId_22e4c669-ea71-4435-b34b-df6f709cae18" result="dropShadow_1_22e4c669-ea71-4435-b34b-df6f709cae18"/>
<feBlend mode="normal" in="SourceGraphic" in2="dropShadow_1_22e4c669-ea71-4435-b34b-df6f709cae18" result="shape_22e4c669-ea71-4435-b34b-df6f709cae18"/>
<feGaussianBlur result="gaussian_blur_22e4c669-ea71-4435-b34b-df6f709cae18" stdDeviation="1"/>
</filter>
<linearGradient id="linear_fill_0e8f900c-1edb-4d48-b5bf-baf5943ac75d" x1="1260.8038940429688" y1="50" x2="1248.0610961914062" y2="50" gradientUnits="userSpaceOnUse">
<stop offset="0" stop-color="#0F6B9C"  />
<stop offset="1" stop-color="#0F6B9C" stop-opacity="0" />
</linearGradient>
<linearGradient id="linear_fill_bda5b7f5-81f6-43e3-9f13-6fd426cbc745" x1="1318.8038940429688" y1="50" x2="1306.0610961914062" y2="50" gradientUnits="userSpaceOnUse">
<stop offset="0" stop-color="#0F6B9C"  />
<stop offset="1" stop-color="#0F6B9C" stop-opacity="0" />
</linearGradient>
<linearGradient id="linear_fill_b6b3174a-3353-4e71-b268-7e5dd23f09a5" x1="664.0661163330078" y1="72.002685546875" x2="676.8089447021484" y2="72.002685546875" gradientUnits="userSpaceOnUse">
<stop offset="0" stop-color="#0F6B9C"  />
<stop offset="1" stop-color="#0F6B9C" stop-opacity="0" />
</linearGradient>
<linearGradient id="linear_fill_9703ae26-eb37-4c7e-a345-2f2ddd0de012" x1="605.0661163330078" y1="72.002685546875" x2="617.8089447021484" y2="72.002685546875" gradientUnits="userSpaceOnUse">
<stop offset="0" stop-color="#0F6B9C"  />
<stop offset="1" stop-color="#0F6B9C" stop-opacity="0" />
</linearGradient>
<linearGradient id="linear_fill_1e171e04-4d86-4bfe-b8a2-75d5dffc1092" x1="1436" y1="29.92236328125" x2="1916" y2="29.92236328125" gradientUnits="userSpaceOnUse">
<stop offset="0" stop-color="#0F6B9C"  />
<stop offset="1" stop-color="#0F6B9C" stop-opacity="0" />
</linearGradient>
<linearGradient id="linear_fill_0f535b4b-d4dd-4dbb-bcc2-1ebc6c03de7a" x1="486.9999694824219" y1="29.92236328125" x2="7" y2="29.92236328125" gradientUnits="userSpaceOnUse">
<stop offset="0" stop-color="#0F6B9C"  />
<stop offset="1" stop-color="#0F6B9C" stop-opacity="0" />
</linearGradient>
</defs>
</svg>
