<svg xmlns="http://www.w3.org/2000/svg" xmlns:xlink="http://www.w3.org/1999/xlink" width="1923" height="100" viewBox="0 0 1923 100" fill="none">
<path d="M3 0L1923 0L1923 100L3 100L3 0Z">
</path>
<g  mask="url(#mask-19571ea8-7f9f-4115-9439-4b64408caa62)">
<path     fill="#021A26"  d="M596 49.5L620.56 75L1300.44 75L1327 49.5L1300.44 24L620.56 24L596 49.5">
</path>
<path fill-rule="evenodd"  fill="rgba(15, 107, 156, 1)"  d="M596 49.5L620.56 75L1300.44 75L1326.28 50.1931L1327 49.5L1326.28 48.8069L1300.44 24L620.56 24L596 49.5ZM620.985 25L597.388 49.5L620.985 74L1300.04 74L1325.56 49.5L1300.04 25L620.985 25Z">
</path>
<path     fill="#021A26"  d="M655 50L694.94 90L1229.07 90L1269 50L1229.07 10L694.94 10L655 50">
</path>
<path fill-rule="evenodd"  fill="rgba(15, 107, 156, 1)"  d="M655 50L694.94 90L1229.07 90L1269 50L1229.07 10L694.94 10L655 50ZM695.355 11L656.413 50L695.355 89L1228.66 89L1267.59 50L1228.66 11L695.355 11Z">
</path>
<g filter="url(#filter_22e4c669-ea71-4435-b34b-df6f709cae18)">
<ellipse cx="962.5" cy="88.5" rx="205.5" ry="1.5"   fill="url(#linear_fill_22e4c669-ea71-4435-b34b-df6f709cae18)" >
</ellipse>
</g>
<path d="M1259.49 49.9996L1259.84 49.6396L1248.34 38.6396L1247.65 39.3596L1258.77 49.9996L1247.65 60.6396L1248.34 61.3596L1259.84 50.3596L1259.49 49.9996ZM1259.49 49.9996L1259.15 49.6396L1258.77 49.9996L1259.15 50.3596L1259.49 49.9996ZM1259.85 50.3596L1260.22 49.9996L1259.85 49.6396L1259.5 49.9996L1259.85 50.3596Z" fill-rule="evenodd"  fill="url(#linear_fill_0e8f900c-1edb-4d48-b5bf-baf5943ac75d)" >
</path>
<path d="M1317.49 49.9996L1317.84 49.6396L1306.34 38.6396L1305.65 39.3596L1316.77 49.9996L1305.65 60.6396L1306.34 61.3596L1317.84 50.3596L1317.49 49.9996ZM1317.49 49.9996L1317.15 49.6396L1316.77 49.9996L1317.15 50.3596L1317.49 49.9996ZM1317.85 50.3596L1318.22 49.9996L1317.85 49.6396L1317.5 49.9996L1317.85 50.3596Z" fill-rule="evenodd"  fill="url(#linear_fill_bda5b7f5-81f6-43e3-9f13-6fd426cbc745)" >
</path>
<path d="M665.344 83.3627L676.844 72.3627L676.499 72.0027L676.844 71.6427L665.344 60.6427L664.654 61.3627L675.778 72.0027L664.654 82.6427L665.344 83.3627ZM675.778 72.0027L676.154 72.3627L676.499 72.0027L676.154 71.6427L675.778 72.0027ZM676.85 72.3627L677.22 72.0027L676.85 71.6427L676.5 72.0027L676.85 72.3627Z" fill-rule="evenodd"  fill="url(#linear_fill_b6b3174a-3353-4e71-b268-7e5dd23f09a5)" >
</path>
<path d="M606.344 83.3627L617.844 72.3627L617.499 72.0027L617.844 71.6427L606.344 60.6427L605.654 61.3627L616.778 72.0027L605.654 82.6427L606.344 83.3627ZM616.778 72.0027L617.154 72.3627L617.499 72.0027L617.154 71.6427L616.778 72.0027ZM617.85 72.3627L618.22 72.0027L617.85 71.6427L617.5 72.0027L617.85 72.3627Z" fill-rule="evenodd"  fill="url(#linear_fill_9703ae26-eb37-4c7e-a345-2f2ddd0de012)" >
</path>
</g>
<g  mask="url(#mask-19571ea8-7f9f-4115-9439-4b64408caa62)">
<path     fill="#FFFFFF"  d="M767.8 41.44L764.28 32.48L770.4 32.48L773.88 41.44L767.8 41.44ZM799.84 36L777.56 36L777.56 33.76L799.84 33.76L799.84 36ZM773.96 64.6Q773.96 65.44 773.5 66.12Q773.04 66.8 772.24 67.12L764.24 70.08L764.24 67.48L767.28 66.44Q767.8 66.24 767.8 65.72L767.8 48.2Q767.8 47.8 767.52 47.5Q767.24 47.2 766.8 47.2L764.24 47.2L764.24 45.04L771.32 45.04Q772.4 45.04 773.18 45.8Q773.96 46.56 773.96 47.68L773.96 64.6ZM785.36 59.56Q785.28 60.44 784.64 61Q784 61.56 783.2 61.88L775.68 64.92L775.68 62.4L778.4 61.28Q778.8 61.12 778.88 60.64L780.16 47.48L776.04 47.48L776.04 45.24L801.44 45.24L801.44 47.48L797.4 47.48L797.4 61.12Q797.4 61.36 797.58 61.54Q797.76 61.72 798 61.72L801.76 61.72L800.56 63.96L793.52 63.96Q792.48 63.96 791.78 63.26Q791.08 62.56 791.08 61.52L791.08 47.48L786.36 47.48L785.36 59.56ZM772.52 67.24L801.6 67.24L801.6 69.44L773.72 69.44L772.52 67.24ZM826.28 52.08L826.28 67.64Q826.28 68.68 825.58 69.38Q824.88 70.08 823.84 70.08L817.8 70.08L816.6 67.84L819.36 67.84Q819.6 67.84 819.78 67.66Q819.96 67.48 819.96 67.24L819.96 52.08L807.6 52.08Q806.96 52.08 806.46 51.84Q805.96 51.6 805.66 51.18Q805.36 50.76 805.3 50.2Q805.24 49.64 805.44 49.04L809.24 38.16L804.64 38.16L804.64 35.92L810 35.92L811.2 32.48L817.52 32.48L816.28 35.92L841.36 35.92L841.36 38.16L815.48 38.16L811.48 49.24Q811.4 49.48 811.52 49.66Q811.64 49.84 811.88 49.84L819.96 49.84L819.96 41.64L826.28 41.64L826.28 49.84L840.72 49.84L840.72 52.08L826.28 52.08ZM816.6 54.56L812.48 65.48Q812.2 66.2 811.74 66.76Q811.28 67.32 810.68 67.56L804.24 70.08L804.24 67.76L805.32 67.36Q805.84 67.16 806.08 66.56L810.32 54.56L816.6 54.56ZM841.76 67.76L841.76 70.08L835.4 67.56Q834.16 67.04 833.6 65.6L829.44 54.56L835.72 54.56L839.92 66.56Q840.16 67.12 840.64 67.32L841.76 67.76ZM881.76 34.56L881.76 36.76L874.6 36.76L874.6 38.96L868.28 38.96L868.28 36.76L857.68 36.76L857.68 38.96L851.36 38.96L851.36 36.76L844.24 36.76L844.24 34.56L851.36 34.56L851.36 32.6L857.68 32.6L857.68 34.56L868.28 34.56L868.28 32.6L874.6 32.6L874.6 34.56L881.76 34.56ZM878 58Q878.28 58.32 878.62 58.52Q878.96 58.72 879.4 58.76L881.76 59L881.76 61.24L877.68 60.88Q877.96 61.32 877.96 62L877.96 66.12Q877.96 67.16 877.24 67.88Q876.52 68.6 875.48 68.6L868.92 68.6L867.72 66.4L870.72 66.4Q871.12 66.4 871.38 66.14Q871.64 65.88 871.64 65.48L871.64 62.64Q871.64 62.24 871.38 61.98Q871.12 61.72 870.72 61.72L866.16 61.72L866.16 70.12L859.8 70.12L859.8 61.72L855.28 61.72Q854.92 61.72 854.66 61.98Q854.4 62.24 854.4 62.64L854.4 68.6L848.04 68.6L848.04 62.2Q848.04 61.44 848.4 60.84L844.24 61.24L844.24 59L846.68 58.76Q847.12 58.72 847.44 58.52Q847.76 58.32 848.08 58L850.8 55.08L845.24 55.08L845.24 52.84L852.92 52.84L854.8 50.8L850.56 50.8Q849.52 50.8 848.82 50.1Q848.12 49.4 848.12 48.36L848.12 42.24Q848.12 41.2 848.82 40.5Q849.52 39.8 850.56 39.8L875.48 39.8Q876.52 39.8 877.22 40.5Q877.92 41.2 877.92 42.24L877.92 48.36Q877.92 49.4 877.22 50.1Q876.52 50.8 875.48 50.8L861.28 50.8L859.44 52.84L880.72 52.84L880.72 55.08L875.2 55.08L878 58ZM855.16 42.04Q854.92 42.04 854.74 42.22Q854.56 42.4 854.56 42.64L854.56 44.16L871.44 44.16L871.44 42.64Q871.44 42.4 871.26 42.22Q871.08 42.04 870.84 42.04L855.16 42.04ZM854.56 47.96Q854.56 48.2 854.74 48.38Q854.92 48.56 855.16 48.56L870.84 48.56Q871.08 48.56 871.26 48.38Q871.44 48.2 871.44 47.96L871.44 46.44L854.56 46.44L854.56 47.96ZM872.72 59.52L872.24 59.04L868.68 55.08L857.44 55.08L853.96 59Q853.84 59.16 853.7 59.28Q853.56 59.4 853.44 59.52L859.8 59.52L859.8 56.96L866.16 56.96L866.16 59.52L872.72 59.52ZM893.8 38.52L897.04 38.52L897.04 40.8L893.8 40.8L893.8 65.68L897.04 65L897.04 67.36L884.24 70.12L884.24 67.76L887.48 67.08L887.48 40.8L884.24 40.8L884.24 38.52L887.48 38.52L887.48 32.6L893.8 32.6L893.8 38.52ZM921.76 47.08L921.76 49.32L897.76 49.32L897.76 47.08L899.88 47.08L898.92 40.52L904.68 40.52L905.64 47.08L906.68 47.08L906.68 38.08L898.32 38.08L898.32 35.84L906.68 35.84L906.68 32.6L912.92 32.6L912.92 35.84L921.24 35.84L921.24 38.08L912.92 38.08L912.92 47.08L913.96 47.08L914.92 40.52L920.68 40.52L919.72 47.08L921.76 47.08ZM918.84 51.96Q919.88 51.96 920.58 52.66Q921.28 53.36 921.28 54.4L921.28 66.92Q921.28 67.96 920.58 68.66Q919.88 69.36 918.84 69.36L900.68 69.36Q899.64 69.36 898.94 68.66Q898.24 67.96 898.24 66.92L898.24 54.4Q898.24 53.36 898.94 52.66Q899.64 51.96 900.68 51.96L918.84 51.96ZM915.6 54.8Q915.6 54.56 915.42 54.38Q915.24 54.2 915 54.2L904.52 54.2Q904.28 54.2 904.1 54.38Q903.92 54.56 903.92 54.8L903.92 66.52Q903.92 66.76 904.1 66.94Q904.28 67.12 904.52 67.12L915 67.12Q915.24 67.12 915.42 66.94Q915.6 66.76 915.6 66.52L915.6 54.8ZM911.68 56.16Q912.72 56.16 913.42 56.86Q914.12 57.56 914.12 58.6L914.12 62.68Q914.12 63.76 913.42 64.46Q912.72 65.16 911.68 65.16L907.84 65.16Q906.8 65.16 906.1 64.46Q905.4 63.76 905.4 62.68L905.4 58.6Q905.4 57.56 906.1 56.86Q906.8 56.16 907.84 56.16L911.68 56.16ZM910.64 58.88Q910.64 58.64 910.46 58.46Q910.28 58.28 910.04 58.28L909.48 58.28Q909.24 58.28 909.06 58.46Q908.88 58.64 908.88 58.88L908.88 62.44Q908.88 62.68 909.06 62.86Q909.24 63.04 909.48 63.04L910.04 63.04Q910.28 63.04 910.46 62.86Q910.64 62.68 910.64 62.44L910.64 58.88ZM946.16 39.76L946.16 45.52L956.76 45.52Q957.8 45.52 958.52 46.24Q959.24 46.96 959.24 48L959.24 63.2Q959.24 64.24 958.52 64.96Q957.8 65.68 956.76 65.68L949.4 65.68L948.2 63.48L952.04 63.48Q952.44 63.48 952.7 63.22Q952.96 62.96 952.96 62.56L952.96 48.64Q952.96 48.24 952.7 47.98Q952.44 47.72 952.04 47.72L946.16 47.72L946.16 70.12L939.84 70.12L939.84 47.72L933.96 47.72Q933.6 47.72 933.34 47.98Q933.08 48.24 933.08 48.64L933.08 65.68L926.76 65.68L926.76 48.2Q926.76 47.08 927.54 46.3Q928.32 45.52 929.44 45.52L939.84 45.52L939.84 39.76L924.24 39.76L924.24 37.56L940.32 37.56L938.76 32.6L945.08 32.6L946.64 37.56L961.76 37.56L961.76 39.76L946.16 39.76ZM973.88 38.52L977.24 38.52L977.24 40.8L973.88 40.8L973.88 65.96L977.24 65.32L977.24 67.64L964.24 70.12L964.24 67.76L967.56 67.12L967.56 40.8L964.24 40.8L964.24 38.52L967.56 38.52L967.56 32.6L973.88 32.6L973.88 38.52ZM998.76 44.32Q999.8 44.32 1000.5 45.02Q1001.2 45.72 1001.2 46.76L1001.2 67.68Q1001.2 68.72 1000.5 69.42Q999.8 70.12 998.76 70.12L992.72 70.12L991.64 67.88L994.36 67.88Q994.6 67.88 994.78 67.7Q994.96 67.52 994.96 67.28L994.96 49.56L989.92 70.12L984.64 70.12L989.92 48.76L994.96 48.76L994.96 47.16Q994.96 46.92 994.78 46.74Q994.6 46.56 994.36 46.56L983.24 46.56Q982.48 46.56 981.98 46.14Q981.48 45.72 981.3 45.14Q981.12 44.56 981.3 43.94Q981.48 43.32 982.12 42.88L991.64 36.52Q991.84 36.36 991.76 36.12Q991.68 35.88 991.44 35.88L978.84 35.88L978.84 33.64L997.64 33.64Q998.36 33.64 998.88 34.04Q999.4 34.44 999.58 35Q999.76 35.56 999.58 36.16Q999.4 36.76 998.8 37.16L988.96 43.68Q988.76 43.84 988.84 44.08Q988.92 44.32 989.16 44.32L998.76 44.32ZM988.12 48.76L982.88 70.12L977.44 70.12L982.68 48.76L988.12 48.76ZM1014.36 39.04L1017.96 39.04L1017.96 41.28L1014.36 41.28L1014.36 53.04L1017.96 52.36L1017.96 54.6L1014.36 55.28L1014.36 67.64Q1014.36 68.68 1013.66 69.38Q1012.96 70.08 1011.92 70.08L1005.4 70.08L1004.24 67.84L1007.52 67.84Q1007.76 67.84 1007.94 67.66Q1008.12 67.48 1008.12 67.24L1008.12 56.48L1004.24 57.24L1004.24 55L1008.12 54.24L1008.12 41.28L1004.24 41.28L1004.24 39.04L1008.12 39.04L1008.12 32.6L1014.36 32.6L1014.36 39.04ZM1026.8 44.72Q1026.6 45.36 1026.28 45.8L1038.24 45.8Q1039.28 45.8 1039.98 46.5Q1040.68 47.2 1040.68 48.24L1040.68 67.4Q1040.68 68.44 1039.98 69.14Q1039.28 69.84 1038.24 69.84L1023.76 69.84Q1022.72 69.84 1022.02 69.14Q1021.32 68.44 1021.32 67.4L1021.32 48.24Q1021.32 47.92 1021.36 47.76L1018.52 48.32L1018.52 46.08L1019.6 45.84Q1020.2 45.72 1020.4 45.12L1023.2 35.72L1018.96 35.72L1018.96 33.48L1041.76 33.48L1041.76 35.72L1029.52 35.72L1026.8 44.72ZM1026.92 67Q1026.92 67.24 1027.1 67.42Q1027.28 67.6 1027.52 67.6L1034.48 67.6Q1034.72 67.6 1034.9 67.42Q1035.08 67.24 1035.08 67L1035.08 48.64Q1035.08 48.4 1034.9 48.22Q1034.72 48.04 1034.48 48.04L1027.52 48.04Q1027.28 48.04 1027.1 48.22Q1026.92 48.4 1026.92 48.64L1026.92 67ZM1062.12 66.56Q1062.12 67.08 1062.64 67L1069.16 65.8L1069.16 68.04L1058.4 70.12Q1057.36 70.32 1056.58 69.7Q1055.8 69.08 1055.8 68L1055.8 56.08L1052.84 56.08L1052.84 64.28Q1052.84 65.84 1051.94 67.02Q1051.04 68.2 1049.52 68.64L1044.24 70.12L1044.24 67.88L1044.88 67.72Q1045.64 67.52 1046.08 66.92Q1046.52 66.32 1046.52 65.52L1046.52 35.84Q1046.52 34.8 1047.22 34.1Q1047.92 33.4 1048.96 33.4L1078.56 33.4Q1079.6 33.4 1080.3 34.1Q1081 34.8 1081 35.84L1081 40.52Q1081 41.56 1080.3 42.26Q1079.6 42.96 1078.56 42.96L1052.84 42.96L1052.84 53.8L1058 53.8L1058 49.68L1053.88 49.68L1053.88 47.4L1058 47.4L1058 44.68L1064.32 44.68L1064.32 47.4L1069.28 47.4L1069.28 44.68L1075.6 44.68L1075.6 47.4L1079.76 47.4L1079.76 49.68L1075.6 49.68L1075.6 53.8L1081.36 53.8L1081.36 56.08L1062.12 56.08L1062.12 66.56ZM1052.84 40.72L1074.08 40.72Q1074.32 40.72 1074.5 40.54Q1074.68 40.36 1074.68 40.12L1074.68 36.24Q1074.68 36 1074.5 35.82Q1074.32 35.64 1074.08 35.64L1053.44 35.64Q1053.2 35.64 1053.02 35.82Q1052.84 36 1052.84 36.24L1052.84 40.72ZM1064.32 53.8L1069.28 53.8L1069.28 49.68L1064.32 49.68L1064.32 53.8ZM1081.76 67.88L1081.76 70.12L1075.36 69.12Q1074.48 68.96 1073.76 68.52Q1073.04 68.08 1072.56 67.28L1066.56 57.84L1072.88 57.84L1075.04 61.12L1081.16 59.28L1081.16 61.52L1076.24 63L1078.76 66.84Q1079.04 67.28 1079.56 67.4L1081.76 67.88ZM1093.64 38.52L1096.76 38.52L1096.76 40.8L1093.64 40.8L1093.64 65.92L1096.76 65.32L1096.76 67.64L1084.2 70.12L1084.2 67.76L1087.32 67.16L1087.32 40.8L1084.2 40.8L1084.2 38.52L1087.32 38.52L1087.32 32.6L1093.64 32.6L1093.64 38.52ZM1121.76 67.52L1120.56 69.76L1102 69.76Q1100.96 69.76 1100.26 69.06Q1099.56 68.36 1099.56 67.32L1099.56 42.16L1097.48 42.64L1097.48 40.4L1099.56 39.92L1099.56 34.6L1105.16 34.6L1105.16 38.6L1107.28 38.12L1107.28 32.6L1113.2 32.6L1113.2 36.76L1118.32 35.56Q1119.36 35.32 1120.06 35.98Q1120.76 36.64 1120.76 37.68L1120.76 56.92Q1120.76 57.96 1120.06 58.66Q1119.36 59.36 1118.32 59.36L1114.52 59.36L1113.32 57.12L1114.76 57.12Q1115 57.12 1115.18 56.94Q1115.36 56.76 1115.36 56.52L1115.36 39.08Q1115.36 38.88 1115.22 38.76Q1115.08 38.64 1114.88 38.68L1113.2 39.08L1113.2 62.92L1107.28 62.92L1107.28 40.4L1105.16 40.88L1105.16 66.92Q1105.16 67.16 1105.34 67.34Q1105.52 67.52 1105.76 67.52L1121.76 67.52ZM1158 33.36Q1159.04 33.36 1159.74 34.06Q1160.44 34.76 1160.44 35.8L1160.44 66.88Q1160.44 67.92 1159.74 68.62Q1159.04 69.32 1158 69.32L1127.96 69.32Q1126.92 69.32 1126.22 68.62Q1125.52 67.92 1125.52 66.88L1125.52 35.8Q1125.52 34.76 1126.22 34.06Q1126.92 33.36 1127.96 33.36L1158 33.36ZM1154.16 36.2Q1154.16 35.96 1153.98 35.78Q1153.8 35.6 1153.56 35.6L1132.4 35.6Q1132.16 35.6 1131.98 35.78Q1131.8 35.96 1131.8 36.2L1131.8 66.48Q1131.8 66.72 1131.98 66.9Q1132.16 67.08 1132.4 67.08L1153.56 67.08Q1153.8 67.08 1153.98 66.9Q1154.16 66.72 1154.16 66.48L1154.16 36.2ZM1150.32 50.84Q1150.52 51.04 1150.78 51.14Q1151.04 51.24 1151.32 51.32L1153.24 52.08L1153.24 54.52L1146.04 52.72Q1145.4 52.56 1144.8 52.3Q1144.2 52.04 1143.72 51.6L1143.16 51.08L1142.68 51.52Q1142.16 52 1141.56 52.24Q1140.96 52.48 1140.28 52.68L1135.44 53.92L1142.32 53.92L1147.32 57.32Q1147.64 57.52 1147.92 57.62Q1148.2 57.72 1148.52 57.8L1151.36 58.72L1151.36 61L1143.28 59.08Q1142.6 58.92 1141.98 58.68Q1141.36 58.44 1140.8 58L1135.12 54L1133.08 54.52L1133.08 52.12L1135.08 51.32Q1135.36 51.24 1135.62 51.14Q1135.88 51.04 1136.08 50.84L1139.44 47.6L1137.36 45.64L1132.68 45.64L1136.36 37.12L1142.68 37.12L1141.84 39.04L1151.24 39.04Q1151.84 39.04 1152.3 39.32Q1152.76 39.6 1152.94 40.04Q1153.12 40.48 1153.04 40.98Q1152.96 41.48 1152.48 41.92L1146.76 47.52L1150.32 50.84ZM1143.08 44.12L1145.32 41.96Q1145.56 41.76 1145.48 41.52Q1145.4 41.28 1145.12 41.28L1140.88 41.28L1140.16 42.96L1141.84 42.96L1143.08 44.12ZM1146.16 62.76Q1146.4 62.92 1146.66 62.98Q1146.92 63.04 1147.24 63.12L1152.12 64.2L1152.12 66.44L1142 64.52Q1140.6 64.28 1139.6 63.6L1132.88 59.28L1140.2 59.28L1146.16 62.76Z">
</path>
</g>
<g  mask="url(#mask-19571ea8-7f9f-4115-9439-4b64408caa62)">
<path    stroke="rgba(15, 107, 156, 1)" stroke-width="1"    d="M1326 50L1408 50">
</path>
<path    stroke="rgba(15, 107, 156, 1)" stroke-width="1"    d="M1801 49L1923 49">
</path>
<path    stroke="rgba(15, 107, 156, 1)" stroke-width="2"    d="M1419 50L1741 50">
</path>
<circle cx="1752" cy="49" r="1"   fill="#0F6B9C" >
</circle>
<circle cx="1766" cy="49" r="1"   fill="#0F6B9C" >
</circle>
<circle cx="1780" cy="49" r="1"   fill="#0F6B9C" >
</circle>
<circle cx="1794" cy="49" r="1"   fill="#0F6B9C" >
</circle>
<path d="M1377 24L1370.25 24L1384.25 37.5L1391 37.5L1377 24L1377 24L1377 24Z"   fill="#0F6B9C" >
</path>
<path d="M1362.25 24L1355.5 24L1369.5 37.5L1376.25 37.5L1362.25 24L1362.25 24L1362.25 24Z"   fill="#0F6B9C" >
</path>
<path d="M1347.5 24L1340.75 24L1354.75 37.5L1361.5 37.5L1347.5 24L1347.5 24L1347.5 24Z"   fill="#0F6B9C" >
</path>
<path d="M1332.75 24L1326 24L1340 37.5L1346.75 37.5L1332.75 24L1332.75 24L1332.75 24Z"   fill="#0F6B9C" >
</path>
<path d="M1902 24L1396 24L1410 37.5L1916 37.5L1902 24L1902 24L1902 24Z"   fill="url(#linear_fill_1e171e04-4d86-4bfe-b8a2-75d5dffc1092)" >
</path>
</g>
<g  mask="url(#mask-19571ea8-7f9f-4115-9439-4b64408caa62)">
<path    stroke="rgba(15, 107, 156, 1)" stroke-width="1"    d="M597 50L515 50">
</path>
<path    stroke="rgba(15, 107, 156, 1)" stroke-width="1"    d="M122 49L0 49">
</path>
<path    stroke="rgba(15, 107, 156, 1)" stroke-width="2"    d="M504 50L182 50">
</path>
<circle cx="173" cy="51" transform="rotate(180 172 50)" r="1"   fill="#0F6B9C" >
</circle>
<circle cx="159" cy="51" transform="rotate(180 158 50)" r="1"   fill="#0F6B9C" >
</circle>
<circle cx="145" cy="51" transform="rotate(180 144 50)" r="1"   fill="#0F6B9C" >
</circle>
<circle cx="131" cy="51" transform="rotate(180 130 50)" r="1"   fill="#0F6B9C" >
</circle>
<path d="M546 24L552.75 24L538.75 37.5L532 37.5L546 24L546 24L546 24Z"   fill="#0F6B9C" >
</path>
<path d="M560.75 24L567.5 24L553.5 37.5L546.75 37.5L560.75 24L560.75 24L560.75 24Z"   fill="#0F6B9C" >
</path>
<path d="M575.5 24L582.25 24L568.25 37.5L561.5 37.5L575.5 24L575.5 24L575.5 24Z"   fill="#0F6B9C" >
</path>
<path d="M590.25 24L597 24L583 37.5L576.25 37.5L590.25 24L590.25 24L590.25 24Z"   fill="#0F6B9C" >
</path>
<path d="M21 24L527 24L513 37.5L7 37.5L21 24L21 24L21 24Z"   fill="url(#linear_fill_0f535b4b-d4dd-4dbb-bcc2-1ebc6c03de7a)" >
</path>
</g>
<defs>
<mask id="mask-19571ea8-7f9f-4115-9439-4b64408caa62" style="mask-type:alpha" maskUnits="userSpaceOnUse">
<path fill="white" d="M3 0L1923 0L1923 100L3 100L3 0Z">
</path>
</mask>
<linearGradient id="linear_fill_22e4c669-ea71-4435-b34b-df6f709cae18" x1="756.9999976196673" y1="88.50007331371307" x2="1163.0310722589493" y2="88.50005060434341" gradientUnits="userSpaceOnUse">
<stop offset="0" stop-color="#1890FF" stop-opacity="0" />
<stop offset="0.359375" stop-color="#1890FF"  />
<stop offset="0.6875" stop-color="#1890FF"  />
<stop offset="1" stop-color="#1890FF" stop-opacity="0" />
</linearGradient>
<filter id="filter_22e4c669-ea71-4435-b34b-df6f709cae18" x="753" y="85" width="417" height="7" filterUnits="userSpaceOnUse" color-interpolation-filters="sRGB">
<feFlood flood-opacity="0" result="feFloodId_22e4c669-ea71-4435-b34b-df6f709cae18"/>
<feColorMatrix in="SourceAlpha" type="matrix" values="0 0 0 0 0 0 0 0 0 0 0 0 0 0 0 0 0 0 127 0" result="hardAlpha_22e4c669-ea71-4435-b34b-df6f709cae18"/>
<feOffset dx="0" dy="4"/>
<feGaussianBlur stdDeviation="2"/>
<feComposite in2="hardAlpha_22e4c669-ea71-4435-b34b-df6f709cae18" operator="out"/>
<feColorMatrix type="matrix" values="0 0 0 0 0 0 0 0 0 0 0 0 0 0 0 0 0 0 0.25 0"/>
<feBlend mode="normal" in2="feFloodId_22e4c669-ea71-4435-b34b-df6f709cae18" result="dropShadow_1_22e4c669-ea71-4435-b34b-df6f709cae18"/>
<feBlend mode="normal" in="SourceGraphic" in2="dropShadow_1_22e4c669-ea71-4435-b34b-df6f709cae18" result="shape_22e4c669-ea71-4435-b34b-df6f709cae18"/>
<feGaussianBlur result="gaussian_blur_22e4c669-ea71-4435-b34b-df6f709cae18" stdDeviation="1"/>
</filter>
<linearGradient id="linear_fill_0e8f900c-1edb-4d48-b5bf-baf5943ac75d" x1="1260.8038940429688" y1="50" x2="1248.0610961914062" y2="50" gradientUnits="userSpaceOnUse">
<stop offset="0" stop-color="#0F6B9C"  />
<stop offset="1" stop-color="#0F6B9C" stop-opacity="0" />
</linearGradient>
<linearGradient id="linear_fill_bda5b7f5-81f6-43e3-9f13-6fd426cbc745" x1="1318.8038940429688" y1="50" x2="1306.0610961914062" y2="50" gradientUnits="userSpaceOnUse">
<stop offset="0" stop-color="#0F6B9C"  />
<stop offset="1" stop-color="#0F6B9C" stop-opacity="0" />
</linearGradient>
<linearGradient id="linear_fill_b6b3174a-3353-4e71-b268-7e5dd23f09a5" x1="664.0661163330078" y1="72.002685546875" x2="676.8089447021484" y2="72.002685546875" gradientUnits="userSpaceOnUse">
<stop offset="0" stop-color="#0F6B9C"  />
<stop offset="1" stop-color="#0F6B9C" stop-opacity="0" />
</linearGradient>
<linearGradient id="linear_fill_9703ae26-eb37-4c7e-a345-2f2ddd0de012" x1="605.0661163330078" y1="72.002685546875" x2="617.8089447021484" y2="72.002685546875" gradientUnits="userSpaceOnUse">
<stop offset="0" stop-color="#0F6B9C"  />
<stop offset="1" stop-color="#0F6B9C" stop-opacity="0" />
</linearGradient>
<linearGradient id="linear_fill_1e171e04-4d86-4bfe-b8a2-75d5dffc1092" x1="1436" y1="29.92236328125" x2="1916" y2="29.92236328125" gradientUnits="userSpaceOnUse">
<stop offset="0" stop-color="#0F6B9C"  />
<stop offset="1" stop-color="#0F6B9C" stop-opacity="0" />
</linearGradient>
<linearGradient id="linear_fill_0f535b4b-d4dd-4dbb-bcc2-1ebc6c03de7a" x1="486.9999694824219" y1="29.92236328125" x2="7" y2="29.92236328125" gradientUnits="userSpaceOnUse">
<stop offset="0" stop-color="#0F6B9C"  />
<stop offset="1" stop-color="#0F6B9C" stop-opacity="0" />
</linearGradient>
</defs>
</svg>
