<svg xmlns="http://www.w3.org/2000/svg" xmlns:xlink="http://www.w3.org/1999/xlink" width="379.0001220703125" height="45" viewBox="0 0 379.0001220703125 45" fill="none">
<path d="M0.00012207 42.5L379 42.5L379 3.5L0.00012207 3.5L0.00012207 42.5Z"   fill="url(#linear_fill_2_81)" >
</path>
<path d="M0.00012207 42L379 42L379 40L0.00012207 40L0.00012207 42Z"   fill="url(#linear_fill_2_82)" >
</path>
<g opacity="0.5">
<path d="M0.00012207 45L379 45L379 44L0.00012207 44L0.00012207 45Z"   fill="url(#linear_fill_2_83)" >
</path>
</g>
<g opacity="0.5">
<path d="M0.00012207 1L379 1L379 0L0.00012207 0L0.00012207 1Z"   fill="url(#linear_fill_2_84)" >
</path>
</g>
<path d="M0.00012207 5L379 5L379 3L0.00012207 3L0.00012207 5Z"   fill="url(#linear_fill_2_85)" >
</path>
<g >
<path     fill="#FFFFFF"  d="M137.972 18.3613L137.972 19.8373L143.282 19.8373L143.282 26.4793Q143.264 27.0373 143.156 27.4423Q143.048 27.8473 142.742 28.1353Q142.436 28.4233 141.887 28.6033Q141.338 28.7833 140.474 28.8733L139.268 28.9813L138.566 26.6233Q138.8 26.6053 139.052 26.5873Q139.268 26.5693 139.547 26.5423Q139.826 26.5153 140.132 26.4793Q140.42 26.4433 140.6 26.3713Q140.78 26.2993 140.879 26.1463Q140.978 25.9933 141.023 25.7683Q141.068 25.5433 141.068 25.2013L141.068 22.0333L137.972 22.0333L137.972 30.3133L135.722 30.3133L135.722 22.0333L132.842 22.0333L132.842 28.5493L130.61 28.5493L130.61 19.8373L135.722 19.8373L135.722 18.3613L129.08 18.3613L129.08 16.2373L135.74 16.2373L135.254 14.3833L137.63 14.2753L138.08 16.2373L144.596 16.2373L144.596 18.3613L137.972 18.3613ZM161.948 19.9633L161.426 27.8473Q161.336 28.4413 161.201 28.8553Q161.066 29.2693 160.787 29.5393Q160.508 29.8093 160.049 29.9623Q159.59 30.1153 158.888 30.1873L157.628 30.3133L156.944 28.0633L158.456 27.9193Q158.96 27.8653 159.14 27.6223Q159.32 27.3793 159.374 26.8033Q159.392 26.5873 159.446 25.9393Q159.5 25.2913 159.563 24.5353Q159.626 23.7793 159.68 23.0683Q159.734 22.3573 159.752 21.9973L158.906 21.9973Q158.762 22.9513 158.483 24.0493Q158.204 25.1473 157.691 26.2903Q157.178 27.4333 156.386 28.5763Q155.594 29.7193 154.424 30.7453L152.804 29.2693Q153.92 28.3873 154.667 27.4063Q155.414 26.4253 155.891 25.4533Q156.368 24.4813 156.629 23.5903Q156.89 22.6993 157.016 21.9973L155.918 21.9973Q155.432 23.7073 154.496 25.4893Q153.56 27.2713 151.886 28.9273L150.248 27.5593Q150.608 27.2533 150.923 26.9383Q151.238 26.6233 151.526 26.2993Q151.076 26.4973 150.482 26.7313Q149.888 26.9653 149.249 27.1993Q148.61 27.4333 147.962 27.6313Q147.314 27.8293 146.738 27.9733L146.396 25.8673Q146.72 25.7953 147.287 25.6423Q147.854 25.4893 148.52 25.2733L148.52 20.3413L146.936 20.3413L146.936 18.2173L148.52 18.2173L148.52 14.4193L150.698 14.5093L150.698 18.2173L152.066 18.2173L152.066 20.3413L150.698 20.3413L150.698 24.5353Q150.95 24.4453 151.193 24.3463Q151.436 24.2473 151.634 24.1573L151.814 25.9573Q152.606 24.9853 153.128 23.9773Q153.65 22.9693 153.974 21.9973L152.408 21.9973L152.408 19.9633Q153.11 19.6213 153.785 19.2343Q154.46 18.8473 155.063 18.4783Q155.666 18.1093 156.161 17.7673Q156.656 17.4253 156.998 17.1733L153.146 17.1733L153.146 15.0493L160.724 15.0493L160.724 17.1733Q160.31 17.4793 159.725 17.8663Q159.14 18.2533 158.528 18.6403Q157.916 19.0273 157.34 19.3783Q156.764 19.7293 156.332 19.9633L161.948 19.9633ZM179.84 20.4133L164.648 20.4133L164.648 18.5593L168.554 18.5593L168.266 17.3713L165.584 17.3713L165.584 15.5533L171.164 15.5533L170.858 14.2393L173.234 14.1313L173.54 15.5533L178.922 15.5533L178.922 17.3713L176.384 17.3713L175.97 18.5593L179.84 18.5593L179.84 20.4133ZM170.462 17.3713Q170.534 17.6593 170.615 17.9653Q170.696 18.2713 170.768 18.5593L173.702 18.5593L174.098 17.3713L170.462 17.3713ZM180.146 26.5873Q180.11 27.0373 180.056 27.4513Q180.002 27.8653 179.912 28.2253Q179.786 28.8013 179.642 29.1523Q179.498 29.5033 179.237 29.7193Q178.976 29.9353 178.562 30.0343Q178.148 30.1333 177.464 30.1693Q176.132 30.2593 174.818 30.1693Q173.72 30.0973 173.243 29.6383Q172.766 29.1793 172.766 28.1353L172.766 26.1553L171.218 26.1553Q171.11 27.0733 170.723 27.7753Q170.336 28.4773 169.607 29.0353Q168.878 29.5933 167.807 30.0253Q166.736 30.4573 165.278 30.8533L164.324 28.7293Q165.476 28.4773 166.295 28.2343Q167.114 27.9913 167.654 27.6943Q168.194 27.3973 168.482 27.0193Q168.77 26.6413 168.878 26.1553L166.394 26.1553L166.394 21.1153L177.986 21.1153L177.986 26.1553L174.944 26.1553L174.944 27.5953Q174.944 28.0453 175.097 28.1803Q175.25 28.3153 175.682 28.3513Q176.384 28.4053 177.014 28.3513Q177.284 28.3333 177.446 28.3063Q177.608 28.2793 177.716 28.2163Q177.824 28.1533 177.878 28.0183Q177.932 27.8833 177.986 27.6313Q178.076 27.2713 178.139 26.7493Q178.202 26.2273 178.22 25.8673L180.146 26.5873ZM168.68 24.3373L175.7 24.3373L175.7 22.9513L168.68 22.9513L168.68 24.3373ZM197.822 23.4733L196.058 23.4733L196.058 26.8753L190.82 26.8753L190.82 28.0453Q190.82 28.7113 190.703 29.1343Q190.586 29.5573 190.316 29.8003Q190.046 30.0433 189.623 30.1513Q189.2 30.2593 188.588 30.3133L187.148 30.4393L186.41 28.4413L187.778 28.2973Q188.066 28.2793 188.237 28.2253Q188.408 28.1713 188.507 28.0813Q188.606 27.9913 188.633 27.8293Q188.66 27.6673 188.66 27.4153L188.66 26.8753L183.548 26.8753L183.548 24.9853L188.66 24.9853L188.66 23.4733L182.018 23.4733L182.018 21.5113L188.66 21.5113L188.66 20.3413L184.394 20.3413L184.394 19.8013Q183.962 20.1613 183.548 20.4853L182.09 18.7573Q182.774 18.2893 183.467 17.6683Q184.16 17.0473 184.781 16.3903Q185.402 15.7333 185.924 15.0853Q186.446 14.4373 186.824 13.8973L189.092 14.4913Q189.002 14.6713 188.894 14.8333Q188.786 14.9953 188.66 15.1753L194.456 15.1753L194.456 17.1913L193.142 18.4153L196.058 18.4153L196.058 21.5113L197.822 21.5113L197.822 23.4733ZM187.076 17.2273Q186.806 17.5333 186.518 17.8213Q186.23 18.1093 185.924 18.4153L190.19 18.4153L191.54 17.2273L187.076 17.2273ZM190.82 21.5113L193.934 21.5113L193.934 20.3413L190.82 20.3413L190.82 21.5113ZM193.934 23.4733L190.82 23.4733L190.82 24.9853L193.934 24.9853L193.934 23.4733ZM215.696 25.8313Q215.696 26.3893 215.642 26.9833Q215.588 27.5773 215.498 28.0453Q215.354 28.6933 215.174 29.0893Q214.994 29.4853 214.67 29.7193Q214.346 29.9533 213.851 30.0613Q213.356 30.1693 212.618 30.2233Q211.07 30.3313 209.522 30.2233Q208.892 30.1693 208.46 30.0613Q208.028 29.9533 207.74 29.7103Q207.452 29.4673 207.308 29.0533Q207.164 28.6393 207.128 27.9913Q206.498 28.3693 205.823 28.7383Q205.148 29.1073 204.41 29.4673L203.402 27.7393Q202.376 29.1793 200.954 30.6733L199.19 28.9093Q200.36 27.7033 201.233 26.6143Q202.106 25.5253 202.727 24.4003Q203.348 23.2753 203.735 22.0603Q204.122 20.8453 204.338 19.3873L200.486 19.3873L200.486 17.0833L204.572 17.0833Q204.608 16.4533 204.644 15.7333Q204.68 15.0133 204.698 14.4373L207.11 14.6173Q207.074 15.1933 207.029 15.8503Q206.984 16.5073 206.948 17.0833L210.404 17.0833Q209.972 16.6693 209.549 16.2823Q209.126 15.8953 208.82 15.6253L210.44 14.2213Q210.674 14.4373 211.016 14.7433Q211.358 15.0493 211.718 15.3913Q212.078 15.7333 212.438 16.0753Q212.798 16.4173 213.068 16.6873L212.636 17.0833L215.39 17.0833L215.39 19.3873L209.378 19.3873L209.378 23.5813Q211.376 21.8173 212.708 19.7293L214.382 21.2953Q213.374 22.7893 212.141 24.0763Q210.908 25.3633 209.378 26.4973L209.378 26.9293Q209.378 27.2533 209.414 27.4423Q209.45 27.6313 209.558 27.7393Q209.666 27.8473 209.855 27.9013Q210.044 27.9553 210.35 27.9913Q211.25 28.0993 212.132 27.9913Q212.51 27.9373 212.735 27.8833Q212.96 27.8293 213.095 27.7303Q213.23 27.6313 213.293 27.4783Q213.356 27.3253 213.392 27.0733Q213.464 26.6593 213.518 26.0563Q213.572 25.4533 213.59 25.0393L215.696 25.8313ZM203.762 27.2173Q204.698 26.7673 205.535 26.2903Q206.372 25.8133 207.128 25.2913L207.128 19.3873L206.696 19.3873Q206.516 20.5753 206.255 21.6283Q205.994 22.6813 205.634 23.6353Q205.274 24.5893 204.806 25.4713Q204.338 26.3533 203.762 27.2173ZM221.168 22.6093Q221.168 24.1033 221.024 25.2283Q220.88 26.3533 220.583 27.2983Q220.286 28.2433 219.854 29.0713Q219.422 29.8993 218.864 30.7813L217.01 29.5933Q217.604 28.6933 217.991 27.9373Q218.378 27.1813 218.603 26.3623Q218.828 25.5433 218.927 24.5533Q219.026 23.5633 219.026 22.1953L219.026 17.3533L223.958 17.3533L223.958 14.3473L226.244 14.4373L226.244 15.0673L231.41 15.0673L231.41 16.7953L226.244 16.7953L226.244 17.3533L233.012 17.3533L233.012 19.0273L232.436 20.4853L230.312 20.1793L230.816 19.0813L221.168 19.0813L221.168 22.6093ZM225.632 24.0313Q224.822 23.9953 224.489 23.5993Q224.156 23.2033 224.156 22.3213L224.156 21.9973L221.51 22.1593L221.402 20.4313L224.156 20.2693L224.156 19.4233L226.1 19.5133L226.1 20.1613L229.556 19.9633L229.646 21.6373L226.1 21.8713Q226.136 22.1413 226.262 22.2583Q226.388 22.3753 226.766 22.4113Q228.044 22.5193 229.322 22.4113Q229.736 22.3753 229.97 22.2673Q230.204 22.1593 230.294 21.8713Q230.402 21.5293 230.438 21.1693L232.4 21.7273Q232.364 21.9073 232.337 22.0963Q232.31 22.2853 232.256 22.5373Q232.148 23.0233 231.986 23.3113Q231.824 23.5993 231.581 23.7523Q231.338 23.9053 230.996 23.9593Q230.654 24.0133 230.168 24.0313Q227.9 24.1393 225.632 24.0313ZM233.354 27.1993Q233.336 27.4873 233.291 27.8383Q233.246 28.1893 233.192 28.4953Q233.102 29.0173 232.949 29.3593Q232.796 29.7013 232.562 29.9083Q232.328 30.1153 232.004 30.2053Q231.68 30.2953 231.23 30.3313Q230.042 30.4213 228.854 30.3313Q227.99 30.2773 227.639 29.8723Q227.288 29.4673 227.288 28.4413L227.288 26.3353L224.606 26.3353L224.606 26.6593Q224.606 27.2173 224.471 27.7213Q224.336 28.2253 223.994 28.7203Q223.652 29.2153 223.067 29.7283Q222.482 30.2413 221.582 30.8173L220.268 29.2513Q221.132 28.8013 221.6 28.4233Q222.068 28.0453 222.293 27.6493Q222.518 27.2533 222.554 26.8213Q222.59 26.3893 222.59 25.8313L222.59 24.5713L229.322 24.5713L229.322 27.5773Q229.322 27.9913 229.439 28.1263Q229.556 28.2613 229.862 28.2973Q230.168 28.3153 230.492 28.2973Q230.816 28.2613 230.978 28.1803Q231.14 28.0993 231.212 27.7753Q231.284 27.4333 231.32 27.1633Q231.356 26.8933 231.392 26.5513L233.354 27.1993ZM242.75 21.9433L240.77 21.9433L240.77 19.0993L242.786 19.0993Q242.75 18.7393 242.687 18.3523Q242.624 17.9653 242.588 17.6773L240.95 17.6773L240.95 15.7693L244.46 15.7693L244.136 14.3833L246.386 14.2753L246.692 15.7693L250.31 15.7693L250.31 17.6773L248.636 17.6773Q248.6 17.9833 248.537 18.3613Q248.474 18.7393 248.402 19.0993L250.544 19.0993L250.544 21.9433L248.564 21.9433L248.564 20.8993L242.75 20.8993L242.75 21.9433ZM244.604 24.3193Q244.586 24.4993 244.568 24.6613Q244.55 24.8233 244.532 24.9853L249.536 24.9853Q249.518 25.2913 249.5 25.7233Q249.482 26.1553 249.455 26.6323Q249.428 27.1093 249.392 27.5683Q249.356 28.0273 249.32 28.4053Q249.266 28.9993 249.122 29.3503Q248.978 29.7013 248.708 29.9083Q248.438 30.1153 248.006 30.1963Q247.574 30.2773 246.944 30.3313L246.044 30.4033L245.414 28.5673L246.422 28.4953Q246.98 28.4413 247.151 28.3333Q247.322 28.2253 247.376 27.8653Q247.376 27.8113 247.394 27.6853Q247.412 27.5593 247.421 27.4063Q247.43 27.2533 247.448 27.1093Q247.466 26.9653 247.484 26.8933L244.136 26.8933Q243.776 28.0093 242.966 28.9273Q242.156 29.8453 240.626 30.7813L239.384 29.2153Q240.32 28.7113 240.914 28.1713Q241.508 27.6313 241.859 27.0373Q242.21 26.4433 242.363 25.7773Q242.516 25.1113 242.606 24.3193L240.626 24.3193L240.626 22.5913L239.654 23.4193Q239.492 23.0773 239.33 22.7803Q239.168 22.4833 239.024 22.2133L239.024 30.4753L237.044 30.4753L237.044 23.5813Q236.774 24.2113 236.468 24.7963Q236.162 25.3813 235.856 25.9213L234.398 24.6793Q234.704 24.2113 235.046 23.6173Q235.388 23.0233 235.721 22.3573Q236.054 21.6913 236.369 20.9713Q236.684 20.2513 236.936 19.5313L235.37 19.5313L235.37 17.4793L237.044 17.4793L237.044 14.3833L239.024 14.4553L239.024 17.4793L240.446 17.4793L240.446 19.5313L239.024 19.5313L239.024 20.4493L239.438 20.1433Q239.834 20.6833 240.23 21.2593Q240.626 21.8353 240.914 22.3393L240.806 22.4293L244.658 22.4293L244.388 21.3133L246.512 21.2233L246.764 22.4293L250.778 22.4293L250.778 24.3193L244.604 24.3193ZM244.514 17.6773Q244.586 18.0193 244.64 18.4063Q244.694 18.7933 244.73 19.0993L246.53 19.0993Q246.602 18.7393 246.674 18.3703Q246.746 18.0013 246.782 17.6773L244.514 17.6773Z">
</path>
</g>
<path d="M5.00006 3L0.000122547 3L2.50009 10L5.00006 3Z"   fill="#0098EB" >
</path>
<path d="M379 3L374 3L376.5 10L379 3Z"   fill="#0098EB" >
</path>
<path d="M0 42L5 42L2.5 35L0 42Z"   fill="#0098EB" >
</path>
<path d="M374 42L379 42L376.5 35L374 42Z"   fill="#0098EB" >
</path>
<defs>
<linearGradient id="linear_fill_2_81" x1="0.0001220703125" y1="23" x2="379.0001220703125" y2="23" gradientUnits="userSpaceOnUse">
<stop offset="0" stop-color="#0098EB" stop-opacity="0" />
<stop offset="0.5348" stop-color="#0098EB" stop-opacity="0.5" />
<stop offset="1" stop-color="#0098EB" stop-opacity="0" />
</linearGradient>
<linearGradient id="linear_fill_2_82" x1="0.0001220703125" y1="41" x2="379.0001220703125" y2="41" gradientUnits="userSpaceOnUse">
<stop offset="0.0694" stop-color="#0098EB" stop-opacity="0" />
<stop offset="0.5348" stop-color="#0098EB"  />
<stop offset="0.8958" stop-color="#0098EB" stop-opacity="0" />
</linearGradient>
<linearGradient id="linear_fill_2_83" x1="0.0001220703125" y1="44.5" x2="379.0001220703125" y2="44.5" gradientUnits="userSpaceOnUse">
<stop offset="0.1249" stop-color="#0098EB" stop-opacity="0" />
<stop offset="0.5209" stop-color="#0098EB"  />
<stop offset="0.8333" stop-color="#0098EB" stop-opacity="0" />
</linearGradient>
<linearGradient id="linear_fill_2_84" x1="0.0001220703125" y1="0.5" x2="379.0001220703125" y2="0.5" gradientUnits="userSpaceOnUse">
<stop offset="0.1249" stop-color="#0098EB" stop-opacity="0" />
<stop offset="0.5209" stop-color="#0098EB"  />
<stop offset="0.8333" stop-color="#0098EB" stop-opacity="0" />
</linearGradient>
<linearGradient id="linear_fill_2_85" x1="0.0001220703125" y1="4" x2="379.0001220703125" y2="4" gradientUnits="userSpaceOnUse">
<stop offset="0.0694" stop-color="#0098EB" stop-opacity="0" />
<stop offset="0.5348" stop-color="#0098EB"  />
<stop offset="0.8958" stop-color="#0098EB" stop-opacity="0" />
</linearGradient>
</defs>
</svg>
