<svg xmlns="http://www.w3.org/2000/svg" xmlns:xlink="http://www.w3.org/1999/xlink" width="379.0001220703125" height="45" viewBox="0 0 379.0001220703125 45" fill="none">
<path d="M0.00012207 42.5L379 42.5L379 3.5L0.00012207 3.5L0.00012207 42.5Z"   fill="url(#linear_fill_3_2)" >
</path>
<path d="M0.00012207 42L379 42L379 40L0.00012207 40L0.00012207 42Z"   fill="url(#linear_fill_3_3)" >
</path>
<g opacity="0.5">
<path d="M0.00012207 45L379 45L379 44L0.00012207 44L0.00012207 45Z"   fill="url(#linear_fill_3_4)" >
</path>
</g>
<g opacity="0.5">
<path d="M0.00012207 1L379 1L379 0L0.00012207 0L0.00012207 1Z"   fill="url(#linear_fill_3_5)" >
</path>
</g>
<path d="M0.00012207 5L379 5L379 3L0.00012207 3L0.00012207 5Z"   fill="url(#linear_fill_3_6)" >
</path>
<g >
<path     fill="#FFFFFF"  d="M131.978 17.6593L131.564 19.1353L134.678 19.1353L134.714 28.2613Q134.714 28.8733 134.633 29.2783Q134.552 29.6833 134.336 29.9353Q134.12 30.1873 133.724 30.3133Q133.328 30.4393 132.716 30.4933L131.366 30.6193L130.772 28.7833L131.96 28.6753Q132.338 28.6393 132.455 28.4593Q132.572 28.2793 132.572 27.6493L132.572 23.8873L131.834 24.8413Q131.69 24.6973 131.537 24.5353Q131.384 24.3733 131.204 24.1933L131.204 28.4593L124.67 28.4593L124.67 24.3013Q124.454 24.4633 124.256 24.6073Q124.058 24.7513 123.878 24.8773L123.122 23.9233L123.122 30.2413L121.106 30.2413L121.106 19.1353L124.166 19.1353L123.824 17.6593L120.17 17.6593L120.17 15.6793L126.758 15.6793L126.506 14.4013L128.918 14.2393L129.17 15.6793L135.596 15.6793L135.596 17.6593L131.978 17.6593ZM129.836 17.6593L125.948 17.6593L126.29 19.1353L129.44 19.1353L129.836 17.6593ZM123.122 23.2033Q123.806 22.7353 124.508 22.1683Q125.21 21.6013 125.696 21.0793L123.122 21.0793L123.122 23.2033ZM130.322 23.3653Q129.872 22.9513 129.458 22.5913Q129.044 22.2313 128.738 22.0333L129.692 21.0793L126.182 21.0793L127.316 21.9433Q127.01 22.3033 126.623 22.6543Q126.236 23.0053 125.822 23.3653L130.322 23.3653ZM132.572 21.0793L130.322 21.0793Q130.556 21.2593 130.853 21.4933Q131.15 21.7273 131.456 21.9793Q131.762 22.2313 132.05 22.4923Q132.338 22.7533 132.572 22.9693L132.572 21.0793ZM129.26 25.2193L126.632 25.2193L126.632 26.5693L129.26 26.5693L129.26 25.2193ZM153.776 26.1913Q153.74 26.6593 153.695 27.2803Q153.65 27.9013 153.578 28.3333Q153.488 28.9093 153.362 29.2783Q153.236 29.6473 153.011 29.8543Q152.786 30.0613 152.426 30.1513Q152.066 30.2413 151.472 30.2773Q150.968 30.2953 150.464 30.2773Q149.978 30.2593 149.645 30.1513Q149.312 30.0433 149.096 29.8093Q148.88 29.5753 148.781 29.1883Q148.682 28.8013 148.682 28.2073L148.682 17.3893L146.666 17.3893L146.666 21.5473Q146.666 23.3293 146.585 24.6073Q146.504 25.8853 146.252 26.8843Q146 27.8833 145.496 28.7293Q144.992 29.5753 144.164 30.5113L142.202 29.2513Q142.85 28.5493 143.273 27.9643Q143.696 27.3793 143.948 26.7403Q144.2 26.1013 144.317 25.3363Q144.434 24.5713 144.47 23.5093L143.48 24.5893Q143.228 24.1933 142.886 23.7253Q142.544 23.2573 142.202 22.8253L142.202 30.4033L140.06 30.4033L140.06 23.8513Q139.7 24.5533 139.295 25.2283Q138.89 25.9033 138.44 26.5333L137.108 25.0213Q137.432 24.5713 137.81 23.9863Q138.188 23.4013 138.584 22.6993Q138.98 21.9973 139.34 21.1963Q139.7 20.3953 140.006 19.5313L137.972 19.5313L137.972 17.3533L140.06 17.3533L140.06 14.4193L142.202 14.5093L142.202 17.3533L144.11 17.3533L144.11 19.5313L142.202 19.5313L142.202 21.2593L142.778 20.7013Q143.156 21.0613 143.624 21.5653Q144.092 22.0693 144.488 22.5733L144.488 21.5293L144.488 15.1033L150.842 15.1033L150.842 27.5773Q150.842 27.9013 150.896 27.9823Q150.95 28.0633 151.04 28.0633L151.328 28.0633Q151.454 28.0633 151.526 27.9553Q151.598 27.8473 151.652 27.4153Q151.688 27.1093 151.724 26.6683Q151.76 26.2273 151.796 25.5973L153.776 26.1913ZM170.84 25.4173Q170.318 25.3273 169.805 25.2463Q169.292 25.1653 168.806 25.0753L168.806 30.1153L157.862 30.1153L157.862 25.1833Q157.322 25.3093 156.773 25.4083Q156.224 25.5073 155.648 25.5973L155.036 23.5633Q156.728 23.3653 158.213 23.0323Q159.698 22.6993 160.994 22.2853Q160.13 21.7813 159.374 21.2053Q158.348 21.9973 157.34 22.6453L156.098 21.0073Q156.638 20.7013 157.232 20.2963Q157.826 19.8913 158.402 19.4143Q158.978 18.9373 159.518 18.4063Q160.058 17.8753 160.472 17.3173L158.348 17.3173L158.348 19.0273L156.08 19.0273L156.08 15.4273L161.966 15.4273L161.732 14.2033L164.144 14.0773L164.378 15.4273L170.606 15.4273L170.606 19.0273L168.608 19.0273L168.608 20.3233L168.626 20.3233Q168.194 20.7373 167.438 21.2413Q166.682 21.7453 165.656 22.3213Q166.898 22.6993 168.302 22.9423Q169.706 23.1853 171.344 23.3293L170.84 25.4173ZM161.12 17.3173L162.488 18.0553Q162.398 18.1813 162.308 18.2893Q162.218 18.3973 162.128 18.5233L168.338 18.5233L168.338 17.3173L161.12 17.3173ZM161.444 20.3233Q162.362 20.9533 163.298 21.4033Q164.522 20.8453 165.332 20.3233L161.444 20.3233ZM167.366 24.7513Q166.25 24.4813 165.242 24.1483Q164.234 23.8153 163.316 23.4373Q162.452 23.7973 161.525 24.1213Q160.598 24.4453 159.554 24.7513L167.366 24.7513ZM166.61 26.6953L160.076 26.6953L160.076 28.1713L166.61 28.1713L166.61 26.6953ZM187.688 16.2193L187.688 23.5453L177.374 23.5453Q177.32 24.3013 177.194 25.1203Q177.068 25.9393 176.816 26.8123Q176.564 27.6853 176.177 28.6483Q175.79 29.6113 175.214 30.6553L172.91 29.7553Q173.594 28.6393 174.035 27.6583Q174.476 26.6773 174.719 25.7233Q174.962 24.7693 175.052 23.7973Q175.142 22.8253 175.142 21.7093L175.142 16.2193L180.2 16.2193L179.822 14.3473L182.522 14.2213L182.864 16.2193L187.688 16.2193ZM185.384 18.3433L177.428 18.3433L177.428 21.3673L185.384 21.3673L185.384 18.3433ZM200.378 25.9933Q201.26 26.8573 202.808 27.6043Q204.356 28.3513 206.606 28.7113L206.012 31.0513Q203.492 30.3673 201.683 29.5213Q199.874 28.6753 198.812 27.4873Q197.858 28.6213 196.013 29.4223Q194.168 30.2233 191.36 30.9613L190.676 28.7113Q193.124 28.2613 194.681 27.5593Q196.238 26.8573 196.958 25.9933L191.684 25.9933L191.684 24.0673L191.99 24.0673L191.09 22.0153Q194.024 21.1873 196.148 19.8733L191.648 19.8733L191.648 17.9653L194.564 17.9653Q194.096 17.3893 193.547 16.7593Q192.998 16.1293 192.584 15.7513L194.078 14.4193Q194.348 14.6893 194.699 15.0493Q195.05 15.4093 195.401 15.7963Q195.752 16.1833 196.085 16.5613Q196.418 16.9393 196.634 17.2453L195.878 17.9653L197.588 17.9653L197.588 14.5273L199.838 14.6353L199.838 17.9653L201.458 17.9653L200.792 17.4253Q201.062 17.1553 201.377 16.7773Q201.692 16.3993 202.007 15.9943Q202.322 15.5893 202.619 15.1753Q202.916 14.7613 203.132 14.4193L204.806 15.6433Q204.518 16.1113 204.023 16.7503Q203.528 17.3893 203.042 17.9653L205.742 17.9653L205.742 19.8733L200.792 19.8733Q201.386 20.0893 202.07 20.3413Q202.754 20.5933 203.447 20.8633Q204.14 21.1333 204.806 21.4033Q205.472 21.6733 206.03 21.9073L205.472 24.0133Q204.878 23.7433 204.185 23.4283Q203.492 23.1133 202.763 22.7983Q202.034 22.4833 201.314 22.1953Q200.594 21.9073 199.982 21.6553L200.738 19.8733L199.838 19.8733L199.838 22.6633L197.588 22.6633L197.588 21.4393Q197.066 21.8173 196.49 22.1413Q195.914 22.4653 195.257 22.7803Q194.6 23.0953 193.817 23.4103Q193.034 23.7253 192.098 24.0673L197.552 24.0673L197.552 23.1853L199.838 23.2933L199.838 24.0673L205.724 24.0673L205.724 25.9933L200.378 25.9933ZM219.368 22.2673L220.502 22.1413Q220.862 22.1053 221.042 21.9523Q221.222 21.7993 221.222 21.3313L221.222 14.7613L223.328 14.8513L223.328 21.9073Q223.328 22.5373 223.238 22.9423Q223.148 23.3473 222.905 23.5993Q222.662 23.8513 222.257 23.9773Q221.852 24.1033 221.24 24.1573L219.998 24.2833L219.368 22.2673ZM224.192 28.1533L224.192 30.2053L208.622 30.2053L208.622 28.1533L215.426 28.1533L215.426 26.7853L210.494 26.7853L210.494 25.0573L208.802 23.7973Q209.216 23.3653 209.522 23.0053Q209.828 22.6453 210.044 22.3213Q210.26 21.9973 210.395 21.6733Q210.53 21.3493 210.602 20.9893L208.928 20.9893L208.928 18.9913L210.746 18.9913L210.746 18.7753L210.746 17.0653L209.378 17.0653L209.378 15.0493L217.658 15.0493L217.658 17.0653L216.326 17.0653L216.326 18.9913L217.766 18.9913L217.766 20.9893L216.326 20.9893L216.326 23.8153L214.256 23.8153L214.256 20.9893L212.726 20.9893Q212.654 21.5653 212.51 22.0603Q212.366 22.5553 212.132 23.0143Q211.898 23.4733 211.565 23.9053Q211.232 24.3373 210.782 24.8053L215.426 24.8053L215.426 24.0133L217.64 24.1033L217.64 24.8053L222.374 24.8053L222.374 26.7853L217.64 26.7853L217.64 28.1533L224.192 28.1533ZM220.25 21.6913L218.162 21.6913L218.162 15.6793L220.25 15.7693L220.25 21.6913ZM212.834 18.9913L214.256 18.9913L214.256 17.0653L212.834 17.0653L212.834 18.7933L212.834 18.9913ZM234.794 18.8473L234.794 21.3313L240.536 21.3313L240.536 29.9173L227.792 29.9173L227.792 21.3313L232.382 21.3313L232.382 14.4193L234.794 14.5093L234.794 16.5793L241.652 16.5793L241.652 18.8473L234.794 18.8473ZM238.214 23.6353L230.114 23.6353L230.114 27.6133L238.214 27.6133L238.214 23.6353ZM259.706 25.4533Q259.706 25.5973 259.679 25.8853Q259.652 26.1733 259.616 26.5153Q259.58 26.8573 259.544 27.1633Q259.508 27.4693 259.49 27.6313Q259.4 28.2793 259.238 28.7293Q259.076 29.1793 258.761 29.4673Q258.446 29.7553 257.96 29.8993Q257.474 30.0433 256.736 30.0793Q255.44 30.1333 254.162 30.0793Q253.568 30.0613 253.118 29.9263Q252.668 29.7913 252.38 29.5033Q252.092 29.2153 251.948 28.7383Q251.804 28.2613 251.804 27.5413L251.804 14.5633L254.09 14.6713L254.09 20.3773Q254.594 19.9993 255.143 19.5493Q255.692 19.0993 256.214 18.6313Q256.736 18.1633 257.195 17.6953Q257.654 17.2273 257.996 16.8133L259.508 18.6313Q258.968 19.2073 258.284 19.8103Q257.6 20.4133 256.88 20.9983Q256.16 21.5833 255.44 22.1053Q254.72 22.6273 254.09 23.0233L254.09 26.7853Q254.09 27.1093 254.117 27.2983Q254.144 27.4873 254.234 27.5953Q254.324 27.7033 254.504 27.7483Q254.684 27.7933 255.008 27.8113Q255.656 27.8473 256.358 27.8113Q256.682 27.7933 256.871 27.7663Q257.06 27.7393 257.168 27.6403Q257.276 27.5413 257.33 27.3433Q257.384 27.1453 257.438 26.8033Q257.51 26.2813 257.546 25.7143Q257.582 25.1473 257.582 24.8053L259.706 25.4533ZM247.61 27.0733Q247.988 26.9293 248.447 26.7403Q248.906 26.5513 249.392 26.3533Q249.878 26.1553 250.346 25.9753Q250.814 25.7953 251.192 25.6513L251.372 28.0633Q251.102 28.1713 250.616 28.3693Q250.13 28.5673 249.554 28.8013Q248.978 29.0353 248.366 29.2873Q247.754 29.5393 247.25 29.7733Q246.908 29.9173 246.548 30.0883Q246.188 30.2593 245.882 30.4213L244.928 28.1173Q245.234 27.9553 245.288 27.7663Q245.342 27.5773 245.342 27.1993L245.342 14.7433L247.61 14.8513L247.61 19.2433L251.228 19.2433L251.228 21.5473L247.61 21.5473L247.61 27.0733Z">
</path>
</g>
<path d="M5.00006 3L0.000122547 3L2.50009 10L5.00006 3Z"   fill="#0098EB" >
</path>
<path d="M379 3L374 3L376.5 10L379 3Z"   fill="#0098EB" >
</path>
<path d="M0 42L5 42L2.5 35L0 42Z"   fill="#0098EB" >
</path>
<path d="M374 42L379 42L376.5 35L374 42Z"   fill="#0098EB" >
</path>
<defs>
<linearGradient id="linear_fill_3_2" x1="0.0001220703125" y1="23" x2="379.0001220703125" y2="23" gradientUnits="userSpaceOnUse">
<stop offset="0" stop-color="#0098EB" stop-opacity="0" />
<stop offset="0.5348" stop-color="#0098EB" stop-opacity="0.5" />
<stop offset="1" stop-color="#0098EB" stop-opacity="0" />
</linearGradient>
<linearGradient id="linear_fill_3_3" x1="0.0001220703125" y1="41" x2="379.0001220703125" y2="41" gradientUnits="userSpaceOnUse">
<stop offset="0.0694" stop-color="#0098EB" stop-opacity="0" />
<stop offset="0.5348" stop-color="#0098EB"  />
<stop offset="0.8958" stop-color="#0098EB" stop-opacity="0" />
</linearGradient>
<linearGradient id="linear_fill_3_4" x1="0.0001220703125" y1="44.5" x2="379.0001220703125" y2="44.5" gradientUnits="userSpaceOnUse">
<stop offset="0.1249" stop-color="#0098EB" stop-opacity="0" />
<stop offset="0.5209" stop-color="#0098EB"  />
<stop offset="0.8333" stop-color="#0098EB" stop-opacity="0" />
</linearGradient>
<linearGradient id="linear_fill_3_5" x1="0.0001220703125" y1="0.5" x2="379.0001220703125" y2="0.5" gradientUnits="userSpaceOnUse">
<stop offset="0.1249" stop-color="#0098EB" stop-opacity="0" />
<stop offset="0.5209" stop-color="#0098EB"  />
<stop offset="0.8333" stop-color="#0098EB" stop-opacity="0" />
</linearGradient>
<linearGradient id="linear_fill_3_6" x1="0.0001220703125" y1="4" x2="379.0001220703125" y2="4" gradientUnits="userSpaceOnUse">
<stop offset="0.0694" stop-color="#0098EB" stop-opacity="0" />
<stop offset="0.5348" stop-color="#0098EB"  />
<stop offset="0.8958" stop-color="#0098EB" stop-opacity="0" />
</linearGradient>
</defs>
</svg>
