<svg xmlns="http://www.w3.org/2000/svg" xmlns:xlink="http://www.w3.org/1999/xlink" width="379.0001220703125" height="45" viewBox="0 0 379.0001220703125 45" fill="none">
<path d="M0.00012207 42.5L379 42.5L379 3.5L0.00012207 3.5L0.00012207 42.5Z"   fill="url(#linear_fill_2_55)" >
</path>
<path d="M0.00012207 42L379 42L379 40L0.00012207 40L0.00012207 42Z"   fill="url(#linear_fill_2_56)" >
</path>
<g opacity="0.5">
<path d="M0.00012207 45L379 45L379 44L0.00012207 44L0.00012207 45Z"   fill="url(#linear_fill_2_57)" >
</path>
</g>
<g opacity="0.5">
<path d="M0.00012207 1L379 1L379 0L0.00012207 0L0.00012207 1Z"   fill="url(#linear_fill_2_58)" >
</path>
</g>
<path d="M0.00012207 5L379 5L379 3L0.00012207 3L0.00012207 5Z"   fill="url(#linear_fill_2_59)" >
</path>
<g >
<path     fill="#FFFFFF"  d="M162.946 26.2633L160.858 26.2633L160.858 18.5053L163.9 18.5053L164.206 17.1193L160.984 17.1193L160.984 15.0313L170.434 15.0313L170.434 17.1193L166.528 17.1193Q166.474 17.4433 166.402 17.7943Q166.33 18.1453 166.24 18.5053L169.768 18.5053L169.768 26.2813L167.698 26.2813L167.698 20.4673L162.946 20.4673L162.946 26.2633ZM160.732 27.0013Q160.57 27.0373 160.138 27.1273Q159.706 27.2173 159.139 27.3523Q158.572 27.4873 157.942 27.6403Q157.312 27.7933 156.745 27.9373Q156.178 28.0813 155.737 28.1983Q155.296 28.3153 155.116 28.3693L154.702 26.0653Q154.864 26.0293 155.431 25.9123Q155.998 25.7953 156.754 25.5973L156.754 17.5873L155.314 17.5873L155.314 15.4093L160.552 15.4093L160.552 17.5873L158.932 17.5873L158.932 25.0753L160.426 24.6973L160.57 25.7413L160.732 27.0013ZM169.606 30.5653Q169.246 30.2593 168.751 29.8543Q168.256 29.4493 167.689 29.0083Q167.122 28.5673 166.537 28.1263Q165.952 27.6853 165.43 27.3073Q164.8 28.2253 163.612 29.0443Q162.424 29.8633 160.48 30.6913L159.256 28.6933Q160.948 28.0813 161.938 27.5413Q162.928 27.0013 163.441 26.3983Q163.954 25.7953 164.107 25.0573Q164.26 24.3193 164.26 23.2933L164.26 20.9713L166.366 21.0793L166.366 23.7433Q166.366 24.7513 166.186 25.5433Q166.708 25.8673 167.347 26.2723Q167.986 26.6773 168.625 27.1003Q169.264 27.5233 169.84 27.9193Q170.416 28.3153 170.83 28.6393L169.606 30.5653ZM186.742 14.9593L186.742 30.2053L174.412 30.2053L174.412 14.9593L186.742 14.9593ZM176.752 17.2093L176.752 19.4233L184.402 19.4233L184.402 17.2093L176.752 17.2093ZM176.752 21.5653L176.752 23.6893L184.402 23.6893L184.402 21.5653L176.752 21.5653ZM184.402 27.9733L184.402 25.8673L176.752 25.8673L176.752 27.9733L184.402 27.9733ZM205.606 14.7073L205.606 28.1353Q205.606 28.7653 205.48 29.1793Q205.354 29.5933 205.084 29.8633Q204.814 30.1333 204.382 30.2773Q203.95 30.4213 203.338 30.4933L201.628 30.7093L200.89 28.4593L202.492 28.2433Q202.996 28.1713 203.194 28.0003Q203.392 27.8293 203.392 27.2893L203.392 14.6173L205.606 14.7073ZM191.08 14.9953L199.486 14.9953L199.486 17.1733L195.616 17.1733Q195.508 17.5873 195.391 17.9923Q195.274 18.3973 195.148 18.7933L199.144 18.7933L199.144 20.8453Q198.748 22.4293 198.19 23.7523Q197.632 25.0753 196.795 26.2543Q195.958 27.4333 194.806 28.5313Q193.654 29.6293 192.088 30.7633L190.324 29.1253Q191.8 28.1173 192.889 27.1993Q193.978 26.2813 194.761 25.3093Q195.544 24.3373 196.075 23.2663Q196.606 22.1953 196.966 20.8993L194.356 20.8993Q194.248 21.1693 194.131 21.4303Q194.014 21.6913 193.888 21.9433Q194.302 22.2673 194.761 22.6543Q195.22 23.0413 195.544 23.3833L194.356 25.2733Q194.032 24.9493 193.627 24.5803Q193.222 24.2113 192.808 23.8693Q192.502 24.3373 192.187 24.7873Q191.872 25.2373 191.512 25.6693L190.018 23.9953Q190.504 23.3473 191.008 22.5283Q191.512 21.7093 191.962 20.8003Q192.412 19.8913 192.772 18.9643Q193.132 18.0373 193.348 17.1733L191.08 17.1733L191.08 14.9953ZM202.078 26.4073L199.846 26.4073L199.846 16.2013L202.078 16.2913L202.078 26.4073ZM215.434 24.5893Q215.146 24.8413 214.867 25.0753Q214.588 25.3093 214.282 25.5253L214.282 28.1893Q214.948 27.9373 215.587 27.7213Q216.226 27.5053 216.982 27.2173L217.27 29.3413Q217.054 29.3953 216.676 29.4943Q216.298 29.5933 215.812 29.7283Q215.326 29.8633 214.777 30.0253Q214.228 30.1873 213.706 30.3673Q213.382 30.4753 213.049 30.6013Q212.716 30.7273 212.41 30.8353L211.618 29.1613Q211.96 28.8553 212.05 28.5853Q212.14 28.3153 212.14 28.0993L212.14 26.9653Q211.384 27.4333 210.529 27.8563Q209.674 28.2793 208.684 28.7293L207.694 26.6593Q209.548 25.9393 211.024 25.1473Q212.5 24.3553 213.778 23.3653L208.342 23.3653L208.342 21.5113L214.912 21.5113L214.912 20.5573L209.728 20.5573L209.728 18.6493L214.912 18.6493L214.912 17.6953L209.044 17.6953L209.044 15.8233L214.912 15.8233L214.912 14.4373L217.09 14.5093L217.09 15.8233L222.94 15.8233L222.94 17.6953L217.09 17.6953L217.09 18.6493L222.22 18.6493L222.22 20.5573L217.09 20.5573L217.09 21.5113L223.624 21.5113L223.624 23.3653L221.698 23.3653L222.598 24.7333Q221.896 25.2373 221.185 25.6873Q220.474 26.1373 219.79 26.5333Q220.618 27.0553 221.653 27.4513Q222.688 27.8473 224.038 28.2073L223.012 30.1153Q221.518 29.6113 220.366 29.0533Q219.214 28.4953 218.305 27.8293Q217.396 27.1633 216.694 26.3713Q215.992 25.5793 215.434 24.5893ZM218.188 25.1833Q219.736 24.3193 221.05 23.3653L216.964 23.3653Q217.504 24.4273 218.188 25.1833Z">
</path>
</g>
<path d="M5.00006 3L0.000122547 3L2.50009 10L5.00006 3Z"   fill="#0098EB" >
</path>
<path d="M379 3L374 3L376.5 10L379 3Z"   fill="#0098EB" >
</path>
<path d="M0 42L5 42L2.5 35L0 42Z"   fill="#0098EB" >
</path>
<path d="M374 42L379 42L376.5 35L374 42Z"   fill="#0098EB" >
</path>
<defs>
<linearGradient id="linear_fill_2_55" x1="0.0001220703125" y1="23" x2="379.0001220703125" y2="23" gradientUnits="userSpaceOnUse">
<stop offset="0" stop-color="#0098EB" stop-opacity="0" />
<stop offset="0.5348" stop-color="#0098EB" stop-opacity="0.5" />
<stop offset="1" stop-color="#0098EB" stop-opacity="0" />
</linearGradient>
<linearGradient id="linear_fill_2_56" x1="0.0001220703125" y1="41" x2="379.0001220703125" y2="41" gradientUnits="userSpaceOnUse">
<stop offset="0.0694" stop-color="#0098EB" stop-opacity="0" />
<stop offset="0.5348" stop-color="#0098EB"  />
<stop offset="0.8958" stop-color="#0098EB" stop-opacity="0" />
</linearGradient>
<linearGradient id="linear_fill_2_57" x1="0.0001220703125" y1="44.5" x2="379.0001220703125" y2="44.5" gradientUnits="userSpaceOnUse">
<stop offset="0.1249" stop-color="#0098EB" stop-opacity="0" />
<stop offset="0.5209" stop-color="#0098EB"  />
<stop offset="0.8333" stop-color="#0098EB" stop-opacity="0" />
</linearGradient>
<linearGradient id="linear_fill_2_58" x1="0.0001220703125" y1="0.5" x2="379.0001220703125" y2="0.5" gradientUnits="userSpaceOnUse">
<stop offset="0.1249" stop-color="#0098EB" stop-opacity="0" />
<stop offset="0.5209" stop-color="#0098EB"  />
<stop offset="0.8333" stop-color="#0098EB" stop-opacity="0" />
</linearGradient>
<linearGradient id="linear_fill_2_59" x1="0.0001220703125" y1="4" x2="379.0001220703125" y2="4" gradientUnits="userSpaceOnUse">
<stop offset="0.0694" stop-color="#0098EB" stop-opacity="0" />
<stop offset="0.5348" stop-color="#0098EB"  />
<stop offset="0.8958" stop-color="#0098EB" stop-opacity="0" />
</linearGradient>
</defs>
</svg>
