<svg xmlns="http://www.w3.org/2000/svg" xmlns:xlink="http://www.w3.org/1999/xlink" width="379.0001220703125" height="45" viewBox="0 0 379.0001220703125 45" fill="none">
<path d="M0.00012207 42.5L379 42.5L379 3.5L0.00012207 3.5L0.00012207 42.5Z"   fill="url(#linear_fill_1_3)" >
</path>
<path d="M0.00012207 42L379 42L379 40L0.00012207 40L0.00012207 42Z"   fill="url(#linear_fill_1_4)" >
</path>
<g opacity="0.5">
<path d="M0.00012207 45L379 45L379 44L0.00012207 44L0.00012207 45Z"   fill="url(#linear_fill_1_5)" >
</path>
</g>
<g opacity="0.5">
<path d="M0.00012207 1L379 1L379 0L0.00012207 0L0.00012207 1Z"   fill="url(#linear_fill_1_6)" >
</path>
</g>
<path d="M0.00012207 5L379 5L379 3L0.00012207 3L0.00012207 5Z"   fill="url(#linear_fill_1_7)" >
</path>
<g >
<path     fill="#FFFFFF"  d="M139.978 17.6593L139.564 19.1353L142.678 19.1353L142.714 28.2613Q142.714 28.8733 142.633 29.2783Q142.552 29.6833 142.336 29.9353Q142.12 30.1873 141.724 30.3133Q141.328 30.4393 140.716 30.4933L139.366 30.6193L138.772 28.7833L139.96 28.6753Q140.338 28.6393 140.455 28.4593Q140.572 28.2793 140.572 27.6493L140.572 23.8873L139.834 24.8413Q139.69 24.6973 139.537 24.5353Q139.384 24.3733 139.204 24.1933L139.204 28.4593L132.67 28.4593L132.67 24.3013Q132.454 24.4633 132.256 24.6073Q132.058 24.7513 131.878 24.8773L131.122 23.9233L131.122 30.2413L129.106 30.2413L129.106 19.1353L132.166 19.1353L131.824 17.6593L128.17 17.6593L128.17 15.6793L134.758 15.6793L134.506 14.4013L136.918 14.2393L137.17 15.6793L143.596 15.6793L143.596 17.6593L139.978 17.6593ZM137.836 17.6593L133.948 17.6593L134.29 19.1353L137.44 19.1353L137.836 17.6593ZM131.122 23.2033Q131.806 22.7353 132.508 22.1683Q133.21 21.6013 133.696 21.0793L131.122 21.0793L131.122 23.2033ZM138.322 23.3653Q137.872 22.9513 137.458 22.5913Q137.044 22.2313 136.738 22.0333L137.692 21.0793L134.182 21.0793L135.316 21.9433Q135.01 22.3033 134.623 22.6543Q134.236 23.0053 133.822 23.3653L138.322 23.3653ZM140.572 21.0793L138.322 21.0793Q138.556 21.2593 138.853 21.4933Q139.15 21.7273 139.456 21.9793Q139.762 22.2313 140.05 22.4923Q140.338 22.7533 140.572 22.9693L140.572 21.0793ZM137.26 25.2193L134.632 25.2193L134.632 26.5693L137.26 26.5693L137.26 25.2193ZM161.776 26.1913Q161.74 26.6593 161.695 27.2803Q161.65 27.9013 161.578 28.3333Q161.488 28.9093 161.362 29.2783Q161.236 29.6473 161.011 29.8543Q160.786 30.0613 160.426 30.1513Q160.066 30.2413 159.472 30.2773Q158.968 30.2953 158.464 30.2773Q157.978 30.2593 157.645 30.1513Q157.312 30.0433 157.096 29.8093Q156.88 29.5753 156.781 29.1883Q156.682 28.8013 156.682 28.2073L156.682 17.3893L154.666 17.3893L154.666 21.5473Q154.666 23.3293 154.585 24.6073Q154.504 25.8853 154.252 26.8843Q154 27.8833 153.496 28.7293Q152.992 29.5753 152.164 30.5113L150.202 29.2513Q150.85 28.5493 151.273 27.9643Q151.696 27.3793 151.948 26.7403Q152.2 26.1013 152.317 25.3363Q152.434 24.5713 152.47 23.5093L151.48 24.5893Q151.228 24.1933 150.886 23.7253Q150.544 23.2573 150.202 22.8253L150.202 30.4033L148.06 30.4033L148.06 23.8513Q147.7 24.5533 147.295 25.2283Q146.89 25.9033 146.44 26.5333L145.108 25.0213Q145.432 24.5713 145.81 23.9863Q146.188 23.4013 146.584 22.6993Q146.98 21.9973 147.34 21.1963Q147.7 20.3953 148.006 19.5313L145.972 19.5313L145.972 17.3533L148.06 17.3533L148.06 14.4193L150.202 14.5093L150.202 17.3533L152.11 17.3533L152.11 19.5313L150.202 19.5313L150.202 21.2593L150.778 20.7013Q151.156 21.0613 151.624 21.5653Q152.092 22.0693 152.488 22.5733L152.488 21.5293L152.488 15.1033L158.842 15.1033L158.842 27.5773Q158.842 27.9013 158.896 27.9823Q158.95 28.0633 159.04 28.0633L159.328 28.0633Q159.454 28.0633 159.526 27.9553Q159.598 27.8473 159.652 27.4153Q159.688 27.1093 159.724 26.6683Q159.76 26.2273 159.796 25.5973L161.776 26.1913ZM179.11 27.6313L179.11 29.9353L168.868 29.9353L168.868 16.8313L167.77 18.7033Q167.482 18.4333 167.041 18.0643Q166.6 17.6953 166.105 17.3173Q165.61 16.9393 165.142 16.6063Q164.674 16.2733 164.332 16.0753L165.556 14.2213Q165.862 14.3833 166.303 14.6803Q166.744 14.9773 167.212 15.3103Q167.68 15.6433 168.121 15.9943Q168.562 16.3453 168.868 16.6153L168.868 15.0313L178.858 15.0313L178.858 17.3353L171.118 17.3353L171.118 27.6313L179.11 27.6313ZM167.05 22.8973Q166.708 22.5733 166.222 22.1593Q165.736 21.7453 165.214 21.3403Q164.692 20.9353 164.179 20.5753Q163.666 20.2153 163.288 19.9813L164.512 18.2173Q164.854 18.4333 165.349 18.7483Q165.844 19.0633 166.357 19.4323Q166.87 19.8013 167.374 20.1883Q167.878 20.5753 168.256 20.8993L167.05 22.8973ZM167.446 23.6713L168.454 24.0853Q168.274 24.5893 167.941 25.3903Q167.608 26.1913 167.221 27.0823Q166.834 27.9733 166.429 28.8373Q166.024 29.7013 165.7 30.3133L163.594 29.3233Q163.954 28.6573 164.359 27.8293Q164.764 27.0013 165.151 26.1553Q165.538 25.3093 165.853 24.5263Q166.168 23.7433 166.366 23.2033L167.446 23.6713ZM188.56 23.5993L182.782 23.5993L182.782 16.5793L185.338 16.5793L184.654 14.6173L187.12 14.4373L187.696 16.5793L190.144 16.5793L190.846 14.5093L193.258 14.6893L192.484 16.5793L194.986 16.5793L194.986 23.5993L189.478 23.5993Q189.676 23.8333 189.901 24.1213Q190.126 24.4093 190.342 24.7063Q190.558 25.0033 190.765 25.3003Q190.972 25.5973 191.116 25.8313L189.442 27.1633Q189.28 26.8573 189.028 26.4703Q188.776 26.0833 188.506 25.6963Q188.236 25.3093 187.957 24.9673Q187.678 24.6253 187.462 24.3733L188.56 23.5993ZM185.032 21.5293L192.79 21.5293L192.79 18.7213L185.032 18.7213L185.032 21.5293ZM194.752 23.9413Q195.022 24.3193 195.364 24.8503Q195.706 25.3813 196.048 25.9663Q196.39 26.5513 196.696 27.1273Q197.002 27.7033 197.2 28.1533L195.274 29.3233Q195.112 28.8733 194.833 28.2973Q194.554 27.7213 194.23 27.1363Q193.906 26.5513 193.582 26.0113Q193.258 25.4713 193.006 25.0753L194.752 23.9413ZM180.514 28.6033Q180.784 28.1713 181.063 27.6133Q181.342 27.0553 181.612 26.4613Q181.882 25.8673 182.107 25.2733Q182.332 24.6793 182.476 24.1753L184.492 24.8413Q184.312 25.3813 184.069 26.0293Q183.826 26.6773 183.547 27.3253Q183.268 27.9733 182.98 28.5853Q182.692 29.1973 182.458 29.6473L180.514 28.6033ZM191.17 27.5233Q191.224 27.2353 191.26 27.0103Q191.296 26.7853 191.314 26.4973L193.348 27.0913Q193.312 27.4333 193.267 27.8293Q193.222 28.2253 193.15 28.5493Q193.024 29.1253 192.844 29.4583Q192.664 29.7913 192.385 29.9713Q192.106 30.1513 191.683 30.2143Q191.26 30.2773 190.648 30.3133Q188.866 30.4213 187.102 30.3133Q186.472 30.2773 186.04 30.1603Q185.608 30.0433 185.338 29.7823Q185.068 29.5213 184.951 29.0713Q184.834 28.6213 184.834 27.9193L184.834 24.3913L187.03 24.4633L187.03 27.3613Q187.03 27.8293 187.192 28.0273Q187.354 28.2253 187.876 28.2613Q188.992 28.3513 190.126 28.2613Q190.396 28.2433 190.576 28.1983Q190.756 28.1533 190.873 28.0723Q190.99 27.9913 191.062 27.8563Q191.134 27.7213 191.17 27.5233ZM206.272 23.5993L200.494 23.5993L200.494 16.5793L203.05 16.5793L202.366 14.6173L204.832 14.4373L205.408 16.5793L207.856 16.5793L208.558 14.5093L210.97 14.6893L210.196 16.5793L212.698 16.5793L212.698 23.5993L207.19 23.5993Q207.388 23.8333 207.613 24.1213Q207.838 24.4093 208.054 24.7063Q208.27 25.0033 208.477 25.3003Q208.684 25.5973 208.828 25.8313L207.154 27.1633Q206.992 26.8573 206.74 26.4703Q206.488 26.0833 206.218 25.6963Q205.948 25.3093 205.669 24.9673Q205.39 24.6253 205.174 24.3733L206.272 23.5993ZM202.744 21.5293L210.502 21.5293L210.502 18.7213L202.744 18.7213L202.744 21.5293ZM212.464 23.9413Q212.734 24.3193 213.076 24.8503Q213.418 25.3813 213.76 25.9663Q214.102 26.5513 214.408 27.1273Q214.714 27.7033 214.912 28.1533L212.986 29.3233Q212.824 28.8733 212.545 28.2973Q212.266 27.7213 211.942 27.1363Q211.618 26.5513 211.294 26.0113Q210.97 25.4713 210.718 25.0753L212.464 23.9413ZM198.226 28.6033Q198.496 28.1713 198.775 27.6133Q199.054 27.0553 199.324 26.4613Q199.594 25.8673 199.819 25.2733Q200.044 24.6793 200.188 24.1753L202.204 24.8413Q202.024 25.3813 201.781 26.0293Q201.538 26.6773 201.259 27.3253Q200.98 27.9733 200.692 28.5853Q200.404 29.1973 200.17 29.6473L198.226 28.6033ZM208.882 27.5233Q208.936 27.2353 208.972 27.0103Q209.008 26.7853 209.026 26.4973L211.06 27.0913Q211.024 27.4333 210.979 27.8293Q210.934 28.2253 210.862 28.5493Q210.736 29.1253 210.556 29.4583Q210.376 29.7913 210.097 29.9713Q209.818 30.1513 209.395 30.2143Q208.972 30.2773 208.36 30.3133Q206.578 30.4213 204.814 30.3133Q204.184 30.2773 203.752 30.1603Q203.32 30.0433 203.05 29.7823Q202.78 29.5213 202.663 29.0713Q202.546 28.6213 202.546 27.9193L202.546 24.3913L204.742 24.4633L204.742 27.3613Q204.742 27.8293 204.904 28.0273Q205.066 28.2253 205.588 28.2613Q206.704 28.3513 207.838 28.2613Q208.108 28.2433 208.288 28.1983Q208.468 28.1533 208.585 28.0723Q208.702 27.9913 208.774 27.8563Q208.846 27.7213 208.882 27.5233ZM230.266 25.4353Q229.816 25.9933 229.258 26.7133Q228.7 27.4333 228.178 28.0453L231.85 28.0453L231.85 30.0793L217 30.0793L217 28.0453L220.69 28.0453Q220.456 27.7393 220.177 27.3883Q219.898 27.0373 219.628 26.6953Q219.358 26.3533 219.106 26.0473Q218.854 25.7413 218.674 25.5433L219.628 24.6973L217.954 24.6973L217.954 22.5733L223.354 22.5733L223.354 21.2773L219.916 21.2773L219.916 20.1973Q218.638 20.9893 217.18 21.6733L216.19 19.5853Q218.782 18.5053 220.609 17.1823Q222.436 15.8593 223.624 14.2033L225.334 14.2033Q226.486 15.8053 228.34 17.1463Q230.194 18.4873 232.678 19.4593L231.778 21.5653Q231.058 21.2593 230.338 20.8903Q229.618 20.5213 228.934 20.1073L228.934 21.2773L225.496 21.2773L225.496 22.5733L230.914 22.5733L230.914 24.6973L229.276 24.6973L230.266 25.4353ZM224.452 16.5613Q223.93 17.1733 223.156 17.8483Q222.382 18.5233 221.41 19.2073L227.548 19.2073Q226.594 18.5413 225.802 17.8573Q225.01 17.1733 224.452 16.5613ZM220.564 24.6973Q220.78 24.9673 221.05 25.2913Q221.32 25.6153 221.59 25.9393Q221.86 26.2633 222.112 26.5693Q222.364 26.8753 222.562 27.1093L221.41 28.0453L223.354 28.0453L223.354 24.6973L220.564 24.6973ZM225.496 24.6973L225.496 28.0453L227.35 28.0453L226.252 27.0553Q226.684 26.5693 227.215 25.9303Q227.746 25.2913 228.196 24.6973L225.496 24.6973ZM236.098 18.5233L234.388 18.5233L234.388 15.4453L237.178 15.4453L236.89 14.2753L238.834 14.1673L239.104 15.4453L241.822 15.4453L241.822 18.2173L240.094 18.2173L240.094 17.2453L236.098 17.2453L236.098 18.5233ZM244.072 26.2813L242.326 26.2813L242.326 18.0733L244.54 18.0733Q244.63 17.7493 244.684 17.4073Q244.738 17.0653 244.81 16.7593L242.326 16.7593L242.326 14.8333L249.634 14.8333L249.634 16.7593L246.826 16.7593L246.556 18.0733L249.256 18.0733L249.256 26.2993L247.51 26.2993L247.51 19.9273L244.072 19.9273L244.072 26.2813ZM246.484 25.5073Q246.88 25.8133 247.411 26.2363Q247.942 26.6593 248.491 27.1093Q249.04 27.5593 249.535 27.9913Q250.03 28.4233 250.354 28.7293L249.112 30.4213Q248.374 29.5933 247.519 28.7473Q246.664 27.9013 245.908 27.2533Q245.422 28.1533 244.549 28.9273Q243.676 29.7013 242.254 30.5293L241.156 28.8553L241.156 29.8273L235.27 29.8273L235.27 25.3273Q235.072 25.4173 234.865 25.5073Q234.658 25.5973 234.46 25.6873L233.74 23.9413Q235.594 23.2033 236.98 22.3393Q236.674 22.1413 236.404 21.9883Q236.134 21.8353 235.918 21.6913Q235.756 21.8713 235.576 22.0423Q235.396 22.2133 235.216 22.3933L234.064 20.9173Q234.46 20.5753 234.883 20.1343Q235.306 19.6933 235.693 19.2163Q236.08 18.7393 236.386 18.2623Q236.692 17.7853 236.89 17.3893L238.6 18.0193Q238.51 18.1813 238.429 18.3433Q238.348 18.5053 238.258 18.6673L241.462 18.6673L241.462 20.4493Q241.156 20.9353 240.805 21.3853Q240.454 21.8353 240.004 22.2493Q240.652 22.6273 241.228 22.9693Q241.804 23.3113 242.164 23.5273L241.462 25.2913Q241.39 25.2373 241.318 25.1833Q241.246 25.1293 241.156 25.0753L241.156 28.7293Q242.38 28.0813 243.118 27.5053Q243.856 26.9293 244.243 26.2813Q244.63 25.6333 244.756 24.8683Q244.882 24.1033 244.882 23.0953L244.882 20.5753L246.646 20.6653L246.646 23.3833Q246.646 23.9773 246.61 24.5083Q246.574 25.0393 246.484 25.5073ZM236.98 20.5033Q237.286 20.6833 237.646 20.8903Q238.006 21.0973 238.42 21.3313Q239.104 20.7913 239.536 20.3053L237.142 20.3053L236.98 20.5033ZM238.636 23.4013Q238.222 23.7073 237.745 23.9953Q237.268 24.2833 236.746 24.5713L240.4 24.5713Q239.986 24.3013 239.545 24.0043Q239.104 23.7073 238.636 23.4013ZM239.428 26.2813L236.998 26.2813L236.998 28.0453L239.428 28.0453L239.428 26.2813Z">
</path>
</g>
<path d="M5.00006 3L0.000122547 3L2.50009 10L5.00006 3Z"   fill="#0098EB" >
</path>
<path d="M379 3L374 3L376.5 10L379 3Z"   fill="#0098EB" >
</path>
<path d="M0 42L5 42L2.5 35L0 42Z"   fill="#0098EB" >
</path>
<path d="M374 42L379 42L376.5 35L374 42Z"   fill="#0098EB" >
</path>
<defs>
<linearGradient id="linear_fill_1_3" x1="0.0001220703125" y1="23" x2="379.0001220703125" y2="23" gradientUnits="userSpaceOnUse">
<stop offset="0" stop-color="#0098EB" stop-opacity="0" />
<stop offset="0.5348" stop-color="#0098EB" stop-opacity="0.5" />
<stop offset="1" stop-color="#0098EB" stop-opacity="0" />
</linearGradient>
<linearGradient id="linear_fill_1_4" x1="0.0001220703125" y1="41" x2="379.0001220703125" y2="41" gradientUnits="userSpaceOnUse">
<stop offset="0.0694" stop-color="#0098EB" stop-opacity="0" />
<stop offset="0.5348" stop-color="#0098EB"  />
<stop offset="0.8958" stop-color="#0098EB" stop-opacity="0" />
</linearGradient>
<linearGradient id="linear_fill_1_5" x1="0.0001220703125" y1="44.5" x2="379.0001220703125" y2="44.5" gradientUnits="userSpaceOnUse">
<stop offset="0.1249" stop-color="#0098EB" stop-opacity="0" />
<stop offset="0.5209" stop-color="#0098EB"  />
<stop offset="0.8333" stop-color="#0098EB" stop-opacity="0" />
</linearGradient>
<linearGradient id="linear_fill_1_6" x1="0.0001220703125" y1="0.5" x2="379.0001220703125" y2="0.5" gradientUnits="userSpaceOnUse">
<stop offset="0.1249" stop-color="#0098EB" stop-opacity="0" />
<stop offset="0.5209" stop-color="#0098EB"  />
<stop offset="0.8333" stop-color="#0098EB" stop-opacity="0" />
</linearGradient>
<linearGradient id="linear_fill_1_7" x1="0.0001220703125" y1="4" x2="379.0001220703125" y2="4" gradientUnits="userSpaceOnUse">
<stop offset="0.0694" stop-color="#0098EB" stop-opacity="0" />
<stop offset="0.5348" stop-color="#0098EB"  />
<stop offset="0.8958" stop-color="#0098EB" stop-opacity="0" />
</linearGradient>
</defs>
</svg>
