<svg xmlns="http://www.w3.org/2000/svg" xmlns:xlink="http://www.w3.org/1999/xlink" width="379.0001220703125" height="45" viewBox="0 0 379.0001220703125 45" fill="none">
<path d="M0.00012207 42.5L379 42.5L379 3.5L0.00012207 3.5L0.00012207 42.5Z"   fill="url(#linear_fill_2_16)" >
</path>
<path d="M0.00012207 42L379 42L379 40L0.00012207 40L0.00012207 42Z"   fill="url(#linear_fill_2_17)" >
</path>
<g opacity="0.5">
<path d="M0.00012207 45L379 45L379 44L0.00012207 44L0.00012207 45Z"   fill="url(#linear_fill_2_18)" >
</path>
</g>
<g opacity="0.5">
<path d="M0.00012207 1L379 1L379 0L0.00012207 0L0.00012207 1Z"   fill="url(#linear_fill_2_19)" >
</path>
</g>
<path d="M0.00012207 5L379 5L379 3L0.00012207 3L0.00012207 5Z"   fill="url(#linear_fill_2_20)" >
</path>
<g >
<path     fill="#FFFFFF"  d="M131.978 17.6593L131.564 19.1353L134.678 19.1353L134.714 28.2613Q134.714 28.8733 134.633 29.2783Q134.552 29.6833 134.336 29.9353Q134.12 30.1873 133.724 30.3133Q133.328 30.4393 132.716 30.4933L131.366 30.6193L130.772 28.7833L131.96 28.6753Q132.338 28.6393 132.455 28.4593Q132.572 28.2793 132.572 27.6493L132.572 23.8873L131.834 24.8413Q131.69 24.6973 131.537 24.5353Q131.384 24.3733 131.204 24.1933L131.204 28.4593L124.67 28.4593L124.67 24.3013Q124.454 24.4633 124.256 24.6073Q124.058 24.7513 123.878 24.8773L123.122 23.9233L123.122 30.2413L121.106 30.2413L121.106 19.1353L124.166 19.1353L123.824 17.6593L120.17 17.6593L120.17 15.6793L126.758 15.6793L126.506 14.4013L128.918 14.2393L129.17 15.6793L135.596 15.6793L135.596 17.6593L131.978 17.6593ZM129.836 17.6593L125.948 17.6593L126.29 19.1353L129.44 19.1353L129.836 17.6593ZM123.122 23.2033Q123.806 22.7353 124.508 22.1683Q125.21 21.6013 125.696 21.0793L123.122 21.0793L123.122 23.2033ZM130.322 23.3653Q129.872 22.9513 129.458 22.5913Q129.044 22.2313 128.738 22.0333L129.692 21.0793L126.182 21.0793L127.316 21.9433Q127.01 22.3033 126.623 22.6543Q126.236 23.0053 125.822 23.3653L130.322 23.3653ZM132.572 21.0793L130.322 21.0793Q130.556 21.2593 130.853 21.4933Q131.15 21.7273 131.456 21.9793Q131.762 22.2313 132.05 22.4923Q132.338 22.7533 132.572 22.9693L132.572 21.0793ZM129.26 25.2193L126.632 25.2193L126.632 26.5693L129.26 26.5693L129.26 25.2193ZM153.776 26.1913Q153.74 26.6593 153.695 27.2803Q153.65 27.9013 153.578 28.3333Q153.488 28.9093 153.362 29.2783Q153.236 29.6473 153.011 29.8543Q152.786 30.0613 152.426 30.1513Q152.066 30.2413 151.472 30.2773Q150.968 30.2953 150.464 30.2773Q149.978 30.2593 149.645 30.1513Q149.312 30.0433 149.096 29.8093Q148.88 29.5753 148.781 29.1883Q148.682 28.8013 148.682 28.2073L148.682 17.3893L146.666 17.3893L146.666 21.5473Q146.666 23.3293 146.585 24.6073Q146.504 25.8853 146.252 26.8843Q146 27.8833 145.496 28.7293Q144.992 29.5753 144.164 30.5113L142.202 29.2513Q142.85 28.5493 143.273 27.9643Q143.696 27.3793 143.948 26.7403Q144.2 26.1013 144.317 25.3363Q144.434 24.5713 144.47 23.5093L143.48 24.5893Q143.228 24.1933 142.886 23.7253Q142.544 23.2573 142.202 22.8253L142.202 30.4033L140.06 30.4033L140.06 23.8513Q139.7 24.5533 139.295 25.2283Q138.89 25.9033 138.44 26.5333L137.108 25.0213Q137.432 24.5713 137.81 23.9863Q138.188 23.4013 138.584 22.6993Q138.98 21.9973 139.34 21.1963Q139.7 20.3953 140.006 19.5313L137.972 19.5313L137.972 17.3533L140.06 17.3533L140.06 14.4193L142.202 14.5093L142.202 17.3533L144.11 17.3533L144.11 19.5313L142.202 19.5313L142.202 21.2593L142.778 20.7013Q143.156 21.0613 143.624 21.5653Q144.092 22.0693 144.488 22.5733L144.488 21.5293L144.488 15.1033L150.842 15.1033L150.842 27.5773Q150.842 27.9013 150.896 27.9823Q150.95 28.0633 151.04 28.0633L151.328 28.0633Q151.454 28.0633 151.526 27.9553Q151.598 27.8473 151.652 27.4153Q151.688 27.1093 151.724 26.6683Q151.76 26.2273 151.796 25.5973L153.776 26.1913ZM164.954 25.9933Q165.836 26.8573 167.384 27.6043Q168.932 28.3513 171.182 28.7113L170.588 31.0513Q168.068 30.3673 166.259 29.5213Q164.45 28.6753 163.388 27.4873Q162.434 28.6213 160.589 29.4223Q158.744 30.2233 155.936 30.9613L155.252 28.7113Q157.7 28.2613 159.257 27.5593Q160.814 26.8573 161.534 25.9933L156.26 25.9933L156.26 24.0673L156.566 24.0673L155.666 22.0153Q158.6 21.1873 160.724 19.8733L156.224 19.8733L156.224 17.9653L159.14 17.9653Q158.672 17.3893 158.123 16.7593Q157.574 16.1293 157.16 15.7513L158.654 14.4193Q158.924 14.6893 159.275 15.0493Q159.626 15.4093 159.977 15.7963Q160.328 16.1833 160.661 16.5613Q160.994 16.9393 161.21 17.2453L160.454 17.9653L162.164 17.9653L162.164 14.5273L164.414 14.6353L164.414 17.9653L166.034 17.9653L165.368 17.4253Q165.638 17.1553 165.953 16.7773Q166.268 16.3993 166.583 15.9943Q166.898 15.5893 167.195 15.1753Q167.492 14.7613 167.708 14.4193L169.382 15.6433Q169.094 16.1113 168.599 16.7503Q168.104 17.3893 167.618 17.9653L170.318 17.9653L170.318 19.8733L165.368 19.8733Q165.962 20.0893 166.646 20.3413Q167.33 20.5933 168.023 20.8633Q168.716 21.1333 169.382 21.4033Q170.048 21.6733 170.606 21.9073L170.048 24.0133Q169.454 23.7433 168.761 23.4283Q168.068 23.1133 167.339 22.7983Q166.61 22.4833 165.89 22.1953Q165.17 21.9073 164.558 21.6553L165.314 19.8733L164.414 19.8733L164.414 22.6633L162.164 22.6633L162.164 21.4393Q161.642 21.8173 161.066 22.1413Q160.49 22.4653 159.833 22.7803Q159.176 23.0953 158.393 23.4103Q157.61 23.7253 156.674 24.0673L162.128 24.0673L162.128 23.1853L164.414 23.2933L164.414 24.0673L170.3 24.0673L170.3 25.9933L164.954 25.9933ZM183.944 22.2673L185.078 22.1413Q185.438 22.1053 185.618 21.9523Q185.798 21.7993 185.798 21.3313L185.798 14.7613L187.904 14.8513L187.904 21.9073Q187.904 22.5373 187.814 22.9423Q187.724 23.3473 187.481 23.5993Q187.238 23.8513 186.833 23.9773Q186.428 24.1033 185.816 24.1573L184.574 24.2833L183.944 22.2673ZM188.768 28.1533L188.768 30.2053L173.198 30.2053L173.198 28.1533L180.002 28.1533L180.002 26.7853L175.07 26.7853L175.07 25.0573L173.378 23.7973Q173.792 23.3653 174.098 23.0053Q174.404 22.6453 174.62 22.3213Q174.836 21.9973 174.971 21.6733Q175.106 21.3493 175.178 20.9893L173.504 20.9893L173.504 18.9913L175.322 18.9913L175.322 18.7753L175.322 17.0653L173.954 17.0653L173.954 15.0493L182.234 15.0493L182.234 17.0653L180.902 17.0653L180.902 18.9913L182.342 18.9913L182.342 20.9893L180.902 20.9893L180.902 23.8153L178.832 23.8153L178.832 20.9893L177.302 20.9893Q177.23 21.5653 177.086 22.0603Q176.942 22.5553 176.708 23.0143Q176.474 23.4733 176.141 23.9053Q175.808 24.3373 175.358 24.8053L180.002 24.8053L180.002 24.0133L182.216 24.1033L182.216 24.8053L186.95 24.8053L186.95 26.7853L182.216 26.7853L182.216 28.1533L188.768 28.1533ZM184.826 21.6913L182.738 21.6913L182.738 15.6793L184.826 15.7693L184.826 21.6913ZM177.41 18.9913L178.832 18.9913L178.832 17.0653L177.41 17.0653L177.41 18.7933L177.41 18.9913ZM204.554 25.4353Q204.104 25.9933 203.546 26.7133Q202.988 27.4333 202.466 28.0453L206.138 28.0453L206.138 30.0793L191.288 30.0793L191.288 28.0453L194.978 28.0453Q194.744 27.7393 194.465 27.3883Q194.186 27.0373 193.916 26.6953Q193.646 26.3533 193.394 26.0473Q193.142 25.7413 192.962 25.5433L193.916 24.6973L192.242 24.6973L192.242 22.5733L197.642 22.5733L197.642 21.2773L194.204 21.2773L194.204 20.1973Q192.926 20.9893 191.468 21.6733L190.478 19.5853Q193.07 18.5053 194.897 17.1823Q196.724 15.8593 197.912 14.2033L199.622 14.2033Q200.774 15.8053 202.628 17.1463Q204.482 18.4873 206.966 19.4593L206.066 21.5653Q205.346 21.2593 204.626 20.8903Q203.906 20.5213 203.222 20.1073L203.222 21.2773L199.784 21.2773L199.784 22.5733L205.202 22.5733L205.202 24.6973L203.564 24.6973L204.554 25.4353ZM198.74 16.5613Q198.218 17.1733 197.444 17.8483Q196.67 18.5233 195.698 19.2073L201.836 19.2073Q200.882 18.5413 200.09 17.8573Q199.298 17.1733 198.74 16.5613ZM194.852 24.6973Q195.068 24.9673 195.338 25.2913Q195.608 25.6153 195.878 25.9393Q196.148 26.2633 196.4 26.5693Q196.652 26.8753 196.85 27.1093L195.698 28.0453L197.642 28.0453L197.642 24.6973L194.852 24.6973ZM199.784 24.6973L199.784 28.0453L201.638 28.0453L200.54 27.0553Q200.972 26.5693 201.503 25.9303Q202.034 25.2913 202.484 24.6973L199.784 24.6973ZM210.386 18.5233L208.676 18.5233L208.676 15.4453L211.466 15.4453L211.178 14.2753L213.122 14.1673L213.392 15.4453L216.11 15.4453L216.11 18.2173L214.382 18.2173L214.382 17.2453L210.386 17.2453L210.386 18.5233ZM218.36 26.2813L216.614 26.2813L216.614 18.0733L218.828 18.0733Q218.918 17.7493 218.972 17.4073Q219.026 17.0653 219.098 16.7593L216.614 16.7593L216.614 14.8333L223.922 14.8333L223.922 16.7593L221.114 16.7593L220.844 18.0733L223.544 18.0733L223.544 26.2993L221.798 26.2993L221.798 19.9273L218.36 19.9273L218.36 26.2813ZM220.772 25.5073Q221.168 25.8133 221.699 26.2363Q222.23 26.6593 222.779 27.1093Q223.328 27.5593 223.823 27.9913Q224.318 28.4233 224.642 28.7293L223.4 30.4213Q222.662 29.5933 221.807 28.7473Q220.952 27.9013 220.196 27.2533Q219.71 28.1533 218.837 28.9273Q217.964 29.7013 216.542 30.5293L215.444 28.8553L215.444 29.8273L209.558 29.8273L209.558 25.3273Q209.36 25.4173 209.153 25.5073Q208.946 25.5973 208.748 25.6873L208.028 23.9413Q209.882 23.2033 211.268 22.3393Q210.962 22.1413 210.692 21.9883Q210.422 21.8353 210.206 21.6913Q210.044 21.8713 209.864 22.0423Q209.684 22.2133 209.504 22.3933L208.352 20.9173Q208.748 20.5753 209.171 20.1343Q209.594 19.6933 209.981 19.2163Q210.368 18.7393 210.674 18.2623Q210.98 17.7853 211.178 17.3893L212.888 18.0193Q212.798 18.1813 212.717 18.3433Q212.636 18.5053 212.546 18.6673L215.75 18.6673L215.75 20.4493Q215.444 20.9353 215.093 21.3853Q214.742 21.8353 214.292 22.2493Q214.94 22.6273 215.516 22.9693Q216.092 23.3113 216.452 23.5273L215.75 25.2913Q215.678 25.2373 215.606 25.1833Q215.534 25.1293 215.444 25.0753L215.444 28.7293Q216.668 28.0813 217.406 27.5053Q218.144 26.9293 218.531 26.2813Q218.918 25.6333 219.044 24.8683Q219.17 24.1033 219.17 23.0953L219.17 20.5753L220.934 20.6653L220.934 23.3833Q220.934 23.9773 220.898 24.5083Q220.862 25.0393 220.772 25.5073ZM211.268 20.5033Q211.574 20.6833 211.934 20.8903Q212.294 21.0973 212.708 21.3313Q213.392 20.7913 213.824 20.3053L211.43 20.3053L211.268 20.5033ZM212.924 23.4013Q212.51 23.7073 212.033 23.9953Q211.556 24.2833 211.034 24.5713L214.688 24.5713Q214.274 24.3013 213.833 24.0043Q213.392 23.7073 212.924 23.4013ZM213.716 26.2813L211.286 26.2813L211.286 28.0453L213.716 28.0453L213.716 26.2813ZM234.794 18.8473L234.794 21.3313L240.536 21.3313L240.536 29.9173L227.792 29.9173L227.792 21.3313L232.382 21.3313L232.382 14.4193L234.794 14.5093L234.794 16.5793L241.652 16.5793L241.652 18.8473L234.794 18.8473ZM238.214 23.6353L230.114 23.6353L230.114 27.6133L238.214 27.6133L238.214 23.6353ZM259.706 25.4533Q259.706 25.5973 259.679 25.8853Q259.652 26.1733 259.616 26.5153Q259.58 26.8573 259.544 27.1633Q259.508 27.4693 259.49 27.6313Q259.4 28.2793 259.238 28.7293Q259.076 29.1793 258.761 29.4673Q258.446 29.7553 257.96 29.8993Q257.474 30.0433 256.736 30.0793Q255.44 30.1333 254.162 30.0793Q253.568 30.0613 253.118 29.9263Q252.668 29.7913 252.38 29.5033Q252.092 29.2153 251.948 28.7383Q251.804 28.2613 251.804 27.5413L251.804 14.5633L254.09 14.6713L254.09 20.3773Q254.594 19.9993 255.143 19.5493Q255.692 19.0993 256.214 18.6313Q256.736 18.1633 257.195 17.6953Q257.654 17.2273 257.996 16.8133L259.508 18.6313Q258.968 19.2073 258.284 19.8103Q257.6 20.4133 256.88 20.9983Q256.16 21.5833 255.44 22.1053Q254.72 22.6273 254.09 23.0233L254.09 26.7853Q254.09 27.1093 254.117 27.2983Q254.144 27.4873 254.234 27.5953Q254.324 27.7033 254.504 27.7483Q254.684 27.7933 255.008 27.8113Q255.656 27.8473 256.358 27.8113Q256.682 27.7933 256.871 27.7663Q257.06 27.7393 257.168 27.6403Q257.276 27.5413 257.33 27.3433Q257.384 27.1453 257.438 26.8033Q257.51 26.2813 257.546 25.7143Q257.582 25.1473 257.582 24.8053L259.706 25.4533ZM247.61 27.0733Q247.988 26.9293 248.447 26.7403Q248.906 26.5513 249.392 26.3533Q249.878 26.1553 250.346 25.9753Q250.814 25.7953 251.192 25.6513L251.372 28.0633Q251.102 28.1713 250.616 28.3693Q250.13 28.5673 249.554 28.8013Q248.978 29.0353 248.366 29.2873Q247.754 29.5393 247.25 29.7733Q246.908 29.9173 246.548 30.0883Q246.188 30.2593 245.882 30.4213L244.928 28.1173Q245.234 27.9553 245.288 27.7663Q245.342 27.5773 245.342 27.1993L245.342 14.7433L247.61 14.8513L247.61 19.2433L251.228 19.2433L251.228 21.5473L247.61 21.5473L247.61 27.0733Z">
</path>
</g>
<path d="M5.00006 3L0.000122547 3L2.50009 10L5.00006 3Z"   fill="#0098EB" >
</path>
<path d="M379 3L374 3L376.5 10L379 3Z"   fill="#0098EB" >
</path>
<path d="M0 42L5 42L2.5 35L0 42Z"   fill="#0098EB" >
</path>
<path d="M374 42L379 42L376.5 35L374 42Z"   fill="#0098EB" >
</path>
<defs>
<linearGradient id="linear_fill_2_16" x1="0.0001220703125" y1="23" x2="379.0001220703125" y2="23" gradientUnits="userSpaceOnUse">
<stop offset="0" stop-color="#0098EB" stop-opacity="0" />
<stop offset="0.5348" stop-color="#0098EB" stop-opacity="0.5" />
<stop offset="1" stop-color="#0098EB" stop-opacity="0" />
</linearGradient>
<linearGradient id="linear_fill_2_17" x1="0.0001220703125" y1="41" x2="379.0001220703125" y2="41" gradientUnits="userSpaceOnUse">
<stop offset="0.0694" stop-color="#0098EB" stop-opacity="0" />
<stop offset="0.5348" stop-color="#0098EB"  />
<stop offset="0.8958" stop-color="#0098EB" stop-opacity="0" />
</linearGradient>
<linearGradient id="linear_fill_2_18" x1="0.0001220703125" y1="44.5" x2="379.0001220703125" y2="44.5" gradientUnits="userSpaceOnUse">
<stop offset="0.1249" stop-color="#0098EB" stop-opacity="0" />
<stop offset="0.5209" stop-color="#0098EB"  />
<stop offset="0.8333" stop-color="#0098EB" stop-opacity="0" />
</linearGradient>
<linearGradient id="linear_fill_2_19" x1="0.0001220703125" y1="0.5" x2="379.0001220703125" y2="0.5" gradientUnits="userSpaceOnUse">
<stop offset="0.1249" stop-color="#0098EB" stop-opacity="0" />
<stop offset="0.5209" stop-color="#0098EB"  />
<stop offset="0.8333" stop-color="#0098EB" stop-opacity="0" />
</linearGradient>
<linearGradient id="linear_fill_2_20" x1="0.0001220703125" y1="4" x2="379.0001220703125" y2="4" gradientUnits="userSpaceOnUse">
<stop offset="0.0694" stop-color="#0098EB" stop-opacity="0" />
<stop offset="0.5348" stop-color="#0098EB"  />
<stop offset="0.8958" stop-color="#0098EB" stop-opacity="0" />
</linearGradient>
</defs>
</svg>
