<svg xmlns="http://www.w3.org/2000/svg" xmlns:xlink="http://www.w3.org/1999/xlink" width="379.0001220703125" height="45" viewBox="0 0 379.0001220703125 45" fill="none">
<path d="M0.00012207 42.5L379 42.5L379 3.5L0.00012207 3.5L0.00012207 42.5Z"   fill="url(#linear_fill_2_3)" >
</path>
<path d="M0.00012207 42L379 42L379 40L0.00012207 40L0.00012207 42Z"   fill="url(#linear_fill_2_4)" >
</path>
<g opacity="0.5">
<path d="M0.00012207 45L379 45L379 44L0.00012207 44L0.00012207 45Z"   fill="url(#linear_fill_2_5)" >
</path>
</g>
<g opacity="0.5">
<path d="M0.00012207 1L379 1L379 0L0.00012207 0L0.00012207 1Z"   fill="url(#linear_fill_2_6)" >
</path>
</g>
<path d="M0.00012207 5L379 5L379 3L0.00012207 3L0.00012207 5Z"   fill="url(#linear_fill_2_7)" >
</path>
<g >
<path     fill="#FFFFFF"  d="M146.998 19.0993Q148.168 21.3133 149.671 23.1043Q151.174 24.8953 153.316 26.3713L151.696 28.3873Q150.976 27.7573 150.355 27.1363Q149.734 26.5153 149.176 25.8853L149.176 27.7933L146.026 27.7933L146.026 30.4213L143.686 30.4213L143.686 27.7933L140.554 27.7933L140.554 25.8673Q140.032 26.4973 139.429 27.1273Q138.826 27.7573 138.124 28.4233L136.396 26.5693Q137.494 25.6873 138.412 24.7873Q139.33 23.8873 140.095 22.9603Q140.86 22.0333 141.49 21.0703Q142.12 20.1073 142.66 19.0993L137.908 19.0993L137.908 16.8313L143.686 16.8313L143.686 14.4373L146.026 14.5093L146.026 16.8313L151.822 16.8313L151.822 19.0993L146.998 19.0993ZM143.686 25.6333L143.686 21.0793Q143.11 22.2673 142.408 23.3833Q141.706 24.4993 140.752 25.6333L143.686 25.6333ZM148.942 25.6333Q148.024 24.5713 147.322 23.5093Q146.62 22.4473 146.026 21.2953L146.026 25.6333L148.942 25.6333ZM168.076 14.8153L168.076 27.6853Q168.076 28.5133 167.995 29.0263Q167.914 29.5393 167.644 29.8273Q167.374 30.1153 166.879 30.2503Q166.384 30.3853 165.574 30.4573L164.476 30.5653L163.72 28.4233L164.908 28.3153Q165.214 28.2973 165.403 28.2523Q165.592 28.2073 165.691 28.0723Q165.79 27.9373 165.826 27.6763Q165.862 27.4153 165.862 26.9473L165.862 25.3813L159.256 25.3813Q159.13 26.1913 158.932 26.8843Q158.734 27.5773 158.428 28.2253Q158.122 28.8733 157.708 29.5123Q157.294 30.1513 156.736 30.8353L154.702 29.4673Q155.53 28.5313 156.025 27.7843Q156.52 27.0373 156.781 26.1913Q157.042 25.3453 157.123 24.2383Q157.204 23.1313 157.204 21.4753L157.204 14.8153L168.076 14.8153ZM159.454 16.9753L159.454 19.0993L165.862 19.0993L165.862 16.9753L159.454 16.9753ZM165.862 23.2573L165.862 21.1873L159.454 21.1873L159.454 21.7273Q159.454 22.1413 159.454 22.5193Q159.454 22.8973 159.436 23.2573L165.862 23.2573ZM188.092 22.0693L186.544 22.0693L186.544 30.4033L184.438 30.4033L184.438 22.0693L183.07 22.0693Q183.07 23.6353 182.971 24.8053Q182.872 25.9753 182.638 26.9653Q182.404 27.9553 182.026 28.8463Q181.648 29.7373 181.054 30.7453L179.038 29.7013Q179.47 29.0713 179.776 28.5223Q180.082 27.9733 180.316 27.4153L179.056 28.2973Q178.75 27.7393 178.444 27.2443Q178.138 26.7493 177.868 26.3713L177.868 28.4773Q177.868 28.9993 177.832 29.3503Q177.796 29.7013 177.625 29.9353Q177.454 30.1693 177.076 30.3043Q176.698 30.4393 176.014 30.5113L175.06 30.6013L174.484 28.5673L175.15 28.4953Q175.384 28.4773 175.51 28.4233Q175.636 28.3693 175.708 28.2523Q175.78 28.1353 175.798 27.9283Q175.816 27.7213 175.816 27.3793L175.816 24.9133L172.846 24.9133L172.846 22.9153L175.816 22.9153L175.816 21.7453L172.576 21.7453L172.576 19.7653L174.322 19.7653L173.908 17.7133L173.062 17.7133L173.062 15.8413L175.816 15.8413L175.51 14.3833L177.76 14.2573L178.03 15.8413L180.532 15.8413L180.532 17.7133L179.83 17.7133L179.398 19.7653L180.694 19.7653L180.694 21.7453L177.868 21.7453L177.868 22.9153L180.586 22.9153L180.586 24.9133L177.868 24.9133L177.868 25.7773L179.146 24.9853Q179.416 25.3633 179.785 25.8943Q180.154 26.4253 180.46 26.9833Q180.64 26.4613 180.748 25.8853Q180.856 25.3093 180.919 24.6343Q180.982 23.9593 181 23.1673Q181.018 22.3753 181.018 21.4033L181.018 15.7333Q181.81 15.6613 182.638 15.5353Q183.466 15.4093 184.249 15.2473Q185.032 15.0853 185.743 14.8873Q186.454 14.6893 187.048 14.4733L187.732 16.5793Q187.282 16.7593 186.724 16.9303Q186.166 17.1013 185.554 17.2453Q184.942 17.3893 184.303 17.5153Q183.664 17.6413 183.07 17.7133L183.07 19.9453L188.092 19.9453L188.092 22.0693ZM176.248 19.7653L177.454 19.7653L177.886 17.7133L175.87 17.7133L176.248 19.7653ZM175.528 25.7593Q175.474 25.9573 175.24 26.4703Q175.006 26.9833 174.7 27.5953Q174.394 28.2073 174.052 28.7833Q173.71 29.3593 173.44 29.6653L171.748 28.6933Q172.018 28.3333 172.315 27.8653Q172.612 27.3973 172.882 26.9023Q173.152 26.4073 173.386 25.8943Q173.62 25.3813 173.782 24.9493L175.528 25.7593ZM205.354 16.1473L205.354 22.5553L195.346 22.5553L195.346 16.1473L197.344 16.1473L196.804 14.6353L198.946 14.4553L199.414 16.1473L201.268 16.1473L201.808 14.4733L203.932 14.6713L203.374 16.1473L205.354 16.1473ZM195.31 25.9213L195.418 27.3253Q195.328 27.3613 194.95 27.4693Q194.572 27.5773 194.041 27.7483Q193.51 27.9193 192.898 28.0993Q192.286 28.2793 191.746 28.4503Q191.206 28.6213 190.801 28.7473Q190.396 28.8733 190.288 28.9093L189.73 26.7313Q189.838 26.6953 190.45 26.5153Q191.062 26.3353 191.854 26.0833L191.854 20.6833L190.414 20.6833L190.414 18.5593L191.854 18.5593L191.854 14.5093L193.834 14.5993L193.834 18.5593L194.914 18.5593L194.914 20.6833L193.834 20.6833L193.834 25.4353Q194.41 25.2373 194.806 25.1023Q195.202 24.9673 195.256 24.9313L195.31 25.9213ZM197.164 18.0373L197.164 18.8293L198.28 18.0373L197.164 18.0373ZM198.352 18.0373Q198.64 18.4333 198.928 18.8833Q199.216 19.3333 199.45 19.7473L199.45 18.0373L198.352 18.0373ZM201.214 19.5853Q201.52 19.2253 201.808 18.8203Q202.096 18.4153 202.348 18.0373L201.214 18.0373L201.214 19.5853ZM203.518 18.0373L202.42 18.0373L203.518 18.7753L203.518 18.0373ZM197.164 20.7193L198.19 20.7193Q197.938 20.3053 197.659 19.8463Q197.38 19.3873 197.164 19.0633L197.164 20.7193ZM203.518 20.7193L203.518 19.4233Q203.32 19.7293 203.059 20.0803Q202.798 20.4313 202.564 20.7193L203.518 20.7193ZM199.45 19.8733L198.316 20.7193L199.45 20.7193L199.45 19.8733ZM201.214 20.7193L202.24 20.7193L201.214 19.9453L201.214 20.7193ZM195.976 23.1493L204.706 23.1493L204.706 30.2053L195.976 30.2053L195.976 23.1493ZM198.01 24.9493L198.01 25.7413L202.618 25.7413L202.618 24.9493L198.01 24.9493ZM202.618 28.3873L202.618 27.5773L198.01 27.5773L198.01 28.3873L202.618 28.3873ZM219.826 17.6593L219.412 19.1353L222.526 19.1353L222.562 28.2613Q222.562 28.8733 222.481 29.2783Q222.4 29.6833 222.184 29.9353Q221.968 30.1873 221.572 30.3133Q221.176 30.4393 220.564 30.4933L219.214 30.6193L218.62 28.7833L219.808 28.6753Q220.186 28.6393 220.303 28.4593Q220.42 28.2793 220.42 27.6493L220.42 23.8873L219.682 24.8413Q219.538 24.6973 219.385 24.5353Q219.232 24.3733 219.052 24.1933L219.052 28.4593L212.518 28.4593L212.518 24.3013Q212.302 24.4633 212.104 24.6073Q211.906 24.7513 211.726 24.8773L210.97 23.9233L210.97 30.2413L208.954 30.2413L208.954 19.1353L212.014 19.1353L211.672 17.6593L208.018 17.6593L208.018 15.6793L214.606 15.6793L214.354 14.4013L216.766 14.2393L217.018 15.6793L223.444 15.6793L223.444 17.6593L219.826 17.6593ZM217.684 17.6593L213.796 17.6593L214.138 19.1353L217.288 19.1353L217.684 17.6593ZM210.97 23.2033Q211.654 22.7353 212.356 22.1683Q213.058 21.6013 213.544 21.0793L210.97 21.0793L210.97 23.2033ZM218.17 23.3653Q217.72 22.9513 217.306 22.5913Q216.892 22.2313 216.586 22.0333L217.54 21.0793L214.03 21.0793L215.164 21.9433Q214.858 22.3033 214.471 22.6543Q214.084 23.0053 213.67 23.3653L218.17 23.3653ZM220.42 21.0793L218.17 21.0793Q218.404 21.2593 218.701 21.4933Q218.998 21.7273 219.304 21.9793Q219.61 22.2313 219.898 22.4923Q220.186 22.7533 220.42 22.9693L220.42 21.0793ZM217.108 25.2193L214.48 25.2193L214.48 26.5693L217.108 26.5693L217.108 25.2193ZM241.624 26.1913Q241.588 26.6593 241.543 27.2803Q241.498 27.9013 241.426 28.3333Q241.336 28.9093 241.21 29.2783Q241.084 29.6473 240.859 29.8543Q240.634 30.0613 240.274 30.1513Q239.914 30.2413 239.32 30.2773Q238.816 30.2953 238.312 30.2773Q237.826 30.2593 237.493 30.1513Q237.16 30.0433 236.944 29.8093Q236.728 29.5753 236.629 29.1883Q236.53 28.8013 236.53 28.2073L236.53 17.3893L234.514 17.3893L234.514 21.5473Q234.514 23.3293 234.433 24.6073Q234.352 25.8853 234.1 26.8843Q233.848 27.8833 233.344 28.7293Q232.84 29.5753 232.012 30.5113L230.05 29.2513Q230.698 28.5493 231.121 27.9643Q231.544 27.3793 231.796 26.7403Q232.048 26.1013 232.165 25.3363Q232.282 24.5713 232.318 23.5093L231.328 24.5893Q231.076 24.1933 230.734 23.7253Q230.392 23.2573 230.05 22.8253L230.05 30.4033L227.908 30.4033L227.908 23.8513Q227.548 24.5533 227.143 25.2283Q226.738 25.9033 226.288 26.5333L224.956 25.0213Q225.28 24.5713 225.658 23.9863Q226.036 23.4013 226.432 22.6993Q226.828 21.9973 227.188 21.1963Q227.548 20.3953 227.854 19.5313L225.82 19.5313L225.82 17.3533L227.908 17.3533L227.908 14.4193L230.05 14.5093L230.05 17.3533L231.958 17.3533L231.958 19.5313L230.05 19.5313L230.05 21.2593L230.626 20.7013Q231.004 21.0613 231.472 21.5653Q231.94 22.0693 232.336 22.5733L232.336 21.5293L232.336 15.1033L238.69 15.1033L238.69 27.5773Q238.69 27.9013 238.744 27.9823Q238.798 28.0633 238.888 28.0633L239.176 28.0633Q239.302 28.0633 239.374 27.9553Q239.446 27.8473 239.5 27.4153Q239.536 27.1093 239.572 26.6683Q239.608 26.2273 239.644 25.5973L241.624 26.1913Z">
</path>
</g>
<path d="M5.00006 3L0.000122547 3L2.50009 10L5.00006 3Z"   fill="#0098EB" >
</path>
<path d="M379 3L374 3L376.5 10L379 3Z"   fill="#0098EB" >
</path>
<path d="M0 42L5 42L2.5 35L0 42Z"   fill="#0098EB" >
</path>
<path d="M374 42L379 42L376.5 35L374 42Z"   fill="#0098EB" >
</path>
<defs>
<linearGradient id="linear_fill_2_3" x1="0.0001220703125" y1="23" x2="379.0001220703125" y2="23" gradientUnits="userSpaceOnUse">
<stop offset="0" stop-color="#0098EB" stop-opacity="0" />
<stop offset="0.5348" stop-color="#0098EB" stop-opacity="0.5" />
<stop offset="1" stop-color="#0098EB" stop-opacity="0" />
</linearGradient>
<linearGradient id="linear_fill_2_4" x1="0.0001220703125" y1="41" x2="379.0001220703125" y2="41" gradientUnits="userSpaceOnUse">
<stop offset="0.0694" stop-color="#0098EB" stop-opacity="0" />
<stop offset="0.5348" stop-color="#0098EB"  />
<stop offset="0.8958" stop-color="#0098EB" stop-opacity="0" />
</linearGradient>
<linearGradient id="linear_fill_2_5" x1="0.0001220703125" y1="44.5" x2="379.0001220703125" y2="44.5" gradientUnits="userSpaceOnUse">
<stop offset="0.1249" stop-color="#0098EB" stop-opacity="0" />
<stop offset="0.5209" stop-color="#0098EB"  />
<stop offset="0.8333" stop-color="#0098EB" stop-opacity="0" />
</linearGradient>
<linearGradient id="linear_fill_2_6" x1="0.0001220703125" y1="0.5" x2="379.0001220703125" y2="0.5" gradientUnits="userSpaceOnUse">
<stop offset="0.1249" stop-color="#0098EB" stop-opacity="0" />
<stop offset="0.5209" stop-color="#0098EB"  />
<stop offset="0.8333" stop-color="#0098EB" stop-opacity="0" />
</linearGradient>
<linearGradient id="linear_fill_2_7" x1="0.0001220703125" y1="4" x2="379.0001220703125" y2="4" gradientUnits="userSpaceOnUse">
<stop offset="0.0694" stop-color="#0098EB" stop-opacity="0" />
<stop offset="0.5348" stop-color="#0098EB"  />
<stop offset="0.8958" stop-color="#0098EB" stop-opacity="0" />
</linearGradient>
</defs>
</svg>
