<svg xmlns="http://www.w3.org/2000/svg" xmlns:xlink="http://www.w3.org/1999/xlink" width="379.0001220703125" height="45" viewBox="0 0 379.0001220703125 45" fill="none">
<path d="M0.00012207 42.5L379 42.5L379 3.5L0.00012207 3.5L0.00012207 42.5Z"   fill="url(#linear_fill_Jp_aocTNGDryXAyuZDG2w)" >
</path>
<path d="M0.00012207 42L379 42L379 40L0.00012207 40L0.00012207 42Z"   fill="url(#linear_fill_Di0Ut-RSODemkypYQjOin)" >
</path>
<g opacity="0.5">
<path d="M0.00012207 45L379 45L379 44L0.00012207 44L0.00012207 45Z"   fill="url(#linear_fill_MeT2X5sf9ExUUATRtWqM8)" >
</path>
</g>
<g opacity="0.5">
<path d="M0.00012207 1L379 1L379 0L0.00012207 0L0.00012207 1Z"   fill="url(#linear_fill_RQGeuIEMEzzoruP-uzHBc)" >
</path>
</g>
<path d="M0.00012207 5L379 5L379 3L0.00012207 3L0.00012207 5Z"   fill="url(#linear_fill_cIY39tGlq5jKn1hMIqXVJ)" >
</path>
<path   fill-rule="evenodd"  fill="#FFFFFF"  d="M148.172 25.09L145.688 25.738L145.31 28.474C145.22 28.996 144.824 29.329 144.824 29.329C144.428 29.662 143.906 29.662 143.906 29.662L140.504 29.662L142.106 28.006L142.304 26.638L140.36 27.142L140.63 25.252L142.574 24.748L142.952 22.012L141.08 22.012L141.332 20.302L143.204 20.302L143.348 19.186L141.782 19.438L142.034 17.728L148.334 16.702L148.082 18.412L146.696 18.646L146.462 20.302L149.648 20.302L149.108 17.206L148.676 16.702L152.096 16.702L152.726 20.302L156.2 20.302L155.948 22.012L153.014 22.012L153.374 24.046L155.84 22.858L155.516 25.09L153.698 25.954L154.004 27.646L154.652 27.646L155.444 26.962L155.048 29.662L151.286 29.662L150.872 27.304L148.01 28.672L148.334 26.44L150.53 25.396L149.936 22.012L146.21 22.012L145.958 23.848L148.442 23.2L148.172 25.09ZM156.146 19.438L153.068 19.438L152.726 17.044L155.804 17.044L156.146 19.438ZM161.348 26.944L162.968 27.448L163.454 24.046L157.82 24.046L158.072 22.354L172.778 22.354L172.526 24.046L166.874 24.046L166.748 24.91L171.554 24.91L171.302 26.62L166.514 26.62L166.37 27.646L172.184 27.646L171.95 29.356L162.716 29.356L160.592 28.69L160.322 29.356L156.902 29.356L158.72 25.108L158.252 24.568L162.356 24.568L161.348 26.944ZM159.566 17.728L158.972 17.044L172.652 17.044L171.986 21.832L158.99 21.832L159.566 17.728ZM162.806 18.916L168.962 18.916L169.034 18.412L162.878 18.412L162.806 18.916ZM168.746 20.464L168.818 19.96L162.662 19.96L162.59 20.464L168.746 20.464ZM176.342 20.608L174.506 20.608L174.758 18.898L176.576 18.898L176.81 17.26L176.378 16.738L179.528 16.738L179.222 18.898L181.022 18.898L180.77 20.608L178.97 20.608L177.692 29.662L175.064 29.662L176.342 20.608ZM181.4 29.662L182.534 28.528L183.38 22.516L180.662 22.516L180.914 20.734L189.392 20.734L189.14 22.516L186.044 22.516L185.198 28.582C185.126 29.05 184.775 29.356 184.775 29.356C184.424 29.662 183.974 29.662 183.974 29.662L181.4 29.662ZM189.284 17.08L189.032 18.88L181.634 18.88L181.886 17.08L189.284 17.08ZM188.366 23.542L188.24 29.32L186.332 29.32L186.35 23.542L188.366 23.542ZM182.804 23.542L181.328 29.32L179.42 29.32L180.896 23.542L182.804 23.542ZM173.39 29.014L174.848 20.932L176.054 20.932L174.596 29.014L173.39 29.014ZM178.448 27.988L179.132 20.932L180.32 20.932L179.654 27.988L178.448 27.988ZM193.316 25.936L193.352 25.936L193.766 26.494L194.036 24.568L190.742 24.568L190.994 22.858L197.834 22.858L197.582 24.568L196.592 24.568L196.502 25.27L197.852 25.27L197.618 26.962L196.268 26.962L196.16 27.646L205.016 27.646L204.782 29.356L193.496 29.356L192.632 28.222L192.308 29.338L189.734 29.338L190.886 25.504L190.544 24.928L193.604 24.928L193.316 25.936ZM206.168 17.044L205.934 18.754L203.954 18.754L203.612 19.618L205.61 19.618L204.872 24.91L203.36 24.91L203.054 24.568L203.558 20.986L200.48 20.986L199.976 24.568L199.598 24.91L198.068 24.91L198.806 19.618L200.534 19.618L200.876 18.754L198.752 18.754L198.986 17.044L206.168 17.044ZM192.398 17.728L191.804 17.044L198.644 17.044L197.906 22.354L191.75 22.354L192.398 17.728ZM203.144 21.49L202.712 24.568L204.728 27.304L201.992 27.304L201.218 26.044L199.94 27.304L197.546 27.304L200.318 24.568L200.75 21.49L203.144 21.49ZM195.53 20.968L195.62 20.284L194.576 20.284L194.486 20.968L195.53 20.968ZM194.738 19.096L195.782 19.096L195.89 18.412L194.846 18.412L194.738 19.096ZM221.576 24.226L220.856 29.356L206.492 29.356L207.212 24.226L221.576 24.226ZM214.97 20.122L215.6 21.67L216.932 21.67L218.84 19.366L218.876 19.096L211.712 19.096L210.848 20.122L207.428 20.122L209.966 17.116L209.606 16.702L213.728 16.702L213.152 17.386L222.53 17.386L222.17 19.96L219.29 23.38L207.32 23.38L207.572 21.67L212.18 21.67L211.55 20.122L214.97 20.122ZM217.67 27.646L217.904 25.936L210.38 25.936L210.146 27.646L217.67 27.646ZM230.27 18.412L228.884 18.502L228.704 19.78L230.594 19.78L230.342 21.49L228.47 21.49L227.318 29.662L224.744 29.662L225.896 21.49L224.186 21.49L224.438 19.78L226.13 19.78L226.292 18.664L224.582 18.754L224.816 17.044L230.522 16.702L230.27 18.412ZM235.184 28.474C235.094 28.996 234.698 29.329 234.698 29.329C234.302 29.662 233.78 29.662 233.78 29.662L230.9 29.662L232.52 27.988L233.564 20.464L236.3 20.464L235.184 28.474ZM231.89 17.134L231.548 16.702L234.446 16.702L233.978 18.07L239.378 18.07L238.658 20.806L236.606 20.806L236.876 19.78L233.42 19.78L232.97 21.148L230.576 21.148L231.89 17.134ZM238.334 21.832L237.884 28.672L236.174 28.672L236.624 21.832L238.334 21.832ZM232.88 21.832L231.386 28.672L229.676 28.672L231.17 21.832L232.88 21.832ZM225.464 22.174L224.168 29.014L222.8 29.014L224.096 22.174L225.464 22.174ZM230.09 22.174L229.442 27.988L228.074 27.988L228.722 22.174L230.09 22.174Z">
</path>
<path d="M5.00006 3L0.000122547 3L2.50009 10L5.00006 3Z"   fill="#0098EB" >
</path>
<path d="M379 3L374 3L376.5 10L379 3Z"   fill="#0098EB" >
</path>
<path d="M0 42L5 42L2.5 35L0 42Z"   fill="#0098EB" >
</path>
<path d="M374 42L379 42L376.5 35L374 42Z"   fill="#0098EB" >
</path>
<defs>
<linearGradient id="linear_fill_Jp_aocTNGDryXAyuZDG2w" x1="0.0001220703125" y1="23" x2="379.0001220703125" y2="23" gradientUnits="userSpaceOnUse">
<stop offset="0" stop-color="#0098EB" stop-opacity="0" />
<stop offset="0.5348" stop-color="#0098EB" stop-opacity="0.5" />
<stop offset="1" stop-color="#0098EB" stop-opacity="0" />
</linearGradient>
<linearGradient id="linear_fill_Di0Ut-RSODemkypYQjOin" x1="0.0001220703125" y1="41" x2="379.0001220703125" y2="41" gradientUnits="userSpaceOnUse">
<stop offset="0.0694" stop-color="#0098EB" stop-opacity="0" />
<stop offset="0.5348" stop-color="#0098EB"  />
<stop offset="0.8958" stop-color="#0098EB" stop-opacity="0" />
</linearGradient>
<linearGradient id="linear_fill_MeT2X5sf9ExUUATRtWqM8" x1="0.0001220703125" y1="44.5" x2="379.0001220703125" y2="44.5" gradientUnits="userSpaceOnUse">
<stop offset="0.1249" stop-color="#0098EB" stop-opacity="0" />
<stop offset="0.5209" stop-color="#0098EB"  />
<stop offset="0.8333" stop-color="#0098EB" stop-opacity="0" />
</linearGradient>
<linearGradient id="linear_fill_RQGeuIEMEzzoruP-uzHBc" x1="0.0001220703125" y1="0.5" x2="379.0001220703125" y2="0.5" gradientUnits="userSpaceOnUse">
<stop offset="0.1249" stop-color="#0098EB" stop-opacity="0" />
<stop offset="0.5209" stop-color="#0098EB"  />
<stop offset="0.8333" stop-color="#0098EB" stop-opacity="0" />
</linearGradient>
<linearGradient id="linear_fill_cIY39tGlq5jKn1hMIqXVJ" x1="0.0001220703125" y1="4" x2="379.0001220703125" y2="4" gradientUnits="userSpaceOnUse">
<stop offset="0.0694" stop-color="#0098EB" stop-opacity="0" />
<stop offset="0.5348" stop-color="#0098EB"  />
<stop offset="0.8958" stop-color="#0098EB" stop-opacity="0" />
</linearGradient>
</defs>
</svg>
